  0
SECTION
  2
BLOCKS
  0
ENDSEC
  0
SECTION
  2
ENTITIES
  0
LINE
  8
0
 10
52
 20
0
 11
26
 21
45.0333
  0
LINE
  8
0
 10
26
 20
45.0333
 11
-26
 21
45.0333
  0
LINE
  8
0
 10
-26
 20
45.0333
 11
-27.5348
 21
42.375
  0
LINE
  8
0
 10
-27.5348
 20
42.375
 11
-75
 21
42.375
  0
LINE
  8
0
 10
-75
 20
42.375
 11
-75
 21
36.375
  0
LINE
  8
0
 10
-75
 20
36.375
 11
-30.9989
 21
36.375
  0
LINE
  8
0
 10
-30.9989
 20
36.375
 11
-31
 21
36.3731
  0
LINE
  8
0
 10
-31
 20
36.3731
 11
10.99
 21
36.3731
  0
LINE
  8
0
 10
10.99
 20
36.3731
 11
31.99
 21
0
  0
LINE
  8
0
 10
31.99
 20
0
 11
10.99
 21
-36.3731
  0
LINE
  8
0
 10
10.99
 20
-36.3731
 11
-31
 21
-36.3731
  0
LINE
  8
0
 10
-31
 20
-36.3731
 11
-30.9989
 21
-36.375
  0
LINE
  8
0
 10
-30.9989
 20
-36.375
 11
-75
 21
-36.375
  0
LINE
  8
0
 10
-75
 20
-36.375
 11
-75
 21
-42.375
  0
LINE
  8
0
 10
-75
 20
-42.375
 11
-27.5348
 21
-42.375
  0
LINE
  8
0
 10
-27.5348
 20
-42.375
 11
-26
 21
-45.0333
  0
LINE
  8
0
 10
-26
 20
-45.0333
 11
26
 21
-45.0333
  0
LINE
  8
0
 10
26
 20
-45.0333
 11
52
 21
0
  0
LINE
  8
0
 10
24.5
 20
0
 11
7
 21
30.3109
  0
LINE
  8
0
 10
7
 20
30.3109
 11
-28
 21
30.3109
  0
LINE
  8
0
 10
-28
 20
30.3109
 11
-45.5
 21
0
  0
LINE
  8
0
 10
-45.5
 20
0
 11
-28
 21
-30.3109
  0
LINE
  8
0
 10
-28
 20
-30.3109
 11
7
 21
-30.3109
  0
LINE
  8
0
 10
7
 20
-30.3109
 11
24.5
 21
0
  0
LINE
  8
0
 10
-8.25
 20
-14.2894
 11
-16.5
 21
0
  0
LINE
  8
0
 10
-16.5
 20
0
 11
-8.24998
 21
14.2894
  0
LINE
  8
0
 10
-8.24998
 20
14.2894
 11
8.25
 21
14.2894
  0
LINE
  8
0
 10
8.25
 20
14.2894
 11
16.5
 21
0
  0
LINE
  8
0
 10
16.5
 20
0
 11
8.25
 21
-14.2894
  0
LINE
  8
0
 10
8.25
 20
-14.2894
 11
-8.25
 21
-14.2894
  0
LINE
  8
0
 10
-50.2779
 20
3
 11
-94
 21
3
  0
LINE
  8
0
 10
-94
 20
3
 11
-94
 21
-3
  0
LINE
  8
0
 10
-94
 20
-3
 11
-50.2779
 21
-3
  0
LINE
  8
0
 10
-50.2779
 20
-3
 11
-52.01
 21
0
  0
LINE
  8
0
 10
-52.01
 20
0
 11
-50.2779
 21
3
  0
ENDSEC
  0
SECTION
  2
OBJECTS
  0
DICTIONARY
  0
ENDSEC
  0
EOF
