  0
SECTION
  2
HEADER
  9
$ACADVER
  1
AC1009
  9
$EXTMIN
  10
 0.000000
  20
 0.000000
  30
 0.000000
  9
$EXTMAX
  10
 2577.000000
  20
 1836.000000
  30
 0.000000
  0
ENDSEC
  0
SECTION
  2
TABLES
  0
TABLE
  2
LAYER
  70
     2048
  0
LAYER
  2
0
  70
    0
  62
     7
  6
CONTINUOUS
  0
LAYER
   2
C7
  70
     64
  62
7
  6
CONTINUOUS
  0
LAYER
   2
C18
  70
     64
  62
18
  6
CONTINUOUS
  0
ENDTAB
  0
ENDSEC
  0
SECTION
  2
ENTITIES
  0
POLYLINE
  8
C7
  66
1
  10
0.000000
  20
1836.000000
  0
VERTEX
  8
C7
  10
0.000000
  20
1836.000000
  0
SEQEND
  8
C7
  0
POLYLINE
  8
C7
  66
1
  10
0.000000
  20
1836.000000
  0
VERTEX
  8
C7
  10
0.000000
  20
1836.000000
  0
VERTEX
  8
C7
  10
0.000000
  20
0.000000
  0
VERTEX
  8
C7
  10
2577.000000
  20
0.000000
  0
VERTEX
  8
C7
  10
2577.000000
  20
1836.000000
  0
VERTEX
  8
C7
  10
0.000000
  20
1836.000000
  0
SEQEND
  8
C18
  0
POLYLINE
  8
C18
  66
1
  10
503.000000
  20
1515.000000
  0
VERTEX
  8
C18
  10
503.000000
  20
1515.000000
  0
VERTEX
  8
C18
  10
505.000000
  20
1511.000000
  0
VERTEX
  8
C18
  10
501.000000
  20
1515.000000
  0
VERTEX
  8
C18
  10
499.000000
  20
1512.000000
  0
VERTEX
  8
C18
  10
501.000000
  20
1505.000000
  0
VERTEX
  8
C18
  10
502.000000
  20
1504.000000
  0
VERTEX
  8
C18
  10
504.000000
  20
1505.000000
  0
VERTEX
  8
C18
  10
499.000000
  20
1505.000000
  0
VERTEX
  8
C18
  10
503.000000
  20
1502.000000
  0
VERTEX
  8
C18
  10
499.000000
  20
1502.000000
  0
VERTEX
  8
C18
  10
499.000000
  20
1497.000000
  0
VERTEX
  8
C18
  10
502.000000
  20
1489.000000
  0
VERTEX
  8
C18
  10
500.000000
  20
1491.000000
  0
VERTEX
  8
C18
  10
502.000000
  20
1486.000000
  0
VERTEX
  8
C18
  10
500.000000
  20
1486.000000
  0
VERTEX
  8
C18
  10
502.000000
  20
1478.000000
  0
VERTEX
  8
C18
  10
499.000000
  20
1480.000000
  0
VERTEX
  8
C18
  10
499.000000
  20
1474.000000
  0
VERTEX
  8
C18
  10
505.000000
  20
1467.000000
  0
VERTEX
  8
C18
  10
497.000000
  20
1470.000000
  0
VERTEX
  8
C18
  10
501.000000
  20
1469.000000
  0
VERTEX
  8
C18
  10
503.000000
  20
1466.000000
  0
VERTEX
  8
C18
  10
501.000000
  20
1466.000000
  0
VERTEX
  8
C18
  10
503.000000
  20
1463.000000
  0
VERTEX
  8
C18
  10
500.000000
  20
1467.000000
  0
VERTEX
  8
C18
  10
498.000000
  20
1465.000000
  0
VERTEX
  8
C18
  10
502.000000
  20
1460.000000
  0
VERTEX
  8
C18
  10
499.000000
  20
1462.000000
  0
VERTEX
  8
C18
  10
500.000000
  20
1457.000000
  0
VERTEX
  8
C18
  10
502.000000
  20
1454.000000
  0
VERTEX
  8
C18
  10
496.000000
  20
1459.000000
  0
VERTEX
  8
C18
  10
499.000000
  20
1453.000000
  0
VERTEX
  8
C18
  10
502.000000
  20
1451.000000
  0
VERTEX
  8
C18
  10
498.000000
  20
1452.000000
  0
VERTEX
  8
C18
  10
504.000000
  20
1447.000000
  0
VERTEX
  8
C18
  10
501.000000
  20
1445.000000
  0
VERTEX
  8
C18
  10
498.000000
  20
1449.000000
  0
VERTEX
  8
C18
  10
498.000000
  20
1446.000000
  0
VERTEX
  8
C18
  10
502.000000
  20
1439.000000
  0
VERTEX
  8
C18
  10
499.000000
  20
1442.000000
  0
VERTEX
  8
C18
  10
500.000000
  20
1437.000000
  0
VERTEX
  8
C18
  10
502.000000
  20
1437.000000
  0
VERTEX
  8
C18
  10
502.000000
  20
1434.000000
  0
VERTEX
  8
C18
  10
497.000000
  20
1438.000000
  0
VERTEX
  8
C18
  10
501.000000
  20
1430.000000
  0
VERTEX
  8
C18
  10
504.000000
  20
1432.000000
  0
VERTEX
  8
C18
  10
504.704100
  20
1431.552900
  0
VERTEX
  8
C18
  10
505.454200
  20
1431.151400
  0
VERTEX
  8
C18
  10
506.247000
  20
1430.793400
  0
VERTEX
  8
C18
  10
507.079300
  20
1430.476400
  0
VERTEX
  8
C18
  10
507.947800
  20
1430.198100
  0
VERTEX
  8
C18
  10
508.849200
  20
1429.956200
  0
VERTEX
  8
C18
  10
509.780400
  20
1429.748400
  0
VERTEX
  8
C18
  10
510.737900
  20
1429.572400
  0
VERTEX
  8
C18
  10
511.718600
  20
1429.425800
  0
VERTEX
  8
C18
  10
512.719200
  20
1429.306300
  0
VERTEX
  8
C18
  10
513.736500
  20
1429.211700
  0
VERTEX
  8
C18
  10
514.767100
  20
1429.139500
  0
VERTEX
  8
C18
  10
515.807900
  20
1429.087400
  0
VERTEX
  8
C18
  10
516.855500
  20
1429.053200
  0
VERTEX
  8
C18
  10
517.906700
  20
1429.034500
  0
VERTEX
  8
C18
  10
518.958300
  20
1429.029100
  0
VERTEX
  8
C18
  10
520.006900
  20
1429.034400
  0
VERTEX
  8
C18
  10
521.049300
  20
1429.048400
  0
VERTEX
  8
C18
  10
522.082300
  20
1429.068600
  0
VERTEX
  8
C18
  10
523.102600
  20
1429.092600
  0
VERTEX
  8
C18
  10
524.106900
  20
1429.118300
  0
VERTEX
  8
C18
  10
525.092000
  20
1429.143300
  0
VERTEX
  8
C18
  10
526.054600
  20
1429.165200
  0
VERTEX
  8
C18
  10
526.991400
  20
1429.181700
  0
VERTEX
  8
C18
  10
527.899300
  20
1429.190500
  0
VERTEX
  8
C18
  10
528.774800
  20
1429.189400
  0
VERTEX
  8
C18
  10
529.614900
  20
1429.175900
  0
VERTEX
  8
C18
  10
597.000000
  20
1429.000000
  0
VERTEX
  8
C18
  10
845.000000
  20
1429.000000
  0
VERTEX
  8
C18
  10
1465.000000
  20
1429.000000
  0
VERTEX
  8
C18
  10
1634.000000
  20
1429.000000
  0
VERTEX
  8
C18
  10
1680.000000
  20
1429.000000
  0
VERTEX
  8
C18
  10
1699.736084
  20
1428.011597
  0
VERTEX
  8
C18
  10
1712.270020
  20
1408.003906
  0
VERTEX
  8
C18
  10
1742.000000
  20
1356.281616
  0
VERTEX
  8
C18
  10
1853.579468
  20
1161.910522
  0
VERTEX
  8
C18
  10
1957.513916
  20
980.714478
  0
VERTEX
  8
C18
  10
1984.424316
  20
934.169739
  0
VERTEX
  8
C18
  10
1984.853600
  20
933.478600
  0
VERTEX
  8
C18
  10
1985.322500
  20
932.749600
  0
VERTEX
  8
C18
  10
1985.824800
  20
931.985700
  0
VERTEX
  8
C18
  10
1986.354600
  20
931.189900
  0
VERTEX
  8
C18
  10
1986.905800
  20
930.365100
  0
VERTEX
  8
C18
  10
1987.472700
  20
929.514400
  0
VERTEX
  8
C18
  10
1988.049000
  20
928.640800
  0
VERTEX
  8
C18
  10
1988.629000
  20
927.747300
  0
VERTEX
  8
C18
  10
1989.206500
  20
926.836900
  0
VERTEX
  8
C18
  10
1989.775700
  20
925.912600
  0
VERTEX
  8
C18
  10
1990.330500
  20
924.977400
  0
VERTEX
  8
C18
  10
1990.865000
  20
924.034300
  0
VERTEX
  8
C18
  10
1991.373200
  20
923.086300
  0
VERTEX
  8
C18
  10
1991.849100
  20
922.136500
  0
VERTEX
  8
C18
  10
1992.286800
  20
921.187800
  0
VERTEX
  8
C18
  10
1992.680200
  20
920.243300
  0
VERTEX
  8
C18
  10
1993.023400
  20
919.305900
  0
VERTEX
  8
C18
  10
1993.310500
  20
918.378600
  0
VERTEX
  8
C18
  10
1993.535300
  20
917.464600
  0
VERTEX
  8
C18
  10
1993.692100
  20
916.566600
  0
VERTEX
  8
C18
  10
1993.774700
  20
915.687900
  0
VERTEX
  8
C18
  10
1993.777200
  20
914.831300
  0
VERTEX
  8
C18
  10
1993.693700
  20
914.000000
  0
VERTEX
  8
C18
  10
1993.542400
  20
913.148200
  0
VERTEX
  8
C18
  10
1993.356500
  20
912.290700
  0
VERTEX
  8
C18
  10
1993.137500
  20
911.428000
  0
VERTEX
  8
C18
  10
1992.886600
  20
910.560600
  0
VERTEX
  8
C18
  10
1992.605300
  20
909.688700
  0
VERTEX
  8
C18
  10
1992.295000
  20
908.812900
  0
VERTEX
  8
C18
  10
1991.957100
  20
907.933600
  0
VERTEX
  8
C18
  10
1991.593100
  20
907.051200
  0
VERTEX
  8
C18
  10
1991.204300
  20
906.166100
  0
VERTEX
  8
C18
  10
1990.792100
  20
905.278800
  0
VERTEX
  8
C18
  10
1990.358000
  20
904.389700
  0
VERTEX
  8
C18
  10
1989.903400
  20
903.499200
  0
VERTEX
  8
C18
  10
1989.429700
  20
902.607800
  0
VERTEX
  8
C18
  10
1988.938300
  20
901.715800
  0
VERTEX
  8
C18
  10
1988.430600
  20
900.823700
  0
VERTEX
  8
C18
  10
1987.908000
  20
899.932000
  0
VERTEX
  8
C18
  10
1987.371900
  20
899.041000
  0
VERTEX
  8
C18
  10
1986.823700
  20
898.151200
  0
VERTEX
  8
C18
  10
1986.264900
  20
897.263000
  0
VERTEX
  8
C18
  10
1985.696900
  20
896.376900
  0
VERTEX
  8
C18
  10
1985.121000
  20
895.493200
  0
VERTEX
  8
C18
  10
1984.538700
  20
894.612400
  0
VERTEX
  8
C18
  10
1983.951400
  20
893.734900
  0
VERTEX
  8
C18
  10
1983.360500
  20
892.861200
  0
VERTEX
  8
C18
  10
1982.767400
  20
891.991700
  0
VERTEX
  8
C18
  10
1982.173500
  20
891.126700
  0
VERTEX
  8
C18
  10
1981.580300
  20
890.266800
  0
VERTEX
  8
C18
  10
1980.989100
  20
889.412400
  0
VERTEX
  8
C18
  10
1980.401300
  20
888.563800
  0
VERTEX
  8
C18
  10
1979.818400
  20
887.721600
  0
VERTEX
  8
C18
  10
1979.241800
  20
886.886100
  0
VERTEX
  8
C18
  10
1978.672900
  20
886.057800
  0
VERTEX
  8
C18
  10
1978.113100
  20
885.237000
  0
VERTEX
  8
C18
  10
1977.563700
  20
884.424300
  0
VERTEX
  8
C18
  10
1977.026300
  20
883.620100
  0
VERTEX
  8
C18
  10
1976.502200
  20
882.824700
  0
VERTEX
  8
C18
  10
1975.992900
  20
882.038700
  0
VERTEX
  8
C18
  10
1975.499700
  20
881.262300
  0
VERTEX
  8
C18
  10
1975.024000
  20
880.496200
  0
VERTEX
  8
C18
  10
1974.567400
  20
879.740600
  0
VERTEX
  8
C18
  10
1974.131100
  20
878.996100
  0
VERTEX
  8
C18
  10
1926.225342
  20
796.000000
  0
VERTEX
  8
C18
  10
1767.000000
  20
520.169739
  0
VERTEX
  8
C18
  10
1721.575684
  20
442.088745
  0
VERTEX
  8
C18
  10
1700.000000
  20
403.000000
  0
VERTEX
  8
C18
  10
1655.000000
  20
404.000000
  0
VERTEX
  8
C18
  10
1564.000000
  20
404.000000
  0
VERTEX
  8
C18
  10
1270.000000
  20
404.000000
  0
VERTEX
  8
C18
  10
705.000000
  20
404.000000
  0
VERTEX
  8
C18
  10
513.000000
  20
403.003845
  0
VERTEX
  8
C18
  10
512.017500
  20
402.995000
  0
VERTEX
  8
C18
  10
511.033800
  20
402.988900
  0
VERTEX
  8
C18
  10
510.048800
  20
402.985400
  0
VERTEX
  8
C18
  10
509.062600
  20
402.984300
  0
VERTEX
  8
C18
  10
508.075100
  20
402.985600
  0
VERTEX
  8
C18
  10
507.086400
  20
402.989200
  0
VERTEX
  8
C18
  10
506.096600
  20
402.995000
  0
VERTEX
  8
C18
  10
505.105600
  20
403.003000
  0
VERTEX
  8
C18
  10
504.113500
  20
403.013000
  0
VERTEX
  8
C18
  10
503.120400
  20
403.024900
  0
VERTEX
  8
C18
  10
502.126200
  20
403.038700
  0
VERTEX
  8
C18
  10
501.131000
  20
403.054300
  0
VERTEX
  8
C18
  10
500.134800
  20
403.071600
  0
VERTEX
  8
C18
  10
499.137600
  20
403.090500
  0
VERTEX
  8
C18
  10
498.139600
  20
403.110900
  0
VERTEX
  8
C18
  10
497.140600
  20
403.132800
  0
VERTEX
  8
C18
  10
496.140800
  20
403.155900
  0
VERTEX
  8
C18
  10
495.140200
  20
403.180400
  0
VERTEX
  8
C18
  10
494.138700
  20
403.206000
  0
VERTEX
  8
C18
  10
493.136500
  20
403.232700
  0
VERTEX
  8
C18
  10
492.133600
  20
403.260400
  0
VERTEX
  8
C18
  10
491.129900
  20
403.289100
  0
VERTEX
  8
C18
  10
490.125600
  20
403.318500
  0
VERTEX
  8
C18
  10
489.120600
  20
403.348700
  0
VERTEX
  8
C18
  10
488.115000
  20
403.379500
  0
VERTEX
  8
C18
  10
487.108800
  20
403.411000
  0
VERTEX
  8
C18
  10
486.102100
  20
403.442900
  0
VERTEX
  8
C18
  10
485.094800
  20
403.475100
  0
VERTEX
  8
C18
  10
484.087000
  20
403.507700
  0
VERTEX
  8
C18
  10
483.078800
  20
403.540600
  0
VERTEX
  8
C18
  10
482.070100
  20
403.573500
  0
VERTEX
  8
C18
  10
481.061100
  20
403.606500
  0
VERTEX
  8
C18
  10
480.051600
  20
403.639500
  0
VERTEX
  8
C18
  10
479.041800
  20
403.672300
  0
VERTEX
  8
C18
  10
478.031700
  20
403.704900
  0
VERTEX
  8
C18
  10
477.021300
  20
403.737200
  0
VERTEX
  8
C18
  10
476.010700
  20
403.769200
  0
VERTEX
  8
C18
  10
474.999800
  20
403.800700
  0
VERTEX
  8
C18
  10
473.988800
  20
403.831600
  0
VERTEX
  8
C18
  10
472.977500
  20
403.861800
  0
VERTEX
  8
C18
  10
471.966200
  20
403.891400
  0
VERTEX
  8
C18
  10
470.954700
  20
403.920100
  0
VERTEX
  8
C18
  10
469.943200
  20
403.947900
  0
VERTEX
  8
C18
  10
468.931700
  20
403.974700
  0
VERTEX
  8
C18
  10
467.920100
  20
404.000500
  0
VERTEX
  8
C18
  10
466.908500
  20
404.025000
  0
VERTEX
  8
C18
  10
465.897000
  20
404.048400
  0
VERTEX
  8
C18
  10
464.885600
  20
404.070300
  0
VERTEX
  8
C18
  10
463.874300
  20
404.090900
  0
VERTEX
  8
C18
  10
462.863100
  20
404.110000
  0
VERTEX
  8
C18
  10
461.852100
  20
404.127400
  0
VERTEX
  8
C18
  10
460.841400
  20
404.143200
  0
VERTEX
  8
C18
  10
459.830800
  20
404.157200
  0
VERTEX
  8
C18
  10
458.820500
  20
404.169300
  0
VERTEX
  8
C18
  10
457.810500
  20
404.179600
  0
VERTEX
  8
C18
  10
456.800800
  20
404.187700
  0
VERTEX
  8
C18
  10
455.791500
  20
404.193800
  0
VERTEX
  8
C18
  10
454.782600
  20
404.197600
  0
VERTEX
  8
C18
  10
453.774000
  20
404.199200
  0
VERTEX
  8
C18
  10
452.766000
  20
404.198400
  0
VERTEX
  8
C18
  10
451.758400
  20
404.195100
  0
VERTEX
  8
C18
  10
450.751300
  20
404.189300
  0
VERTEX
  8
C18
  10
449.744700
  20
404.180800
  0
VERTEX
  8
C18
  10
448.738700
  20
404.169600
  0
VERTEX
  8
C18
  10
447.733300
  20
404.155600
  0
VERTEX
  8
C18
  10
446.728600
  20
404.138700
  0
VERTEX
  8
C18
  10
445.724400
  20
404.118900
  0
VERTEX
  8
C18
  10
444.721000
  20
404.095900
  0
VERTEX
  8
C18
  10
443.718300
  20
404.069800
  0
VERTEX
  8
C18
  10
442.716400
  20
404.040500
  0
VERTEX
  8
C18
  10
441.715200
  20
404.007800
  0
VERTEX
  8
C18
  10
440.714800
  20
403.971700
  0
VERTEX
  8
C18
  10
439.715300
  20
403.932100
  0
VERTEX
  8
C18
  10
438.716700
  20
403.889000
  0
VERTEX
  8
C18
  10
437.718900
  20
403.842100
  0
VERTEX
  8
C18
  10
436.722100
  20
403.791500
  0
VERTEX
  8
C18
  10
435.726300
  20
403.737000
  0
VERTEX
  8
C18
  10
434.731400
  20
403.678600
  0
VERTEX
  8
C18
  10
433.737500
  20
403.616200
  0
VERTEX
  8
C18
  10
432.744800
  20
403.549700
  0
VERTEX
  8
C18
  10
431.753100
  20
403.479000
  0
VERTEX
  8
C18
  10
430.762500
  20
403.404000
  0
VERTEX
  8
C18
  10
429.773000
  20
403.324600
  0
VERTEX
  8
C18
  10
428.784700
  20
403.240800
  0
VERTEX
  8
C18
  10
427.797700
  20
403.152400
  0
VERTEX
  8
C18
  10
426.811800
  20
403.059400
  0
VERTEX
  8
C18
  10
425.827300
  20
402.961700
  0
VERTEX
  8
C18
  10
424.844000
  20
402.859200
  0
VERTEX
  8
C18
  10
423.862100
  20
402.751800
  0
VERTEX
  8
C18
  10
422.881500
  20
402.639400
  0
VERTEX
  8
C18
  10
421.902300
  20
402.522000
  0
VERTEX
  8
C18
  10
420.924500
  20
402.399400
  0
VERTEX
  8
C18
  10
419.948200
  20
402.271600
  0
VERTEX
  8
C18
  10
418.973300
  20
402.138500
  0
VERTEX
  8
C18
  10
418.000000
  20
402.000000
  0
VERTEX
  8
C18
  10
421.000000
  20
399.000000
  0
VERTEX
  8
C18
  10
418.000000
  20
400.000000
  0
VERTEX
  8
C18
  10
420.000000
  20
395.000000
  0
VERTEX
  8
C18
  10
418.000000
  20
398.000000
  0
VERTEX
  8
C18
  10
419.000000
  20
390.000000
  0
VERTEX
  8
C18
  10
416.000000
  20
392.000000
  0
VERTEX
  8
C18
  10
419.000000
  20
387.000000
  0
VERTEX
  8
C18
  10
415.000000
  20
390.000000
  0
VERTEX
  8
C18
  10
418.000000
  20
382.000000
  0
VERTEX
  8
C18
  10
419.000000
  20
385.000000
  0
VERTEX
  8
C18
  10
422.000000
  20
379.000000
  0
VERTEX
  8
C18
  10
418.000000
  20
381.000000
  0
VERTEX
  8
C18
  10
422.000000
  20
374.000000
  0
VERTEX
  8
C18
  10
417.000000
  20
375.000000
  0
VERTEX
  8
C18
  10
422.000000
  20
372.000000
  0
VERTEX
  8
C18
  10
417.000000
  20
372.000000
  0
VERTEX
  8
C18
  10
417.000000
  20
369.000000
  0
VERTEX
  8
C18
  10
420.000000
  20
367.000000
  0
VERTEX
  8
C18
  10
417.000000
  20
367.000000
  0
VERTEX
  8
C18
  10
418.000000
  20
364.000000
  0
VERTEX
  8
C18
  10
414.000000
  20
366.000000
  0
VERTEX
  8
C18
  10
417.000000
  20
361.000000
  0
VERTEX
  8
C18
  10
418.066100
  20
361.132400
  0
VERTEX
  8
C18
  10
418.731200
  20
361.060300
  0
VERTEX
  8
C18
  10
419.043300
  20
360.849100
  0
VERTEX
  8
C18
  10
419.050900
  20
360.564400
  0
VERTEX
  8
C18
  10
418.802100
  20
360.271600
  0
VERTEX
  8
C18
  10
418.345200
  20
360.036300
  0
VERTEX
  8
C18
  10
417.728400
  20
359.923900
  0
VERTEX
  8
C18
  10
417.000000
  20
360.000000
  0
VERTEX
  8
C18
  10
417.000000
  20
354.000000
  0
VERTEX
  8
C18
  10
421.000000
  20
354.000000
  0
VERTEX
  8
C18
  10
420.000000
  20
346.000000
  0
VERTEX
  8
C18
  10
417.000000
  20
353.000000
  0
VERTEX
  8
C18
  10
419.000000
  20
342.000000
  0
VERTEX
  8
C18
  10
415.000000
  20
347.000000
  0
VERTEX
  8
C18
  10
419.000000
  20
338.000000
  0
VERTEX
  8
C18
  10
417.000000
  20
340.000000
  0
VERTEX
  8
C18
  10
417.086100
  20
339.340300
  0
VERTEX
  8
C18
  10
417.147400
  20
338.620200
  0
VERTEX
  8
C18
  10
417.197100
  20
337.872000
  0
VERTEX
  8
C18
  10
417.248600
  20
337.128300
  0
VERTEX
  8
C18
  10
417.315300
  20
336.421600
  0
VERTEX
  8
C18
  10
417.410600
  20
335.784400
  0
VERTEX
  8
C18
  10
417.547800
  20
335.249200
  0
VERTEX
  8
C18
  10
417.740300
  20
334.848400
  0
VERTEX
  8
C18
  10
418.001500
  20
334.614700
  0
VERTEX
  8
C18
  10
418.344600
  20
334.580500
  0
VERTEX
  8
C18
  10
418.783200
  20
334.778300
  0
VERTEX
  8
C18
  10
419.330500
  20
335.240600
  0
VERTEX
  8
C18
  10
420.000000
  20
336.000000
  0
VERTEX
  8
C18
  10
420.000000
  20
331.000000
  0
VERTEX
  8
C18
  10
416.000000
  20
334.000000
  0
VERTEX
  8
C18
  10
417.000000
  20
328.000000
  0
VERTEX
  8
C18
  10
418.000000
  20
319.000000
  0
VERTEX
  8
C18
  10
419.000000
  20
325.000000
  0
VERTEX
  8
C18
  10
420.000000
  20
320.000000
  0
VERTEX
  8
C18
  10
421.000000
  20
319.000000
  0
VERTEX
  8
C18
  10
458.000000
  20
318.000000
  0
VERTEX
  8
C18
  10
553.000000
  20
318.000000
  0
VERTEX
  8
C18
  10
843.000000
  20
318.000000
  0
VERTEX
  8
C18
  10
1053.000000
  20
318.000000
  0
VERTEX
  8
C18
  10
1053.970900
  20
318.001200
  0
VERTEX
  8
C18
  10
1054.943700
  20
318.004900
  0
VERTEX
  8
C18
  10
1055.918300
  20
318.011000
  0
VERTEX
  8
C18
  10
1056.894800
  20
318.019300
  0
VERTEX
  8
C18
  10
1057.873100
  20
318.029900
  0
VERTEX
  8
C18
  10
1058.853100
  20
318.042600
  0
VERTEX
  8
C18
  10
1059.834900
  20
318.057400
  0
VERTEX
  8
C18
  10
1060.818200
  20
318.074200
  0
VERTEX
  8
C18
  10
1061.803200
  20
318.092900
  0
VERTEX
  8
C18
  10
1062.789800
  20
318.113500
  0
VERTEX
  8
C18
  10
1063.778000
  20
318.135800
  0
VERTEX
  8
C18
  10
1064.767600
  20
318.159800
  0
VERTEX
  8
C18
  10
1065.758700
  20
318.185500
  0
VERTEX
  8
C18
  10
1066.751200
  20
318.212600
  0
VERTEX
  8
C18
  10
1067.745100
  20
318.241300
  0
VERTEX
  8
C18
  10
1068.740300
  20
318.271400
  0
VERTEX
  8
C18
  10
1069.736900
  20
318.302700
  0
VERTEX
  8
C18
  10
1070.734700
  20
318.335400
  0
VERTEX
  8
C18
  10
1071.733700
  20
318.369200
  0
VERTEX
  8
C18
  10
1072.733900
  20
318.404100
  0
VERTEX
  8
C18
  10
1073.735300
  20
318.440000
  0
VERTEX
  8
C18
  10
1074.737700
  20
318.476900
  0
VERTEX
  8
C18
  10
1075.741200
  20
318.514600
  0
VERTEX
  8
C18
  10
1076.745800
  20
318.553100
  0
VERTEX
  8
C18
  10
1077.751300
  20
318.592400
  0
VERTEX
  8
C18
  10
1078.757700
  20
318.632300
  0
VERTEX
  8
C18
  10
1079.765100
  20
318.672800
  0
VERTEX
  8
C18
  10
1080.773300
  20
318.713800
  0
VERTEX
  8
C18
  10
1081.782300
  20
318.755200
  0
VERTEX
  8
C18
  10
1082.792200
  20
318.796900
  0
VERTEX
  8
C18
  10
1083.802700
  20
318.839000
  0
VERTEX
  8
C18
  10
1084.814000
  20
318.881200
  0
VERTEX
  8
C18
  10
1085.825900
  20
318.923500
  0
VERTEX
  8
C18
  10
1086.838500
  20
318.965900
  0
VERTEX
  8
C18
  10
1087.851600
  20
319.008300
  0
VERTEX
  8
C18
  10
1088.865300
  20
319.050600
  0
VERTEX
  8
C18
  10
1089.879500
  20
319.092700
  0
VERTEX
  8
C18
  10
1090.894100
  20
319.134500
  0
VERTEX
  8
C18
  10
1091.909200
  20
319.176100
  0
VERTEX
  8
C18
  10
1092.924600
  20
319.217200
  0
VERTEX
  8
C18
  10
1093.940400
  20
319.257800
  0
VERTEX
  8
C18
  10
1094.956500
  20
319.297900
  0
VERTEX
  8
C18
  10
1095.972800
  20
319.337400
  0
VERTEX
  8
C18
  10
1096.989400
  20
319.376200
  0
VERTEX
  8
C18
  10
1098.006100
  20
319.414200
  0
VERTEX
  8
C18
  10
1099.023000
  20
319.451300
  0
VERTEX
  8
C18
  10
1100.040000
  20
319.487500
  0
VERTEX
  8
C18
  10
1101.057100
  20
319.522800
  0
VERTEX
  8
C18
  10
1102.074100
  20
319.556900
  0
VERTEX
  8
C18
  10
1103.091200
  20
319.589900
  0
VERTEX
  8
C18
  10
1104.108200
  20
319.621700
  0
VERTEX
  8
C18
  10
1105.125100
  20
319.652200
  0
VERTEX
  8
C18
  10
1106.141800
  20
319.681300
  0
VERTEX
  8
C18
  10
1107.158400
  20
319.709000
  0
VERTEX
  8
C18
  10
1108.174800
  20
319.735100
  0
VERTEX
  8
C18
  10
1109.190900
  20
319.759600
  0
VERTEX
  8
C18
  10
1110.206700
  20
319.782500
  0
VERTEX
  8
C18
  10
1111.222100
  20
319.803600
  0
VERTEX
  8
C18
  10
1112.237200
  20
319.822900
  0
VERTEX
  8
C18
  10
1113.251900
  20
319.840300
  0
VERTEX
  8
C18
  10
1114.266100
  20
319.855800
  0
VERTEX
  8
C18
  10
1115.279800
  20
319.869100
  0
VERTEX
  8
C18
  10
1116.293000
  20
319.880400
  0
VERTEX
  8
C18
  10
1117.305600
  20
319.889500
  0
VERTEX
  8
C18
  10
1118.317500
  20
319.896300
  0
VERTEX
  8
C18
  10
1119.328900
  20
319.900700
  0
VERTEX
  8
C18
  10
1120.339500
  20
319.902700
  0
VERTEX
  8
C18
  10
1121.349400
  20
319.902300
  0
VERTEX
  8
C18
  10
1122.358400
  20
319.899200
  0
VERTEX
  8
C18
  10
1123.366700
  20
319.893500
  0
VERTEX
  8
C18
  10
1124.374100
  20
319.885100
  0
VERTEX
  8
C18
  10
1125.380700
  20
319.873900
  0
VERTEX
  8
C18
  10
1126.386200
  20
319.859800
  0
VERTEX
  8
C18
  10
1127.390800
  20
319.842800
  0
VERTEX
  8
C18
  10
1128.394400
  20
319.822800
  0
VERTEX
  8
C18
  10
1129.397000
  20
319.799600
  0
VERTEX
  8
C18
  10
1130.398400
  20
319.773300
  0
VERTEX
  8
C18
  10
1131.398700
  20
319.743800
  0
VERTEX
  8
C18
  10
1132.397800
  20
319.710900
  0
VERTEX
  8
C18
  10
1133.395700
  20
319.674600
  0
VERTEX
  8
C18
  10
1134.392300
  20
319.634900
  0
VERTEX
  8
C18
  10
1135.387600
  20
319.591600
  0
VERTEX
  8
C18
  10
1136.381600
  20
319.544700
  0
VERTEX
  8
C18
  10
1137.374200
  20
319.494100
  0
VERTEX
  8
C18
  10
1138.365400
  20
319.439800
  0
VERTEX
  8
C18
  10
1139.355100
  20
319.381600
  0
VERTEX
  8
C18
  10
1140.343400
  20
319.319400
  0
VERTEX
  8
C18
  10
1141.330100
  20
319.253300
  0
VERTEX
  8
C18
  10
1142.315200
  20
319.183100
  0
VERTEX
  8
C18
  10
1143.298700
  20
319.108800
  0
VERTEX
  8
C18
  10
1144.280500
  20
319.030300
  0
VERTEX
  8
C18
  10
1145.260700
  20
318.947400
  0
VERTEX
  8
C18
  10
1146.239000
  20
318.860200
  0
VERTEX
  8
C18
  10
1147.215700
  20
318.768600
  0
VERTEX
  8
C18
  10
1148.190500
  20
318.672400
  0
VERTEX
  8
C18
  10
1149.163400
  20
318.571600
  0
VERTEX
  8
C18
  10
1150.134400
  20
318.466200
  0
VERTEX
  8
C18
  10
1151.103500
  20
318.356000
  0
VERTEX
  8
C18
  10
1152.070700
  20
318.241100
  0
VERTEX
  8
C18
  10
1153.035800
  20
318.121200
  0
VERTEX
  8
C18
  10
1153.998800
  20
317.996300
  0
VERTEX
  8
C18
  10
1154.959800
  20
317.866500
  0
VERTEX
  8
C18
  10
1155.969100
  20
317.665100
  0
VERTEX
  8
C18
  10
1156.887100
  20
317.359100
  0
VERTEX
  8
C18
  10
1157.721700
  20
316.957500
  0
VERTEX
  8
C18
  10
1158.480600
  20
316.469400
  0
VERTEX
  8
C18
  10
1159.171800
  20
315.903900
  0
VERTEX
  8
C18
  10
1159.803200
  20
315.270200
  0
VERTEX
  8
C18
  10
1160.382700
  20
314.577400
  0
VERTEX
  8
C18
  10
1160.918100
  20
313.834600
  0
VERTEX
  8
C18
  10
1161.417400
  20
313.050900
  0
VERTEX
  8
C18
  10
1161.888300
  20
312.235300
  0
VERTEX
  8
C18
  10
1162.338900
  20
311.397100
  0
VERTEX
  8
C18
  10
1162.776900
  20
310.545400
  0
VERTEX
  8
C18
  10
1163.210400
  20
309.689200
  0
VERTEX
  8
C18
  10
1163.647000
  20
308.837700
  0
VERTEX
  8
C18
  10
1164.094900
  20
308.000000
  0
VERTEX
  8
C18
  10
1178.561768
  20
283.000763
  0
VERTEX
  8
C18
  10
1186.188232
  20
274.278534
  0
VERTEX
  8
C18
  10
1220.000000
  20
274.000000
  0
VERTEX
  8
C18
  10
1292.000000
  20
274.000000
  0
VERTEX
  8
C18
  10
1520.000000
  20
274.000000
  0
VERTEX
  8
C18
  10
1811.000000
  20
274.000000
  0
VERTEX
  8
C18
  10
1893.000000
  20
274.000000
  0
VERTEX
  8
C18
  10
1926.620361
  20
274.603394
  0
VERTEX
  8
C18
  10
1933.551025
  20
284.169769
  0
VERTEX
  8
C18
  10
1948.365723
  20
310.014648
  0
VERTEX
  8
C18
  10
2009.583374
  20
416.170532
  0
VERTEX
  8
C18
  10
2123.513916
  20
612.949829
  0
VERTEX
  8
C18
  10
2226.499268
  20
790.910522
  0
VERTEX
  8
C18
  10
2278.733643
  20
881.000000
  0
VERTEX
  8
C18
  10
2279.118600
  20
881.635500
  0
VERTEX
  8
C18
  10
2279.532400
  20
882.297500
  0
VERTEX
  8
C18
  10
2279.973200
  20
882.984800
  0
VERTEX
  8
C18
  10
2280.439000
  20
883.696200
  0
VERTEX
  8
C18
  10
2280.927900
  20
884.430600
  0
VERTEX
  8
C18
  10
2281.438000
  20
885.186800
  0
VERTEX
  8
C18
  10
2281.967500
  20
885.963700
  0
VERTEX
  8
C18
  10
2282.514300
  20
886.760000
  0
VERTEX
  8
C18
  10
2283.076700
  20
887.574700
  0
VERTEX
  8
C18
  10
2283.652700
  20
888.406600
  0
VERTEX
  8
C18
  10
2284.240400
  20
889.254500
  0
VERTEX
  8
C18
  10
2284.837900
  20
890.117300
  0
VERTEX
  8
C18
  10
2285.443300
  20
890.993700
  0
VERTEX
  8
C18
  10
2286.054700
  20
891.882800
  0
VERTEX
  8
C18
  10
2286.670200
  20
892.783200
  0
VERTEX
  8
C18
  10
2287.288000
  20
893.693900
  0
VERTEX
  8
C18
  10
2287.906000
  20
894.613700
  0
VERTEX
  8
C18
  10
2288.522400
  20
895.541400
  0
VERTEX
  8
C18
  10
2289.135400
  20
896.475800
  0
VERTEX
  8
C18
  10
2289.742900
  20
897.415900
  0
VERTEX
  8
C18
  10
2290.343100
  20
898.360400
  0
VERTEX
  8
C18
  10
2290.934100
  20
899.308300
  0
VERTEX
  8
C18
  10
2291.514000
  20
900.258200
  0
VERTEX
  8
C18
  10
2292.080900
  20
901.209200
  0
VERTEX
  8
C18
  10
2292.632900
  20
902.159900
  0
VERTEX
  8
C18
  10
2293.168100
  20
903.109400
  0
VERTEX
  8
C18
  10
2293.684600
  20
904.056400
  0
VERTEX
  8
C18
  10
2294.180500
  20
904.999700
  0
VERTEX
  8
C18
  10
2294.653800
  20
905.938200
  0
VERTEX
  8
C18
  10
2295.102700
  20
906.870700
  0
VERTEX
  8
C18
  10
2295.525300
  20
907.796200
  0
VERTEX
  8
C18
  10
2295.919700
  20
908.713300
  0
VERTEX
  8
C18
  10
2296.284000
  20
909.621000
  0
VERTEX
  8
C18
  10
2296.616300
  20
910.518200
  0
VERTEX
  8
C18
  10
2296.914600
  20
911.403600
  0
VERTEX
  8
C18
  10
2297.177100
  20
912.276100
  0
VERTEX
  8
C18
  10
2297.401900
  20
913.134500
  0
VERTEX
  8
C18
  10
2297.587000
  20
913.977700
  0
VERTEX
  8
C18
  10
2297.730600
  20
914.804600
  0
VERTEX
  8
C18
  10
2297.830800
  20
915.613900
  0
VERTEX
  8
C18
  10
2297.885600
  20
916.404500
  0
VERTEX
  8
C18
  10
2297.893300
  20
917.175300
  0
VERTEX
  8
C18
  10
2297.851800
  20
917.925100
  0
VERTEX
  8
C18
  10
2297.759100
  20
918.727500
  0
VERTEX
  8
C18
  10
2297.625800
  20
919.545600
  0
VERTEX
  8
C18
  10
2297.453400
  20
920.378200
  0
VERTEX
  8
C18
  10
2297.243700
  20
921.224600
  0
VERTEX
  8
C18
  10
2296.998300
  20
922.083700
  0
VERTEX
  8
C18
  10
2296.718900
  20
922.954600
  0
VERTEX
  8
C18
  10
2296.407100
  20
923.836400
  0
VERTEX
  8
C18
  10
2296.064700
  20
924.728100
  0
VERTEX
  8
C18
  10
2295.693300
  20
925.628800
  0
VERTEX
  8
C18
  10
2295.294600
  20
926.537500
  0
VERTEX
  8
C18
  10
2294.870300
  20
927.453400
  0
VERTEX
  8
C18
  10
2294.422000
  20
928.375400
  0
VERTEX
  8
C18
  10
2293.951400
  20
929.302600
  0
VERTEX
  8
C18
  10
2293.460100
  20
930.234200
  0
VERTEX
  8
C18
  10
2292.949900
  20
931.169100
  0
VERTEX
  8
C18
  10
2292.422400
  20
932.106400
  0
VERTEX
  8
C18
  10
2291.879400
  20
933.045200
  0
VERTEX
  8
C18
  10
2291.322300
  20
933.984500
  0
VERTEX
  8
C18
  10
2290.753000
  20
934.923400
  0
VERTEX
  8
C18
  10
2290.173200
  20
935.861000
  0
VERTEX
  8
C18
  10
2289.584400
  20
936.796300
  0
VERTEX
  8
C18
  10
2288.988300
  20
937.728400
  0
VERTEX
  8
C18
  10
2288.386700
  20
938.656300
  0
VERTEX
  8
C18
  10
2287.781100
  20
939.579100
  0
VERTEX
  8
C18
  10
2287.173400
  20
940.495800
  0
VERTEX
  8
C18
  10
2286.565100
  20
941.405600
  0
VERTEX
  8
C18
  10
2285.957900
  20
942.307400
  0
VERTEX
  8
C18
  10
2285.353500
  20
943.200400
  0
VERTEX
  8
C18
  10
2284.753500
  20
944.083600
  0
VERTEX
  8
C18
  10
2284.159700
  20
944.956100
  0
VERTEX
  8
C18
  10
2283.573700
  20
945.816900
  0
VERTEX
  8
C18
  10
2282.997100
  20
946.665000
  0
VERTEX
  8
C18
  10
2282.431700
  20
947.499600
  0
VERTEX
  8
C18
  10
2281.879200
  20
948.319700
  0
VERTEX
  8
C18
  10
2281.341100
  20
949.124400
  0
VERTEX
  8
C18
  10
2280.819200
  20
949.912700
  0
VERTEX
  8
C18
  10
2280.315100
  20
950.683600
  0
VERTEX
  8
C18
  10
2279.830500
  20
951.436300
  0
VERTEX
  8
C18
  10
2279.367200
  20
952.169900
  0
VERTEX
  8
C18
  10
2278.926600
  20
952.883200
  0
VERTEX
  8
C18
  10
2278.510700
  20
953.575600
  0
VERTEX
  8
C18
  10
2233.036377
  20
1032.714478
  0
VERTEX
  8
C18
  10
2085.283936
  20
1290.000000
  0
VERTEX
  8
C18
  10
1968.709839
  20
1492.964478
  0
VERTEX
  8
C18
  10
1940.373413
  20
1542.014648
  0
VERTEX
  8
C18
  10
1927.674316
  20
1561.396606
  0
VERTEX
  8
C18
  10
1895.000000
  20
1562.000000
  0
VERTEX
  8
C18
  10
1817.000000
  20
1562.000000
  0
VERTEX
  8
C18
  10
1543.000000
  20
1562.000000
  0
VERTEX
  8
C18
  10
1298.000000
  20
1562.000000
  0
VERTEX
  8
C18
  10
1222.000000
  20
1562.000000
  0
VERTEX
  8
C18
  10
1187.129639
  20
1561.686035
  0
VERTEX
  8
C18
  10
1179.084106
  20
1552.035522
  0
VERTEX
  8
C18
  10
1164.421387
  20
1527.000000
  0
VERTEX
  8
C18
  10
1163.993600
  20
1526.229000
  0
VERTEX
  8
C18
  10
1163.566200
  20
1525.421200
  0
VERTEX
  8
C18
  10
1163.134400
  20
1524.587100
  0
VERTEX
  8
C18
  10
1162.693400
  20
1523.737200
  0
VERTEX
  8
C18
  10
1162.238400
  20
1522.882100
  0
VERTEX
  8
C18
  10
1161.764800
  20
1522.032400
  0
VERTEX
  8
C18
  10
1161.267700
  20
1521.198500
  0
VERTEX
  8
C18
  10
1160.742400
  20
1520.391100
  0
VERTEX
  8
C18
  10
1160.184200
  20
1519.620600
  0
VERTEX
  8
C18
  10
1159.588400
  20
1518.897600
  0
VERTEX
  8
C18
  10
1158.950100
  20
1518.232700
  0
VERTEX
  8
C18
  10
1158.264700
  20
1517.636400
  0
VERTEX
  8
C18
  10
1157.527400
  20
1517.119200
  0
VERTEX
  8
C18
  10
1156.733400
  20
1516.691800
  0
VERTEX
  8
C18
  10
1155.878100
  20
1516.364500
  0
VERTEX
  8
C18
  10
1154.956700
  20
1516.148100
  0
VERTEX
  8
C18
  10
1154.010600
  20
1515.996200
  0
VERTEX
  8
C18
  10
1153.060900
  20
1515.851600
  0
VERTEX
  8
C18
  10
1152.107700
  20
1515.714200
  0
VERTEX
  8
C18
  10
1151.151000
  20
1515.583900
  0
VERTEX
  8
C18
  10
1150.191000
  20
1515.460500
  0
VERTEX
  8
C18
  10
1149.227700
  20
1515.343800
  0
VERTEX
  8
C18
  10
1148.261200
  20
1515.233900
  0
VERTEX
  8
C18
  10
1147.291700
  20
1515.130400
  0
VERTEX
  8
C18
  10
1146.319100
  20
1515.033300
  0
VERTEX
  8
C18
  10
1145.343600
  20
1514.942400
  0
VERTEX
  8
C18
  10
1144.365300
  20
1514.857600
  0
VERTEX
  8
C18
  10
1143.384200
  20
1514.778800
  0
VERTEX
  8
C18
  10
1142.400400
  20
1514.705900
  0
VERTEX
  8
C18
  10
1141.414100
  20
1514.638600
  0
VERTEX
  8
C18
  10
1140.425300
  20
1514.576900
  0
VERTEX
  8
C18
  10
1139.434000
  20
1514.520600
  0
VERTEX
  8
C18
  10
1138.440500
  20
1514.469600
  0
VERTEX
  8
C18
  10
1137.444700
  20
1514.423700
  0
VERTEX
  8
C18
  10
1136.446700
  20
1514.382900
  0
VERTEX
  8
C18
  10
1135.446700
  20
1514.346900
  0
VERTEX
  8
C18
  10
1134.444700
  20
1514.315700
  0
VERTEX
  8
C18
  10
1133.440800
  20
1514.289100
  0
VERTEX
  8
C18
  10
1132.435100
  20
1514.267000
  0
VERTEX
  8
C18
  10
1131.427700
  20
1514.249200
  0
VERTEX
  8
C18
  10
1130.418700
  20
1514.235600
  0
VERTEX
  8
C18
  10
1129.408100
  20
1514.226100
  0
VERTEX
  8
C18
  10
1128.396000
  20
1514.220500
  0
VERTEX
  8
C18
  10
1127.382600
  20
1514.218700
  0
VERTEX
  8
C18
  10
1126.367900
  20
1514.220600
  0
VERTEX
  8
C18
  10
1125.352000
  20
1514.226000
  0
VERTEX
  8
C18
  10
1124.334900
  20
1514.234700
  0
VERTEX
  8
C18
  10
1123.316900
  20
1514.246800
  0
VERTEX
  8
C18
  10
1122.297800
  20
1514.261900
  0
VERTEX
  8
C18
  10
1121.278000
  20
1514.280100
  0
VERTEX
  8
C18
  10
1120.257300
  20
1514.301100
  0
VERTEX
  8
C18
  10
1119.236000
  20
1514.324800
  0
VERTEX
  8
C18
  10
1118.214000
  20
1514.351000
  0
VERTEX
  8
C18
  10
1117.191600
  20
1514.379700
  0
VERTEX
  8
C18
  10
1116.168700
  20
1514.410800
  0
VERTEX
  8
C18
  10
1115.145500
  20
1514.443900
  0
VERTEX
  8
C18
  10
1114.122000
  20
1514.479200
  0
VERTEX
  8
C18
  10
1113.098300
  20
1514.516300
  0
VERTEX
  8
C18
  10
1112.074600
  20
1514.555200
  0
VERTEX
  8
C18
  10
1111.050900
  20
1514.595700
  0
VERTEX
  8
C18
  10
1110.027200
  20
1514.637700
  0
VERTEX
  8
C18
  10
1109.003700
  20
1514.681000
  0
VERTEX
  8
C18
  10
1107.980500
  20
1514.725600
  0
VERTEX
  8
C18
  10
1106.957700
  20
1514.771200
  0
VERTEX
  8
C18
  10
1105.935200
  20
1514.817800
  0
VERTEX
  8
C18
  10
1104.913300
  20
1514.865200
  0
VERTEX
  8
C18
  10
1103.892000
  20
1514.913300
  0
VERTEX
  8
C18
  10
1102.871300
  20
1514.962000
  0
VERTEX
  8
C18
  10
1101.851500
  20
1515.011000
  0
VERTEX
  8
C18
  10
1100.832500
  20
1515.060300
  0
VERTEX
  8
C18
  10
1099.814500
  20
1515.109700
  0
VERTEX
  8
C18
  10
1098.797400
  20
1515.159200
  0
VERTEX
  8
C18
  10
1097.781600
  20
1515.208500
  0
VERTEX
  8
C18
  10
1096.766900
  20
1515.257500
  0
VERTEX
  8
C18
  10
1095.753500
  20
1515.306100
  0
VERTEX
  8
C18
  10
1094.741500
  20
1515.354200
  0
VERTEX
  8
C18
  10
1093.730900
  20
1515.401600
  0
VERTEX
  8
C18
  10
1092.721900
  20
1515.448200
  0
VERTEX
  8
C18
  10
1091.714500
  20
1515.493800
  0
VERTEX
  8
C18
  10
1090.708900
  20
1515.538400
  0
VERTEX
  8
C18
  10
1089.705100
  20
1515.581700
  0
VERTEX
  8
C18
  10
1088.703100
  20
1515.623700
  0
VERTEX
  8
C18
  10
1087.703200
  20
1515.664200
  0
VERTEX
  8
C18
  10
1086.705300
  20
1515.703000
  0
VERTEX
  8
C18
  10
1085.709500
  20
1515.740100
  0
VERTEX
  8
C18
  10
1084.716000
  20
1515.775300
  0
VERTEX
  8
C18
  10
1083.724900
  20
1515.808400
  0
VERTEX
  8
C18
  10
1082.736100
  20
1515.839400
  0
VERTEX
  8
C18
  10
1081.749800
  20
1515.868100
  0
VERTEX
  8
C18
  10
1080.766100
  20
1515.894300
  0
VERTEX
  8
C18
  10
1079.785100
  20
1515.918000
  0
VERTEX
  8
C18
  10
1078.806900
  20
1515.938900
  0
VERTEX
  8
C18
  10
1077.831400
  20
1515.957000
  0
VERTEX
  8
C18
  10
1076.858900
  20
1515.972100
  0
VERTEX
  8
C18
  10
1075.889500
  20
1515.984100
  0
VERTEX
  8
C18
  10
1074.923100
  20
1515.992800
  0
VERTEX
  8
C18
  10
1073.959900
  20
1515.998100
  0
VERTEX
  8
C18
  10
1073.000000
  20
1516.000000
  0
VERTEX
  8
C18
  10
903.000000
  20
1516.000000
  0
VERTEX
  8
C18
  10
626.000000
  20
1516.000000
  0
VERTEX
  8
C18
  10
537.000793
  20
1515.996948
  0
VERTEX
  8
C18
  10
503.000000
  20
1515.000000
  0
SEQEND
  8
C18
  0
POLYLINE
  8
C18
  66
1
  10
496.000000
  20
1514.000000
  0
VERTEX
  8
C18
  10
496.000000
  20
1514.000000
  0
VERTEX
  8
C18
  10
497.000000
  20
1513.000000
  0
VERTEX
  8
C18
  10
496.000000
  20
1514.000000
  0
SEQEND
  8
C18
  0
POLYLINE
  8
C18
  66
1
  10
499.000000
  20
1514.000000
  0
VERTEX
  8
C18
  10
499.000000
  20
1514.000000
  0
VERTEX
  8
C18
  10
500.000000
  20
1513.000000
  0
VERTEX
  8
C18
  10
499.000000
  20
1514.000000
  0
SEQEND
  8
C7
  0
POLYLINE
  8
C7
  66
1
  10
505.000000
  20
1514.000000
  0
VERTEX
  8
C7
  10
505.000000
  20
1514.000000
  0
VERTEX
  8
C7
  10
506.000000
  20
1513.000000
  0
VERTEX
  8
C7
  10
505.000000
  20
1514.000000
  0
SEQEND
  8
C7
  0
POLYLINE
  8
C7
  66
1
  10
507.333344
  20
1513.333374
  0
VERTEX
  8
C7
  10
507.333344
  20
1513.333374
  0
VERTEX
  8
C7
  10
507.666656
  20
1512.666626
  0
VERTEX
  8
C7
  10
507.333344
  20
1513.333374
  0
SEQEND
  8
C7
  0
POLYLINE
  8
C7
  66
1
  10
509.000000
  20
1513.000000
  0
VERTEX
  8
C7
  10
509.000000
  20
1513.000000
  0
VERTEX
  8
C7
  10
511.000000
  20
1511.000000
  0
VERTEX
  8
C7
  10
509.000000
  20
1513.000000
  0
SEQEND
  8
C18
  0
POLYLINE
  8
C18
  66
1
  10
494.000000
  20
1512.000000
  0
VERTEX
  8
C18
  10
494.000000
  20
1512.000000
  0
VERTEX
  8
C18
  10
495.000000
  20
1511.000000
  0
VERTEX
  8
C18
  10
494.000000
  20
1512.000000
  0
SEQEND
  8
C18
  0
POLYLINE
  8
C18
  66
1
  10
496.000000
  20
1512.000000
  0
VERTEX
  8
C18
  10
496.000000
  20
1512.000000
  0
VERTEX
  8
C18
  10
500.000000
  20
1508.000000
  0
VERTEX
  8
C18
  10
496.000000
  20
1512.000000
  0
SEQEND
  8
C7
  0
POLYLINE
  8
C7
  66
1
  10
501.000000
  20
1511.000000
  0
VERTEX
  8
C7
  10
501.000000
  20
1511.000000
  0
VERTEX
  8
C7
  10
502.000000
  20
1505.000000
  0
VERTEX
  8
C7
  10
504.000000
  20
1508.000000
  0
VERTEX
  8
C7
  10
507.000000
  20
1505.000000
  0
VERTEX
  8
C7
  10
505.000000
  20
1510.000000
  0
VERTEX
  8
C7
  10
510.000000
  20
1508.000000
  0
VERTEX
  8
C7
  10
505.000000
  20
1511.000000
  0
VERTEX
  8
C7
  10
504.000000
  20
1508.000000
  0
VERTEX
  8
C7
  10
501.000000
  20
1511.000000
  0
SEQEND
  8
C7
  0
POLYLINE
  8
C7
  66
1
  10
512.000000
  20
1510.000000
  0
VERTEX
  8
C7
  10
512.000000
  20
1510.000000
  0
VERTEX
  8
C7
  10
514.000000
  20
1508.000000
  0
VERTEX
  8
C7
  10
512.000000
  20
1510.000000
  0
SEQEND
  8
C18
  0
POLYLINE
  8
C18
  66
1
  10
495.000000
  20
1509.000000
  0
VERTEX
  8
C18
  10
495.000000
  20
1509.000000
  0
VERTEX
  8
C18
  10
496.000000
  20
1508.000000
  0
VERTEX
  8
C18
  10
495.000000
  20
1509.000000
  0
SEQEND
  8
C7
  0
POLYLINE
  8
C7
  66
1
  10
507.000000
  20
1508.000000
  0
VERTEX
  8
C7
  10
507.000000
  20
1508.000000
  0
VERTEX
  8
C7
  10
508.000000
  20
1507.000000
  0
VERTEX
  8
C7
  10
507.000000
  20
1508.000000
  0
SEQEND
  8
C18
  0
POLYLINE
  8
C18
  66
1
  10
495.000000
  20
1507.000000
  0
VERTEX
  8
C18
  10
495.000000
  20
1507.000000
  0
VERTEX
  8
C18
  10
496.000000
  20
1506.000000
  0
VERTEX
  8
C18
  10
495.000000
  20
1507.000000
  0
SEQEND
  8
C18
  0
POLYLINE
  8
C18
  66
1
  10
497.000000
  20
1507.000000
  0
VERTEX
  8
C18
  10
497.000000
  20
1507.000000
  0
VERTEX
  8
C18
  10
498.000000
  20
1506.000000
  0
VERTEX
  8
C18
  10
497.000000
  20
1507.000000
  0
SEQEND
  8
C18
  0
POLYLINE
  8
C18
  66
1
  10
499.000000
  20
1507.000000
  0
VERTEX
  8
C18
  10
499.000000
  20
1507.000000
  0
VERTEX
  8
C18
  10
500.000000
  20
1506.000000
  0
VERTEX
  8
C18
  10
499.000000
  20
1507.000000
  0
SEQEND
  8
C7
  0
POLYLINE
  8
C7
  66
1
  10
510.000000
  20
1507.000000
  0
VERTEX
  8
C7
  10
510.000000
  20
1507.000000
  0
VERTEX
  8
C7
  10
511.000000
  20
1506.000000
  0
VERTEX
  8
C7
  10
510.000000
  20
1507.000000
  0
SEQEND
  8
C18
  0
POLYLINE
  8
C18
  66
1
  10
493.000000
  20
1506.000000
  0
VERTEX
  8
C18
  10
493.000000
  20
1506.000000
  0
VERTEX
  8
C18
  10
494.000000
  20
1505.000000
  0
VERTEX
  8
C18
  10
493.000000
  20
1506.000000
  0
SEQEND
  8
C7
  0
POLYLINE
  8
C7
  66
1
  10
508.333344
  20
1505.333374
  0
VERTEX
  8
C7
  10
508.333344
  20
1505.333374
  0
VERTEX
  8
C7
  10
508.666656
  20
1504.666626
  0
VERTEX
  8
C7
  10
508.333344
  20
1505.333374
  0
SEQEND
  8
C7
  0
POLYLINE
  8
C7
  66
1
  10
514.000000
  20
1506.000000
  0
VERTEX
  8
C7
  10
514.000000
  20
1506.000000
  0
VERTEX
  8
C7
  10
515.000000
  20
1505.000000
  0
VERTEX
  8
C7
  10
514.000000
  20
1506.000000
  0
SEQEND
  8
C18
  0
POLYLINE
  8
C18
  66
1
  10
497.000000
  20
1505.000000
  0
VERTEX
  8
C18
  10
497.000000
  20
1505.000000
  0
VERTEX
  8
C18
  10
498.000000
  20
1504.000000
  0
VERTEX
  8
C18
  10
497.000000
  20
1505.000000
  0
SEQEND
  8
C7
  0
POLYLINE
  8
C7
  66
1
  10
511.000000
  20
1505.000000
  0
VERTEX
  8
C7
  10
511.000000
  20
1505.000000
  0
VERTEX
  8
C7
  10
512.000000
  20
1504.000000
  0
VERTEX
  8
C7
  10
511.000000
  20
1505.000000
  0
SEQEND
  8
C18
  0
POLYLINE
  8
C18
  66
1
  10
495.000000
  20
1504.000000
  0
VERTEX
  8
C18
  10
495.000000
  20
1504.000000
  0
VERTEX
  8
C18
  10
496.000000
  20
1503.000000
  0
VERTEX
  8
C18
  10
495.000000
  20
1504.000000
  0
SEQEND
  8
C7
  0
POLYLINE
  8
C7
  66
1
  10
505.000000
  20
1504.000000
  0
VERTEX
  8
C7
  10
505.000000
  20
1504.000000
  0
VERTEX
  8
C7
  10
501.000000
  20
1500.000000
  0
VERTEX
  8
C7
  10
503.000000
  20
1498.000000
  0
VERTEX
  8
C7
  10
501.000000
  20
1498.000000
  0
VERTEX
  8
C7
  10
504.000000
  20
1495.000000
  0
VERTEX
  8
C7
  10
503.000000
  20
1498.000000
  0
VERTEX
  8
C7
  10
506.000000
  20
1497.000000
  0
VERTEX
  8
C7
  10
507.000000
  20
1502.000000
  0
VERTEX
  8
C7
  10
505.000000
  20
1504.000000
  0
SEQEND
  8
C18
  0
POLYLINE
  8
C18
  66
1
  10
497.000000
  20
1503.000000
  0
VERTEX
  8
C18
  10
497.000000
  20
1503.000000
  0
VERTEX
  8
C18
  10
498.000000
  20
1502.000000
  0
VERTEX
  8
C18
  10
497.000000
  20
1503.000000
  0
SEQEND
  8
C7
  0
POLYLINE
  8
C7
  66
1
  10
508.000000
  20
1503.000000
  0
VERTEX
  8
C7
  10
508.000000
  20
1503.000000
  0
VERTEX
  8
C7
  10
509.000000
  20
1502.000000
  0
VERTEX
  8
C7
  10
508.000000
  20
1503.000000
  0
SEQEND
  8
C7
  0
POLYLINE
  8
C7
  66
1
  10
511.000000
  20
1503.000000
  0
VERTEX
  8
C7
  10
511.000000
  20
1503.000000
  0
VERTEX
  8
C7
  10
512.000000
  20
1502.000000
  0
VERTEX
  8
C7
  10
511.000000
  20
1503.000000
  0
SEQEND
  8
C7
  0
POLYLINE
  8
C7
  66
1
  10
513.000000
  20
1502.000000
  0
VERTEX
  8
C7
  10
513.000000
  20
1502.000000
  0
VERTEX
  8
C7
  10
515.000000
  20
1500.000000
  0
VERTEX
  8
C7
  10
513.000000
  20
1502.000000
  0
SEQEND
  8
C18
  0
POLYLINE
  8
C18
  66
1
  10
497.000000
  20
1501.000000
  0
VERTEX
  8
C18
  10
497.000000
  20
1501.000000
  0
VERTEX
  8
C18
  10
498.000000
  20
1500.000000
  0
VERTEX
  8
C18
  10
497.000000
  20
1501.000000
  0
SEQEND
  8
C18
  0
POLYLINE
  8
C18
  66
1
  10
504.000000
  20
1501.000000
  0
VERTEX
  8
C18
  10
504.000000
  20
1501.000000
  0
VERTEX
  8
C18
  10
503.000000
  20
1499.000000
  0
VERTEX
  8
C18
  10
505.000000
  20
1499.000000
  0
VERTEX
  8
C18
  10
504.000000
  20
1501.000000
  0
SEQEND
  8
C7
  0
POLYLINE
  8
C7
  66
1
  10
507.333344
  20
1500.333374
  0
VERTEX
  8
C7
  10
507.333344
  20
1500.333374
  0
VERTEX
  8
C7
  10
507.666656
  20
1499.666626
  0
VERTEX
  8
C7
  10
507.333344
  20
1500.333374
  0
SEQEND
  8
C7
  0
POLYLINE
  8
C7
  66
1
  10
509.000000
  20
1501.000000
  0
VERTEX
  8
C7
  10
509.000000
  20
1501.000000
  0
VERTEX
  8
C7
  10
510.000000
  20
1500.000000
  0
VERTEX
  8
C7
  10
509.000000
  20
1501.000000
  0
SEQEND
  8
C18
  0
POLYLINE
  8
C18
  66
1
  10
493.000000
  20
1500.000000
  0
VERTEX
  8
C18
  10
493.000000
  20
1500.000000
  0
VERTEX
  8
C18
  10
494.000000
  20
1499.000000
  0
VERTEX
  8
C18
  10
493.000000
  20
1500.000000
  0
SEQEND
  8
C18
  0
POLYLINE
  8
C18
  66
1
  10
495.000000
  20
1499.000000
  0
VERTEX
  8
C18
  10
495.000000
  20
1499.000000
  0
VERTEX
  8
C18
  10
496.000000
  20
1498.000000
  0
VERTEX
  8
C18
  10
495.000000
  20
1499.000000
  0
SEQEND
  8
C18
  0
POLYLINE
  8
C18
  66
1
  10
497.000000
  20
1499.000000
  0
VERTEX
  8
C18
  10
497.000000
  20
1499.000000
  0
VERTEX
  8
C18
  10
498.000000
  20
1498.000000
  0
VERTEX
  8
C18
  10
497.000000
  20
1499.000000
  0
SEQEND
  8
C7
  0
POLYLINE
  8
C7
  66
1
  10
511.000000
  20
1499.000000
  0
VERTEX
  8
C7
  10
511.000000
  20
1499.000000
  0
VERTEX
  8
C7
  10
512.000000
  20
1498.000000
  0
VERTEX
  8
C7
  10
511.000000
  20
1499.000000
  0
SEQEND
  8
C7
  0
POLYLINE
  8
C7
  66
1
  10
507.000000
  20
1498.000000
  0
VERTEX
  8
C7
  10
507.000000
  20
1498.000000
  0
VERTEX
  8
C7
  10
508.000000
  20
1497.000000
  0
VERTEX
  8
C7
  10
507.000000
  20
1498.000000
  0
SEQEND
  8
C7
  0
POLYLINE
  8
C7
  66
1
  10
509.000000
  20
1498.000000
  0
VERTEX
  8
C7
  10
509.000000
  20
1498.000000
  0
VERTEX
  8
C7
  10
510.000000
  20
1497.000000
  0
VERTEX
  8
C7
  10
509.000000
  20
1498.000000
  0
SEQEND
  8
C7
  0
POLYLINE
  8
C7
  66
1
  10
513.000000
  20
1498.000000
  0
VERTEX
  8
C7
  10
513.000000
  20
1498.000000
  0
VERTEX
  8
C7
  10
514.000000
  20
1497.000000
  0
VERTEX
  8
C7
  10
513.000000
  20
1498.000000
  0
SEQEND
  8
C18
  0
POLYLINE
  8
C18
  66
1
  10
495.000000
  20
1497.000000
  0
VERTEX
  8
C18
  10
495.000000
  20
1497.000000
  0
VERTEX
  8
C18
  10
497.000000
  20
1495.000000
  0
VERTEX
  8
C18
  10
495.000000
  20
1497.000000
  0
SEQEND
  8
C18
  0
POLYLINE
  8
C18
  66
1
  10
499.000000
  20
1496.000000
  0
VERTEX
  8
C18
  10
499.000000
  20
1496.000000
  0
VERTEX
  8
C18
  10
501.000000
  20
1494.000000
  0
VERTEX
  8
C18
  10
499.000000
  20
1496.000000
  0
SEQEND
  8
C7
  0
POLYLINE
  8
C7
  66
1
  10
505.000000
  20
1496.000000
  0
VERTEX
  8
C7
  10
505.000000
  20
1496.000000
  0
VERTEX
  8
C7
  10
507.000000
  20
1490.000000
  0
VERTEX
  8
C7
  10
506.000000
  20
1489.000000
  0
VERTEX
  8
C7
  10
503.000000
  20
1490.000000
  0
VERTEX
  8
C7
  10
502.000000
  20
1489.000000
  0
VERTEX
  8
C7
  10
503.000000
  20
1470.000000
  0
VERTEX
  8
C7
  10
505.000000
  20
1473.000000
  0
VERTEX
  8
C7
  10
508.000000
  20
1467.000000
  0
VERTEX
  8
C7
  10
505.000000
  20
1467.000000
  0
VERTEX
  8
C7
  10
507.000000
  20
1465.000000
  0
VERTEX
  8
C7
  10
509.000000
  20
1467.000000
  0
VERTEX
  8
C7
  10
503.000000
  20
1482.000000
  0
VERTEX
  8
C7
  10
508.000000
  20
1473.000000
  0
VERTEX
  8
C7
  10
503.000000
  20
1486.000000
  0
VERTEX
  8
C7
  10
507.000000
  20
1484.000000
  0
VERTEX
  8
C7
  10
503.000000
  20
1489.000000
  0
VERTEX
  8
C7
  10
508.000000
  20
1486.000000
  0
VERTEX
  8
C7
  10
506.000000
  20
1489.000000
  0
VERTEX
  8
C7
  10
509.000000
  20
1490.000000
  0
VERTEX
  8
C7
  10
505.000000
  20
1496.000000
  0
SEQEND
  8
C7
  0
POLYLINE
  8
C7
  66
1
  10
507.000000
  20
1496.000000
  0
VERTEX
  8
C7
  10
507.000000
  20
1496.000000
  0
VERTEX
  8
C7
  10
510.000000
  20
1494.000000
  0
VERTEX
  8
C7
  10
507.000000
  20
1496.000000
  0
SEQEND
  8
C7
  0
POLYLINE
  8
C7
  66
1
  10
513.000000
  20
1495.000000
  0
VERTEX
  8
C7
  10
513.000000
  20
1495.000000
  0
VERTEX
  8
C7
  10
514.000000
  20
1494.000000
  0
VERTEX
  8
C7
  10
513.000000
  20
1495.000000
  0
SEQEND
  8
C18
  0
POLYLINE
  8
C18
  66
1
  10
496.000000
  20
1494.000000
  0
VERTEX
  8
C18
  10
496.000000
  20
1494.000000
  0
VERTEX
  8
C18
  10
497.000000
  20
1493.000000
  0
VERTEX
  8
C18
  10
496.000000
  20
1494.000000
  0
SEQEND
  8
C18
  0
POLYLINE
  8
C18
  66
1
  10
498.000000
  20
1494.000000
  0
VERTEX
  8
C18
  10
498.000000
  20
1494.000000
  0
VERTEX
  8
C18
  10
499.000000
  20
1493.000000
  0
VERTEX
  8
C18
  10
498.000000
  20
1494.000000
  0
SEQEND
  8
C7
  0
POLYLINE
  8
C7
  66
1
  10
503.000000
  20
1494.000000
  0
VERTEX
  8
C7
  10
503.000000
  20
1494.000000
  0
VERTEX
  8
C7
  10
505.000000
  20
1491.000000
  0
VERTEX
  8
C7
  10
503.000000
  20
1494.000000
  0
SEQEND
  8
C7
  0
POLYLINE
  8
C7
  66
1
  10
511.000000
  20
1494.000000
  0
VERTEX
  8
C7
  10
511.000000
  20
1494.000000
  0
VERTEX
  8
C7
  10
512.000000
  20
1493.000000
  0
VERTEX
  8
C7
  10
511.000000
  20
1494.000000
  0
SEQEND
  8
C18
  0
POLYLINE
  8
C18
  66
1
  10
500.000000
  20
1493.000000
  0
VERTEX
  8
C18
  10
500.000000
  20
1493.000000
  0
VERTEX
  8
C18
  10
501.000000
  20
1492.000000
  0
VERTEX
  8
C18
  10
500.000000
  20
1493.000000
  0
SEQEND
  8
C18
  0
POLYLINE
  8
C18
  66
1
  10
496.000000
  20
1492.000000
  0
VERTEX
  8
C18
  10
496.000000
  20
1492.000000
  0
VERTEX
  8
C18
  10
497.000000
  20
1491.000000
  0
VERTEX
  8
C18
  10
496.000000
  20
1492.000000
  0
SEQEND
  8
C18
  0
POLYLINE
  8
C18
  66
1
  10
498.000000
  20
1492.000000
  0
VERTEX
  8
C18
  10
498.000000
  20
1492.000000
  0
VERTEX
  8
C18
  10
499.000000
  20
1491.000000
  0
VERTEX
  8
C18
  10
498.000000
  20
1492.000000
  0
SEQEND
  8
C7
  0
POLYLINE
  8
C7
  66
1
  10
510.000000
  20
1492.000000
  0
VERTEX
  8
C7
  10
510.000000
  20
1492.000000
  0
VERTEX
  8
C7
  10
511.000000
  20
1491.000000
  0
VERTEX
  8
C7
  10
510.000000
  20
1492.000000
  0
SEQEND
  8
C7
  0
POLYLINE
  8
C7
  66
1
  10
512.000000
  20
1491.000000
  0
VERTEX
  8
C7
  10
512.000000
  20
1491.000000
  0
VERTEX
  8
C7
  10
513.000000
  20
1490.000000
  0
VERTEX
  8
C7
  10
512.000000
  20
1491.000000
  0
SEQEND
  8
C18
  0
POLYLINE
  8
C18
  66
1
  10
494.000000
  20
1490.000000
  0
VERTEX
  8
C18
  10
494.000000
  20
1490.000000
  0
VERTEX
  8
C18
  10
495.000000
  20
1489.000000
  0
VERTEX
  8
C18
  10
494.000000
  20
1490.000000
  0
SEQEND
  8
C18
  0
POLYLINE
  8
C18
  66
1
  10
497.000000
  20
1490.000000
  0
VERTEX
  8
C18
  10
497.000000
  20
1490.000000
  0
VERTEX
  8
C18
  10
500.000000
  20
1487.000000
  0
VERTEX
  8
C18
  10
497.000000
  20
1490.000000
  0
SEQEND
  8
C7
  0
POLYLINE
  8
C7
  66
1
  10
514.000000
  20
1490.000000
  0
VERTEX
  8
C7
  10
514.000000
  20
1490.000000
  0
VERTEX
  8
C7
  10
515.000000
  20
1489.000000
  0
VERTEX
  8
C7
  10
514.000000
  20
1490.000000
  0
SEQEND
  8
C7
  0
POLYLINE
  8
C7
  66
1
  10
508.000000
  20
1489.000000
  0
VERTEX
  8
C7
  10
508.000000
  20
1489.000000
  0
VERTEX
  8
C7
  10
509.000000
  20
1488.000000
  0
VERTEX
  8
C7
  10
508.000000
  20
1489.000000
  0
SEQEND
  8
C7
  0
POLYLINE
  8
C7
  66
1
  10
510.000000
  20
1489.000000
  0
VERTEX
  8
C7
  10
510.000000
  20
1489.000000
  0
VERTEX
  8
C7
  10
511.000000
  20
1488.000000
  0
VERTEX
  8
C7
  10
510.000000
  20
1489.000000
  0
SEQEND
  8
C18
  0
POLYLINE
  8
C18
  66
1
  10
495.000000
  20
1487.000000
  0
VERTEX
  8
C18
  10
495.000000
  20
1487.000000
  0
VERTEX
  8
C18
  10
496.000000
  20
1486.000000
  0
VERTEX
  8
C18
  10
495.000000
  20
1487.000000
  0
SEQEND
  8
C7
  0
POLYLINE
  8
C7
  66
1
  10
510.000000
  20
1487.000000
  0
VERTEX
  8
C7
  10
510.000000
  20
1487.000000
  0
VERTEX
  8
C7
  10
511.000000
  20
1486.000000
  0
VERTEX
  8
C7
  10
510.000000
  20
1487.000000
  0
SEQEND
  8
C7
  0
POLYLINE
  8
C7
  66
1
  10
512.000000
  20
1487.000000
  0
VERTEX
  8
C7
  10
512.000000
  20
1487.000000
  0
VERTEX
  8
C7
  10
513.000000
  20
1486.000000
  0
VERTEX
  8
C7
  10
512.000000
  20
1487.000000
  0
SEQEND
  8
C18
  0
POLYLINE
  8
C18
  66
1
  10
497.000000
  20
1486.000000
  0
VERTEX
  8
C18
  10
497.000000
  20
1486.000000
  0
VERTEX
  8
C18
  10
497.000000
  20
1482.000000
  0
VERTEX
  8
C18
  10
497.000000
  20
1486.000000
  0
SEQEND
  8
C7
  0
POLYLINE
  8
C7
  66
1
  10
508.000000
  20
1485.000000
  0
VERTEX
  8
C7
  10
508.000000
  20
1485.000000
  0
VERTEX
  8
C7
  10
509.000000
  20
1484.000000
  0
VERTEX
  8
C7
  10
508.000000
  20
1485.000000
  0
SEQEND
  8
C7
  0
POLYLINE
  8
C7
  66
1
  10
512.000000
  20
1485.000000
  0
VERTEX
  8
C7
  10
512.000000
  20
1485.000000
  0
VERTEX
  8
C7
  10
514.000000
  20
1483.000000
  0
VERTEX
  8
C7
  10
512.000000
  20
1485.000000
  0
SEQEND
  8
C18
  0
POLYLINE
  8
C18
  66
1
  10
493.000000
  20
1484.000000
  0
VERTEX
  8
C18
  10
493.000000
  20
1484.000000
  0
VERTEX
  8
C18
  10
494.000000
  20
1483.000000
  0
VERTEX
  8
C18
  10
493.000000
  20
1484.000000
  0
SEQEND
  8
C18
  0
POLYLINE
  8
C18
  66
1
  10
503.000000
  20
1484.000000
  0
VERTEX
  8
C18
  10
503.000000
  20
1484.000000
  0
VERTEX
  8
C18
  10
505.000000
  20
1482.000000
  0
VERTEX
  8
C18
  10
503.000000
  20
1484.000000
  0
SEQEND
  8
C7
  0
POLYLINE
  8
C7
  66
1
  10
507.666656
  20
1482.666626
  0
VERTEX
  8
C7
  10
507.666656
  20
1482.666626
  0
VERTEX
  8
C7
  10
508.333344
  20
1482.333374
  0
VERTEX
  8
C7
  10
507.666656
  20
1482.666626
  0
SEQEND
  8
C7
  0
POLYLINE
  8
C7
  66
1
  10
510.000000
  20
1483.000000
  0
VERTEX
  8
C7
  10
510.000000
  20
1483.000000
  0
VERTEX
  8
C7
  10
511.000000
  20
1482.000000
  0
VERTEX
  8
C7
  10
510.000000
  20
1483.000000
  0
SEQEND
  8
C18
  0
POLYLINE
  8
C18
  66
1
  10
495.000000
  20
1482.000000
  0
VERTEX
  8
C18
  10
495.000000
  20
1482.000000
  0
VERTEX
  8
C18
  10
496.000000
  20
1481.000000
  0
VERTEX
  8
C18
  10
495.000000
  20
1482.000000
  0
SEQEND
  8
C18
  0
POLYLINE
  8
C18
  66
1
  10
499.000000
  20
1482.000000
  0
VERTEX
  8
C18
  10
499.000000
  20
1482.000000
  0
VERTEX
  8
C18
  10
500.000000
  20
1481.000000
  0
VERTEX
  8
C18
  10
499.000000
  20
1482.000000
  0
SEQEND
  8
C7
  0
POLYLINE
  8
C7
  66
1
  10
507.000000
  20
1481.000000
  0
VERTEX
  8
C7
  10
507.000000
  20
1481.000000
  0
VERTEX
  8
C7
  10
508.000000
  20
1480.000000
  0
VERTEX
  8
C7
  10
507.000000
  20
1481.000000
  0
SEQEND
  8
C7
  0
POLYLINE
  8
C7
  66
1
  10
510.000000
  20
1481.000000
  0
VERTEX
  8
C7
  10
510.000000
  20
1481.000000
  0
VERTEX
  8
C7
  10
511.000000
  20
1480.000000
  0
VERTEX
  8
C7
  10
510.000000
  20
1481.000000
  0
SEQEND
  8
C7
  0
POLYLINE
  8
C7
  66
1
  10
512.000000
  20
1481.000000
  0
VERTEX
  8
C7
  10
512.000000
  20
1481.000000
  0
VERTEX
  8
C7
  10
513.000000
  20
1480.000000
  0
VERTEX
  8
C7
  10
512.000000
  20
1481.000000
  0
SEQEND
  8
C18
  0
POLYLINE
  8
C18
  66
1
  10
496.000000
  20
1480.000000
  0
VERTEX
  8
C18
  10
496.000000
  20
1480.000000
  0
VERTEX
  8
C18
  10
500.000000
  20
1475.000000
  0
VERTEX
  8
C18
  10
496.000000
  20
1480.000000
  0
SEQEND
  8
C7
  0
POLYLINE
  8
C7
  66
1
  10
508.000000
  20
1479.000000
  0
VERTEX
  8
C7
  10
508.000000
  20
1479.000000
  0
VERTEX
  8
C7
  10
509.000000
  20
1478.000000
  0
VERTEX
  8
C7
  10
508.000000
  20
1479.000000
  0
SEQEND
  8
C7
  0
POLYLINE
  8
C7
  66
1
  10
510.000000
  20
1478.000000
  0
VERTEX
  8
C7
  10
510.000000
  20
1478.000000
  0
VERTEX
  8
C7
  10
511.000000
  20
1477.000000
  0
VERTEX
  8
C7
  10
510.000000
  20
1478.000000
  0
SEQEND
  8
C7
  0
POLYLINE
  8
C7
  66
1
  10
513.000000
  20
1478.000000
  0
VERTEX
  8
C7
  10
513.000000
  20
1478.000000
  0
VERTEX
  8
C7
  10
515.000000
  20
1476.000000
  0
VERTEX
  8
C7
  10
513.000000
  20
1478.000000
  0
SEQEND
  8
C18
  0
POLYLINE
  8
C18
  66
1
  10
495.000000
  20
1477.000000
  0
VERTEX
  8
C18
  10
495.000000
  20
1477.000000
  0
VERTEX
  8
C18
  10
496.000000
  20
1476.000000
  0
VERTEX
  8
C18
  10
495.000000
  20
1477.000000
  0
SEQEND
  8
C7
  0
POLYLINE
  8
C7
  66
1
  10
507.000000
  20
1477.000000
  0
VERTEX
  8
C7
  10
507.000000
  20
1477.000000
  0
VERTEX
  8
C7
  10
509.000000
  20
1475.000000
  0
VERTEX
  8
C7
  10
507.000000
  20
1477.000000
  0
SEQEND
  8
C7
  0
POLYLINE
  8
C7
  66
1
  10
510.000000
  20
1476.000000
  0
VERTEX
  8
C7
  10
510.000000
  20
1476.000000
  0
VERTEX
  8
C7
  10
511.000000
  20
1475.000000
  0
VERTEX
  8
C7
  10
510.000000
  20
1476.000000
  0
SEQEND
  8
C18
  0
POLYLINE
  8
C18
  66
1
  10
495.000000
  20
1475.000000
  0
VERTEX
  8
C18
  10
495.000000
  20
1475.000000
  0
VERTEX
  8
C18
  10
496.000000
  20
1474.000000
  0
VERTEX
  8
C18
  10
495.000000
  20
1475.000000
  0
SEQEND
  8
C18
  0
POLYLINE
  8
C18
  66
1
  10
497.000000
  20
1474.000000
  0
VERTEX
  8
C18
  10
497.000000
  20
1474.000000
  0
VERTEX
  8
C18
  10
498.000000
  20
1473.000000
  0
VERTEX
  8
C18
  10
497.000000
  20
1474.000000
  0
SEQEND
  8
C18
  0
POLYLINE
  8
C18
  66
1
  10
502.666656
  20
1473.666626
  0
VERTEX
  8
C18
  10
502.666656
  20
1473.666626
  0
VERTEX
  8
C18
  10
503.333344
  20
1473.333374
  0
VERTEX
  8
C18
  10
502.666656
  20
1473.666626
  0
SEQEND
  8
C7
  0
POLYLINE
  8
C7
  66
1
  10
509.000000
  20
1474.000000
  0
VERTEX
  8
C7
  10
509.000000
  20
1474.000000
  0
VERTEX
  8
C7
  10
510.000000
  20
1473.000000
  0
VERTEX
  8
C7
  10
509.000000
  20
1474.000000
  0
SEQEND
  8
C7
  0
POLYLINE
  8
C7
  66
1
  10
511.000000
  20
1473.000000
  0
VERTEX
  8
C7
  10
511.000000
  20
1473.000000
  0
VERTEX
  8
C7
  10
513.000000
  20
1471.000000
  0
VERTEX
  8
C7
  10
511.000000
  20
1473.000000
  0
SEQEND
  8
C18
  0
POLYLINE
  8
C18
  66
1
  10
494.000000
  20
1472.000000
  0
VERTEX
  8
C18
  10
494.000000
  20
1472.000000
  0
VERTEX
  8
C18
  10
495.000000
  20
1471.000000
  0
VERTEX
  8
C18
  10
494.000000
  20
1472.000000
  0
SEQEND
  8
C18
  0
POLYLINE
  8
C18
  66
1
  10
497.000000
  20
1472.000000
  0
VERTEX
  8
C18
  10
497.000000
  20
1472.000000
  0
VERTEX
  8
C18
  10
498.000000
  20
1471.000000
  0
VERTEX
  8
C18
  10
497.000000
  20
1472.000000
  0
SEQEND
  8
C18
  0
POLYLINE
  8
C18
  66
1
  10
499.000000
  20
1472.000000
  0
VERTEX
  8
C18
  10
499.000000
  20
1472.000000
  0
VERTEX
  8
C18
  10
500.000000
  20
1471.000000
  0
VERTEX
  8
C18
  10
499.000000
  20
1472.000000
  0
SEQEND
  8
C7
  0
POLYLINE
  8
C7
  66
1
  10
509.000000
  20
1472.000000
  0
VERTEX
  8
C7
  10
509.000000
  20
1472.000000
  0
VERTEX
  8
C7
  10
508.000000
  20
1470.000000
  0
VERTEX
  8
C7
  10
509.000000
  20
1472.000000
  0
SEQEND
  8
C18
  0
POLYLINE
  8
C18
  66
1
  10
495.000000
  20
1470.000000
  0
VERTEX
  8
C18
  10
495.000000
  20
1470.000000
  0
VERTEX
  8
C18
  10
496.000000
  20
1469.000000
  0
VERTEX
  8
C18
  10
495.000000
  20
1470.000000
  0
SEQEND
  8
C7
  0
POLYLINE
  8
C7
  66
1
  10
510.000000
  20
1470.000000
  0
VERTEX
  8
C7
  10
510.000000
  20
1470.000000
  0
VERTEX
  8
C7
  10
511.000000
  20
1469.000000
  0
VERTEX
  8
C7
  10
510.000000
  20
1470.000000
  0
SEQEND
  8
C7
  0
POLYLINE
  8
C7
  66
1
  10
513.000000
  20
1470.000000
  0
VERTEX
  8
C7
  10
513.000000
  20
1470.000000
  0
VERTEX
  8
C7
  10
514.000000
  20
1469.000000
  0
VERTEX
  8
C7
  10
513.000000
  20
1470.000000
  0
SEQEND
  8
C18
  0
POLYLINE
  8
C18
  66
1
  10
497.000000
  20
1468.000000
  0
VERTEX
  8
C18
  10
497.000000
  20
1468.000000
  0
VERTEX
  8
C18
  10
498.000000
  20
1467.000000
  0
VERTEX
  8
C18
  10
497.000000
  20
1468.000000
  0
SEQEND
  8
C18
  0
POLYLINE
  8
C18
  66
1
  10
495.000000
  20
1467.000000
  0
VERTEX
  8
C18
  10
495.000000
  20
1467.000000
  0
VERTEX
  8
C18
  10
496.000000
  20
1466.000000
  0
VERTEX
  8
C18
  10
495.000000
  20
1467.000000
  0
SEQEND
  8
C7
  0
POLYLINE
  8
C7
  66
1
  10
511.000000
  20
1467.000000
  0
VERTEX
  8
C7
  10
511.000000
  20
1467.000000
  0
VERTEX
  8
C7
  10
512.000000
  20
1466.000000
  0
VERTEX
  8
C7
  10
511.000000
  20
1467.000000
  0
SEQEND
  8
C7
  0
POLYLINE
  8
C7
  66
1
  10
513.000000
  20
1467.000000
  0
VERTEX
  8
C7
  10
513.000000
  20
1467.000000
  0
VERTEX
  8
C7
  10
514.000000
  20
1466.000000
  0
VERTEX
  8
C7
  10
513.000000
  20
1467.000000
  0
SEQEND
  8
C7
  0
POLYLINE
  8
C7
  66
1
  10
503.000000
  20
1466.000000
  0
VERTEX
  8
C7
  10
503.000000
  20
1466.000000
  0
VERTEX
  8
C7
  10
504.000000
  20
1458.000000
  0
VERTEX
  8
C7
  10
504.000000
  20
1454.000000
  0
VERTEX
  8
C7
  10
502.000000
  20
1454.000000
  0
VERTEX
  8
C7
  10
503.000000
  20
1451.000000
  0
VERTEX
  8
C7
  10
500.000000
  20
1451.000000
  0
VERTEX
  8
C7
  10
507.000000
  20
1447.000000
  0
VERTEX
  8
C7
  10
504.000000
  20
1449.000000
  0
VERTEX
  8
C7
  10
504.000000
  20
1454.000000
  0
VERTEX
  8
C7
  10
507.000000
  20
1455.000000
  0
VERTEX
  8
C7
  10
505.000000
  20
1458.000000
  0
VERTEX
  8
C7
  10
510.000000
  20
1458.000000
  0
VERTEX
  8
C7
  10
507.000000
  20
1459.000000
  0
VERTEX
  8
C7
  10
505.000000
  20
1462.000000
  0
VERTEX
  8
C7
  10
505.000000
  20
1458.000000
  0
VERTEX
  8
C7
  10
503.000000
  20
1466.000000
  0
SEQEND
  8
C7
  0
POLYLINE
  8
C7
  66
1
  10
509.000000
  20
1466.000000
  0
VERTEX
  8
C7
  10
509.000000
  20
1466.000000
  0
VERTEX
  8
C7
  10
510.000000
  20
1465.000000
  0
VERTEX
  8
C7
  10
509.000000
  20
1466.000000
  0
SEQEND
  8
C18
  0
POLYLINE
  8
C18
  66
1
  10
497.000000
  20
1464.000000
  0
VERTEX
  8
C18
  10
497.000000
  20
1464.000000
  0
VERTEX
  8
C18
  10
498.000000
  20
1463.000000
  0
VERTEX
  8
C18
  10
497.000000
  20
1464.000000
  0
SEQEND
  8
C7
  0
POLYLINE
  8
C7
  66
1
  10
506.000000
  20
1464.000000
  0
VERTEX
  8
C7
  10
506.000000
  20
1464.000000
  0
VERTEX
  8
C7
  10
507.000000
  20
1463.000000
  0
VERTEX
  8
C7
  10
506.000000
  20
1464.000000
  0
SEQEND
  8
C7
  0
POLYLINE
  8
C7
  66
1
  10
508.000000
  20
1464.000000
  0
VERTEX
  8
C7
  10
508.000000
  20
1464.000000
  0
VERTEX
  8
C7
  10
509.000000
  20
1463.000000
  0
VERTEX
  8
C7
  10
508.000000
  20
1464.000000
  0
SEQEND
  8
C7
  0
POLYLINE
  8
C7
  66
1
  10
510.000000
  20
1464.000000
  0
VERTEX
  8
C7
  10
510.000000
  20
1464.000000
  0
VERTEX
  8
C7
  10
511.000000
  20
1463.000000
  0
VERTEX
  8
C7
  10
510.000000
  20
1464.000000
  0
SEQEND
  8
C18
  0
POLYLINE
  8
C18
  66
1
  10
494.000000
  20
1463.000000
  0
VERTEX
  8
C18
  10
494.000000
  20
1463.000000
  0
VERTEX
  8
C18
  10
495.000000
  20
1462.000000
  0
VERTEX
  8
C18
  10
494.000000
  20
1463.000000
  0
SEQEND
  8
C7
  0
POLYLINE
  8
C7
  66
1
  10
512.000000
  20
1463.000000
  0
VERTEX
  8
C7
  10
512.000000
  20
1463.000000
  0
VERTEX
  8
C7
  10
515.000000
  20
1460.000000
  0
VERTEX
  8
C7
  10
512.000000
  20
1463.000000
  0
SEQEND
  8
C7
  0
POLYLINE
  8
C7
  66
1
  10
507.000000
  20
1462.000000
  0
VERTEX
  8
C7
  10
507.000000
  20
1462.000000
  0
VERTEX
  8
C7
  10
508.000000
  20
1461.000000
  0
VERTEX
  8
C7
  10
507.000000
  20
1462.000000
  0
SEQEND
  8
C7
  0
POLYLINE
  8
C7
  66
1
  10
509.000000
  20
1462.000000
  0
VERTEX
  8
C7
  10
509.000000
  20
1462.000000
  0
VERTEX
  8
C7
  10
510.000000
  20
1461.000000
  0
VERTEX
  8
C7
  10
509.000000
  20
1462.000000
  0
SEQEND
  8
C18
  0
POLYLINE
  8
C18
  66
1
  10
495.000000
  20
1461.000000
  0
VERTEX
  8
C18
  10
495.000000
  20
1461.000000
  0
VERTEX
  8
C18
  10
496.000000
  20
1460.000000
  0
VERTEX
  8
C18
  10
495.000000
  20
1461.000000
  0
SEQEND
  8
C18
  0
POLYLINE
  8
C18
  66
1
  10
497.000000
  20
1461.000000
  0
VERTEX
  8
C18
  10
497.000000
  20
1461.000000
  0
VERTEX
  8
C18
  10
499.000000
  20
1459.000000
  0
VERTEX
  8
C18
  10
497.000000
  20
1461.000000
  0
SEQEND
  8
C7
  0
POLYLINE
  8
C7
  66
1
  10
511.000000
  20
1458.000000
  0
VERTEX
  8
C7
  10
511.000000
  20
1458.000000
  0
VERTEX
  8
C7
  10
512.000000
  20
1457.000000
  0
VERTEX
  8
C7
  10
511.000000
  20
1458.000000
  0
SEQEND
  8
C18
  0
POLYLINE
  8
C18
  66
1
  10
504.000000
  20
1457.000000
  0
VERTEX
  8
C18
  10
504.000000
  20
1457.000000
  0
VERTEX
  8
C18
  10
504.000000
  20
1455.000000
  0
VERTEX
  8
C18
  10
506.000000
  20
1455.000000
  0
VERTEX
  8
C18
  10
504.000000
  20
1457.000000
  0
SEQEND
  8
C7
  0
POLYLINE
  8
C7
  66
1
  10
508.000000
  20
1457.000000
  0
VERTEX
  8
C7
  10
508.000000
  20
1457.000000
  0
VERTEX
  8
C7
  10
509.000000
  20
1456.000000
  0
VERTEX
  8
C7
  10
508.000000
  20
1457.000000
  0
SEQEND
  8
C7
  0
POLYLINE
  8
C7
  66
1
  10
510.000000
  20
1456.000000
  0
VERTEX
  8
C7
  10
510.000000
  20
1456.000000
  0
VERTEX
  8
C7
  10
511.000000
  20
1455.000000
  0
VERTEX
  8
C7
  10
510.000000
  20
1456.000000
  0
SEQEND
  8
C7
  0
POLYLINE
  8
C7
  66
1
  10
512.000000
  20
1456.000000
  0
VERTEX
  8
C7
  10
512.000000
  20
1456.000000
  0
VERTEX
  8
C7
  10
513.000000
  20
1455.000000
  0
VERTEX
  8
C7
  10
512.000000
  20
1456.000000
  0
SEQEND
  8
C18
  0
POLYLINE
  8
C18
  66
1
  10
492.000000
  20
1455.000000
  0
VERTEX
  8
C18
  10
492.000000
  20
1455.000000
  0
VERTEX
  8
C18
  10
493.000000
  20
1454.000000
  0
VERTEX
  8
C18
  10
492.000000
  20
1455.000000
  0
SEQEND
  8
C18
  0
POLYLINE
  8
C18
  66
1
  10
495.000000
  20
1455.000000
  0
VERTEX
  8
C18
  10
495.000000
  20
1455.000000
  0
VERTEX
  8
C18
  10
496.000000
  20
1454.000000
  0
VERTEX
  8
C18
  10
495.000000
  20
1455.000000
  0
SEQEND
  8
C18
  0
POLYLINE
  8
C18
  66
1
  10
497.000000
  20
1455.000000
  0
VERTEX
  8
C18
  10
497.000000
  20
1455.000000
  0
VERTEX
  8
C18
  10
498.000000
  20
1454.000000
  0
VERTEX
  8
C18
  10
497.000000
  20
1455.000000
  0
SEQEND
  8
C7
  0
POLYLINE
  8
C7
  66
1
  10
507.666656
  20
1453.666626
  0
VERTEX
  8
C7
  10
507.666656
  20
1453.666626
  0
VERTEX
  8
C7
  10
508.333344
  20
1453.333374
  0
VERTEX
  8
C7
  10
507.666656
  20
1453.666626
  0
SEQEND
  8
C7
  0
POLYLINE
  8
C7
  66
1
  10
511.000000
  20
1454.000000
  0
VERTEX
  8
C7
  10
511.000000
  20
1454.000000
  0
VERTEX
  8
C7
  10
512.000000
  20
1453.000000
  0
VERTEX
  8
C7
  10
511.000000
  20
1454.000000
  0
SEQEND
  8
C7
  0
POLYLINE
  8
C7
  66
1
  10
514.000000
  20
1454.000000
  0
VERTEX
  8
C7
  10
514.000000
  20
1454.000000
  0
VERTEX
  8
C7
  10
515.000000
  20
1453.000000
  0
VERTEX
  8
C7
  10
514.000000
  20
1454.000000
  0
SEQEND
  8
C7
  0
POLYLINE
  8
C7
  66
1
  10
505.000000
  20
1453.000000
  0
VERTEX
  8
C7
  10
505.000000
  20
1453.000000
  0
VERTEX
  8
C7
  10
510.000000
  20
1447.000000
  0
VERTEX
  8
C7
  10
505.000000
  20
1453.000000
  0
SEQEND
  8
C18
  0
POLYLINE
  8
C18
  66
1
  10
496.000000
  20
1452.000000
  0
VERTEX
  8
C18
  10
496.000000
  20
1452.000000
  0
VERTEX
  8
C18
  10
497.000000
  20
1451.000000
  0
VERTEX
  8
C18
  10
496.000000
  20
1452.000000
  0
SEQEND
  8
C7
  0
POLYLINE
  8
C7
  66
1
  10
508.000000
  20
1452.000000
  0
VERTEX
  8
C7
  10
508.000000
  20
1452.000000
  0
VERTEX
  8
C7
  10
510.000000
  20
1450.000000
  0
VERTEX
  8
C7
  10
508.000000
  20
1452.000000
  0
SEQEND
  8
C18
  0
POLYLINE
  8
C18
  66
1
  10
503.000000
  20
1451.000000
  0
VERTEX
  8
C18
  10
503.000000
  20
1451.000000
  0
VERTEX
  8
C18
  10
502.000000
  20
1449.000000
  0
VERTEX
  8
C18
  10
503.000000
  20
1451.000000
  0
SEQEND
  8
C7
  0
POLYLINE
  8
C7
  66
1
  10
511.000000
  20
1451.000000
  0
VERTEX
  8
C7
  10
511.000000
  20
1451.000000
  0
VERTEX
  8
C7
  10
512.000000
  20
1450.000000
  0
VERTEX
  8
C7
  10
511.000000
  20
1451.000000
  0
SEQEND
  8
C7
  0
POLYLINE
  8
C7
  66
1
  10
513.000000
  20
1450.000000
  0
VERTEX
  8
C7
  10
513.000000
  20
1450.000000
  0
VERTEX
  8
C7
  10
514.000000
  20
1449.000000
  0
VERTEX
  8
C7
  10
513.000000
  20
1450.000000
  0
SEQEND
  8
C18
  0
POLYLINE
  8
C18
  66
1
  10
493.000000
  20
1449.000000
  0
VERTEX
  8
C18
  10
493.000000
  20
1449.000000
  0
VERTEX
  8
C18
  10
494.000000
  20
1448.000000
  0
VERTEX
  8
C18
  10
493.000000
  20
1449.000000
  0
SEQEND
  8
C18
  0
POLYLINE
  8
C18
  66
1
  10
496.000000
  20
1449.000000
  0
VERTEX
  8
C18
  10
496.000000
  20
1449.000000
  0
VERTEX
  8
C18
  10
497.000000
  20
1448.000000
  0
VERTEX
  8
C18
  10
496.000000
  20
1449.000000
  0
SEQEND
  8
C7
  0
POLYLINE
  8
C7
  66
1
  10
511.000000
  20
1447.000000
  0
VERTEX
  8
C7
  10
511.000000
  20
1447.000000
  0
VERTEX
  8
C7
  10
512.000000
  20
1446.000000
  0
VERTEX
  8
C7
  10
511.000000
  20
1447.000000
  0
SEQEND
  8
C18
  0
POLYLINE
  8
C18
  66
1
  10
496.000000
  20
1446.000000
  0
VERTEX
  8
C18
  10
496.000000
  20
1446.000000
  0
VERTEX
  8
C18
  10
497.000000
  20
1445.000000
  0
VERTEX
  8
C18
  10
496.000000
  20
1446.000000
  0
SEQEND
  8
C7
  0
POLYLINE
  8
C7
  66
1
  10
505.000000
  20
1446.000000
  0
VERTEX
  8
C7
  10
505.000000
  20
1446.000000
  0
VERTEX
  8
C7
  10
509.000000
  20
1439.000000
  0
VERTEX
  8
C7
  10
505.000000
  20
1446.000000
  0
SEQEND
  8
C7
  0
POLYLINE
  8
C7
  66
1
  10
508.000000
  20
1446.000000
  0
VERTEX
  8
C7
  10
508.000000
  20
1446.000000
  0
VERTEX
  8
C7
  10
509.000000
  20
1445.000000
  0
VERTEX
  8
C7
  10
508.000000
  20
1446.000000
  0
SEQEND
  8
C7
  0
POLYLINE
  8
C7
  66
1
  10
502.000000
  20
1445.000000
  0
VERTEX
  8
C7
  10
502.000000
  20
1445.000000
  0
VERTEX
  8
C7
  10
504.000000
  20
1441.000000
  0
VERTEX
  8
C7
  10
502.000000
  20
1438.000000
  0
VERTEX
  8
C7
  10
506.000000
  20
1436.000000
  0
VERTEX
  8
C7
  10
503.000000
  20
1439.000000
  0
VERTEX
  8
C7
  10
506.000000
  20
1439.000000
  0
VERTEX
  8
C7
  10
505.000000
  20
1443.000000
  0
VERTEX
  8
C7
  10
502.000000
  20
1445.000000
  0
SEQEND
  8
C7
  0
POLYLINE
  8
C7
  66
1
  10
510.000000
  20
1445.000000
  0
VERTEX
  8
C7
  10
510.000000
  20
1445.000000
  0
VERTEX
  8
C7
  10
512.000000
  20
1443.000000
  0
VERTEX
  8
C7
  10
510.000000
  20
1445.000000
  0
SEQEND
  8
C7
  0
POLYLINE
  8
C7
  66
1
  10
513.000000
  20
1445.000000
  0
VERTEX
  8
C7
  10
513.000000
  20
1445.000000
  0
VERTEX
  8
C7
  10
514.000000
  20
1444.000000
  0
VERTEX
  8
C7
  10
513.000000
  20
1445.000000
  0
SEQEND
  8
C18
  0
POLYLINE
  8
C18
  66
1
  10
496.000000
  20
1444.000000
  0
VERTEX
  8
C18
  10
496.000000
  20
1444.000000
  0
VERTEX
  8
C18
  10
497.000000
  20
1443.000000
  0
VERTEX
  8
C18
  10
496.000000
  20
1444.000000
  0
SEQEND
  8
C18
  0
POLYLINE
  8
C18
  66
1
  10
499.000000
  20
1444.000000
  0
VERTEX
  8
C18
  10
499.000000
  20
1444.000000
  0
VERTEX
  8
C18
  10
500.000000
  20
1443.000000
  0
VERTEX
  8
C18
  10
499.000000
  20
1444.000000
  0
SEQEND
  8
C18
  0
POLYLINE
  8
C18
  66
1
  10
494.000000
  20
1443.000000
  0
VERTEX
  8
C18
  10
494.000000
  20
1443.000000
  0
VERTEX
  8
C18
  10
495.000000
  20
1442.000000
  0
VERTEX
  8
C18
  10
494.000000
  20
1443.000000
  0
SEQEND
  8
C7
  0
POLYLINE
  8
C7
  66
1
  10
509.000000
  20
1443.000000
  0
VERTEX
  8
C7
  10
509.000000
  20
1443.000000
  0
VERTEX
  8
C7
  10
510.000000
  20
1442.000000
  0
VERTEX
  8
C7
  10
509.000000
  20
1443.000000
  0
SEQEND
  8
C18
  0
POLYLINE
  8
C18
  66
1
  10
497.000000
  20
1442.000000
  0
VERTEX
  8
C18
  10
497.000000
  20
1442.000000
  0
VERTEX
  8
C18
  10
498.000000
  20
1441.000000
  0
VERTEX
  8
C18
  10
497.000000
  20
1442.000000
  0
SEQEND
  8
C18
  0
POLYLINE
  8
C18
  66
1
  10
495.000000
  20
1441.000000
  0
VERTEX
  8
C18
  10
495.000000
  20
1441.000000
  0
VERTEX
  8
C18
  10
497.000000
  20
1439.000000
  0
VERTEX
  8
C18
  10
495.000000
  20
1441.000000
  0
SEQEND
  8
C7
  0
POLYLINE
  8
C7
  66
1
  10
512.000000
  20
1441.000000
  0
VERTEX
  8
C7
  10
512.000000
  20
1441.000000
  0
VERTEX
  8
C7
  10
513.000000
  20
1440.000000
  0
VERTEX
  8
C7
  10
512.000000
  20
1441.000000
  0
SEQEND
  8
C18
  0
POLYLINE
  8
C18
  66
1
  10
498.000000
  20
1440.000000
  0
VERTEX
  8
C18
  10
498.000000
  20
1440.000000
  0
VERTEX
  8
C18
  10
499.000000
  20
1439.000000
  0
VERTEX
  8
C18
  10
498.000000
  20
1440.000000
  0
SEQEND
  8
C7
  0
POLYLINE
  8
C7
  66
1
  10
510.000000
  20
1440.000000
  0
VERTEX
  8
C7
  10
510.000000
  20
1440.000000
  0
VERTEX
  8
C7
  10
511.000000
  20
1439.000000
  0
VERTEX
  8
C7
  10
510.000000
  20
1440.000000
  0
SEQEND
  8
C7
  0
POLYLINE
  8
C7
  66
1
  10
514.000000
  20
1440.000000
  0
VERTEX
  8
C7
  10
514.000000
  20
1440.000000
  0
VERTEX
  8
C7
  10
515.000000
  20
1439.000000
  0
VERTEX
  8
C7
  10
514.000000
  20
1440.000000
  0
SEQEND
  8
C7
  0
POLYLINE
  8
C7
  66
1
  10
507.000000
  20
1438.000000
  0
VERTEX
  8
C7
  10
507.000000
  20
1438.000000
  0
VERTEX
  8
C7
  10
508.000000
  20
1437.000000
  0
VERTEX
  8
C7
  10
507.000000
  20
1438.000000
  0
SEQEND
  8
C7
  0
POLYLINE
  8
C7
  66
1
  10
509.000000
  20
1438.000000
  0
VERTEX
  8
C7
  10
509.000000
  20
1438.000000
  0
VERTEX
  8
C7
  10
510.000000
  20
1437.000000
  0
VERTEX
  8
C7
  10
509.000000
  20
1438.000000
  0
SEQEND
  8
C18
  0
POLYLINE
  8
C18
  66
1
  10
494.000000
  20
1437.000000
  0
VERTEX
  8
C18
  10
494.000000
  20
1437.000000
  0
VERTEX
  8
C18
  10
495.000000
  20
1436.000000
  0
VERTEX
  8
C18
  10
494.000000
  20
1437.000000
  0
SEQEND
  8
C7
  0
POLYLINE
  8
C7
  66
1
  10
511.000000
  20
1437.000000
  0
VERTEX
  8
C7
  10
511.000000
  20
1437.000000
  0
VERTEX
  8
C7
  10
513.000000
  20
1435.000000
  0
VERTEX
  8
C7
  10
511.000000
  20
1437.000000
  0
SEQEND
  8
C7
  0
POLYLINE
  8
C7
  66
1
  10
502.000000
  20
1436.000000
  0
VERTEX
  8
C7
  10
502.000000
  20
1436.000000
  0
VERTEX
  8
C7
  10
504.000000
  20
1434.000000
  0
VERTEX
  8
C7
  10
502.000000
  20
1433.000000
  0
VERTEX
  8
C7
  10
503.000000
  20
1432.000000
  0
VERTEX
  8
C7
  10
506.000000
  20
1435.000000
  0
VERTEX
  8
C7
  10
502.000000
  20
1436.000000
  0
SEQEND
  8
C7
  0
POLYLINE
  8
C7
  66
1
  10
507.000000
  20
1436.000000
  0
VERTEX
  8
C7
  10
507.000000
  20
1436.000000
  0
VERTEX
  8
C7
  10
508.000000
  20
1435.000000
  0
VERTEX
  8
C7
  10
507.000000
  20
1436.000000
  0
SEQEND
  8
C7
  0
POLYLINE
  8
C7
  66
1
  10
509.000000
  20
1436.000000
  0
VERTEX
  8
C7
  10
509.000000
  20
1436.000000
  0
VERTEX
  8
C7
  10
510.000000
  20
1435.000000
  0
VERTEX
  8
C7
  10
509.000000
  20
1436.000000
  0
SEQEND
  8
C18
  0
POLYLINE
  8
C18
  66
1
  10
495.000000
  20
1435.000000
  0
VERTEX
  8
C18
  10
495.000000
  20
1435.000000
  0
VERTEX
  8
C18
  10
496.000000
  20
1434.000000
  0
VERTEX
  8
C18
  10
495.000000
  20
1435.000000
  0
SEQEND
  8
C18
  0
POLYLINE
  8
C18
  66
1
  10
497.000000
  20
1434.000000
  0
VERTEX
  8
C18
  10
497.000000
  20
1434.000000
  0
VERTEX
  8
C18
  10
498.000000
  20
1433.000000
  0
VERTEX
  8
C18
  10
497.000000
  20
1434.000000
  0
SEQEND
  8
C7
  0
POLYLINE
  8
C7
  66
1
  10
507.333344
  20
1433.333374
  0
VERTEX
  8
C7
  10
507.333344
  20
1433.333374
  0
VERTEX
  8
C7
  10
507.666656
  20
1432.666626
  0
VERTEX
  8
C7
  10
507.333344
  20
1433.333374
  0
SEQEND
  8
C7
  0
POLYLINE
  8
C7
  66
1
  10
510.000000
  20
1434.000000
  0
VERTEX
  8
C7
  10
510.000000
  20
1434.000000
  0
VERTEX
  8
C7
  10
511.000000
  20
1433.000000
  0
VERTEX
  8
C7
  10
510.000000
  20
1434.000000
  0
SEQEND
  8
C18
  0
POLYLINE
  8
C18
  66
1
  10
495.000000
  20
1433.000000
  0
VERTEX
  8
C18
  10
495.000000
  20
1433.000000
  0
VERTEX
  8
C18
  10
496.000000
  20
1432.000000
  0
VERTEX
  8
C18
  10
495.000000
  20
1433.000000
  0
SEQEND
  8
C7
  0
POLYLINE
  8
C7
  66
1
  10
505.000000
  20
1433.000000
  0
VERTEX
  8
C7
  10
505.000000
  20
1433.000000
  0
VERTEX
  8
C7
  10
506.000000
  20
1432.000000
  0
VERTEX
  8
C7
  10
505.000000
  20
1433.000000
  0
SEQEND
  8
C7
  0
POLYLINE
  8
C7
  66
1
  10
512.000000
  20
1433.000000
  0
VERTEX
  8
C7
  10
512.000000
  20
1433.000000
  0
VERTEX
  8
C7
  10
513.000000
  20
1432.000000
  0
VERTEX
  8
C7
  10
512.000000
  20
1433.000000
  0
SEQEND
  8
C18
  0
POLYLINE
  8
C18
  66
1
  10
498.000000
  20
1432.000000
  0
VERTEX
  8
C18
  10
498.000000
  20
1432.000000
  0
VERTEX
  8
C18
  10
500.000000
  20
1430.000000
  0
VERTEX
  8
C18
  10
498.000000
  20
1432.000000
  0
SEQEND
  8
C7
  0
POLYLINE
  8
C7
  66
1
  10
509.000000
  20
1432.000000
  0
VERTEX
  8
C7
  10
509.000000
  20
1432.000000
  0
VERTEX
  8
C7
  10
510.000000
  20
1431.000000
  0
VERTEX
  8
C7
  10
509.000000
  20
1432.000000
  0
SEQEND
  8
C18
  0
POLYLINE
  8
C18
  66
1
  10
496.000000
  20
1431.000000
  0
VERTEX
  8
C18
  10
496.000000
  20
1431.000000
  0
VERTEX
  8
C18
  10
497.000000
  20
1430.000000
  0
VERTEX
  8
C18
  10
496.000000
  20
1431.000000
  0
SEQEND
  8
C18
  0
POLYLINE
  8
C18
  66
1
  10
1155.000000
  20
1348.000000
  0
VERTEX
  8
C18
  10
1155.000000
  20
1348.000000
  0
VERTEX
  8
C18
  10
1121.860352
  20
1290.000000
  0
VERTEX
  8
C18
  10
1032.460693
  20
1135.285522
  0
VERTEX
  8
C18
  10
1002.489990
  20
1083.089478
  0
VERTEX
  8
C18
  10
991.000000
  20
1061.000000
  0
VERTEX
  8
C18
  10
990.351600
  20
1060.551900
  0
VERTEX
  8
C18
  10
989.708900
  20
1060.059700
  0
VERTEX
  8
C18
  10
989.072100
  20
1059.525200
  0
VERTEX
  8
C18
  10
988.441000
  20
1058.950400
  0
VERTEX
  8
C18
  10
987.815800
  20
1058.337100
  0
VERTEX
  8
C18
  10
987.196400
  20
1057.687200
  0
VERTEX
  8
C18
  10
986.583100
  20
1057.002700
  0
VERTEX
  8
C18
  10
985.975700
  20
1056.285500
  0
VERTEX
  8
C18
  10
985.374400
  20
1055.537300
  0
VERTEX
  8
C18
  10
984.779200
  20
1054.760300
  0
VERTEX
  8
C18
  10
984.190100
  20
1053.956200
  0
VERTEX
  8
C18
  10
983.607200
  20
1053.126900
  0
VERTEX
  8
C18
  10
983.030500
  20
1052.274400
  0
VERTEX
  8
C18
  10
982.460100
  20
1051.400600
  0
VERTEX
  8
C18
  10
981.896100
  20
1050.507400
  0
VERTEX
  8
C18
  10
981.338400
  20
1049.596600
  0
VERTEX
  8
C18
  10
980.787200
  20
1048.670200
  0
VERTEX
  8
C18
  10
980.242400
  20
1047.730100
  0
VERTEX
  8
C18
  10
979.704100
  20
1046.778200
  0
VERTEX
  8
C18
  10
979.172400
  20
1045.816400
  0
VERTEX
  8
C18
  10
978.647300
  20
1044.846500
  0
VERTEX
  8
C18
  10
978.128800
  20
1043.870500
  0
VERTEX
  8
C18
  10
977.617100
  20
1042.890400
  0
VERTEX
  8
C18
  10
977.112100
  20
1041.907900
  0
VERTEX
  8
C18
  10
976.613900
  20
1040.925100
  0
VERTEX
  8
C18
  10
976.122600
  20
1039.943700
  0
VERTEX
  8
C18
  10
975.638200
  20
1038.965800
  0
VERTEX
  8
C18
  10
975.160700
  20
1037.993100
  0
VERTEX
  8
C18
  10
974.690100
  20
1037.027700
  0
VERTEX
  8
C18
  10
974.226700
  20
1036.071400
  0
VERTEX
  8
C18
  10
973.770200
  20
1035.126200
  0
VERTEX
  8
C18
  10
973.321000
  20
1034.193800
  0
VERTEX
  8
C18
  10
972.878900
  20
1033.276300
  0
VERTEX
  8
C18
  10
972.444000
  20
1032.375500
  0
VERTEX
  8
C18
  10
972.016400
  20
1031.493300
  0
VERTEX
  8
C18
  10
971.596100
  20
1030.631700
  0
VERTEX
  8
C18
  10
971.183200
  20
1029.792600
  0
VERTEX
  8
C18
  10
970.777700
  20
1028.977700
  0
VERTEX
  8
C18
  10
970.379600
  20
1028.189200
  0
VERTEX
  8
C18
  10
969.989100
  20
1027.428700
  0
VERTEX
  8
C18
  10
969.606100
  20
1026.698400
  0
VERTEX
  8
C18
  10
969.230700
  20
1026.000000
  0
VERTEX
  8
C18
  10
925.869629
  20
951.000000
  0
VERTEX
  8
C18
  10
925.506300
  20
950.379600
  0
VERTEX
  8
C18
  10
925.110200
  20
949.729100
  0
VERTEX
  8
C18
  10
924.683600
  20
949.049900
  0
VERTEX
  8
C18
  10
924.228600
  20
948.343400
  0
VERTEX
  8
C18
  10
923.747500
  20
947.610900
  0
VERTEX
  8
C18
  10
923.242400
  20
946.854100
  0
VERTEX
  8
C18
  10
922.715600
  20
946.074100
  0
VERTEX
  8
C18
  10
922.169200
  20
945.272600
  0
VERTEX
  8
C18
  10
921.605500
  20
944.450800
  0
VERTEX
  8
C18
  10
921.026700
  20
943.610300
  0
VERTEX
  8
C18
  10
920.434900
  20
942.752400
  0
VERTEX
  8
C18
  10
919.832400
  20
941.878600
  0
VERTEX
  8
C18
  10
919.221400
  20
940.990300
  0
VERTEX
  8
C18
  10
918.604100
  20
940.088900
  0
VERTEX
  8
C18
  10
917.982700
  20
939.175800
  0
VERTEX
  8
C18
  10
917.359300
  20
938.252500
  0
VERTEX
  8
C18
  10
916.736300
  20
937.320300
  0
VERTEX
  8
C18
  10
916.115800
  20
936.380800
  0
VERTEX
  8
C18
  10
915.499900
  20
935.435300
  0
VERTEX
  8
C18
  10
914.891000
  20
934.485200
  0
VERTEX
  8
C18
  10
914.291200
  20
933.532000
  0
VERTEX
  8
C18
  10
913.702700
  20
932.577100
  0
VERTEX
  8
C18
  10
913.127700
  20
931.621900
  0
VERTEX
  8
C18
  10
912.568500
  20
930.667800
  0
VERTEX
  8
C18
  10
912.027200
  20
929.716300
  0
VERTEX
  8
C18
  10
911.506000
  20
928.768700
  0
VERTEX
  8
C18
  10
911.007200
  20
927.826600
  0
VERTEX
  8
C18
  10
910.532900
  20
926.891300
  0
VERTEX
  8
C18
  10
910.085300
  20
925.964200
  0
VERTEX
  8
C18
  10
909.666700
  20
925.046800
  0
VERTEX
  8
C18
  10
909.279300
  20
924.140400
  0
VERTEX
  8
C18
  10
908.925200
  20
923.246600
  0
VERTEX
  8
C18
  10
908.606700
  20
922.366800
  0
VERTEX
  8
C18
  10
908.325900
  20
921.502200
  0
VERTEX
  8
C18
  10
908.085100
  20
920.654500
  0
VERTEX
  8
C18
  10
907.886500
  20
919.824900
  0
VERTEX
  8
C18
  10
907.732300
  20
919.015000
  0
VERTEX
  8
C18
  10
907.624600
  20
918.226100
  0
VERTEX
  8
C18
  10
907.565800
  20
917.459700
  0
VERTEX
  8
C18
  10
907.557900
  20
916.717200
  0
VERTEX
  8
C18
  10
907.603300
  20
916.000000
  0
VERTEX
  8
C18
  10
923.908936
  20
886.000000
  0
VERTEX
  8
C18
  10
965.941345
  20
812.830261
  0
VERTEX
  8
C18
  10
1095.989990
  20
586.000000
  0
VERTEX
  8
C18
  10
1135.364990
  20
517.804016
  0
VERTEX
  8
C18
  10
1135.757900
  20
517.069600
  0
VERTEX
  8
C18
  10
1136.154600
  20
516.305700
  0
VERTEX
  8
C18
  10
1136.555200
  20
515.514100
  0
VERTEX
  8
C18
  10
1136.959800
  20
514.696900
  0
VERTEX
  8
C18
  10
1137.368600
  20
513.855800
  0
VERTEX
  8
C18
  10
1137.781800
  20
512.993000
  0
VERTEX
  8
C18
  10
1138.199500
  20
512.110400
  0
VERTEX
  8
C18
  10
1138.622000
  20
511.209900
  0
VERTEX
  8
C18
  10
1139.049300
  20
510.293400
  0
VERTEX
  8
C18
  10
1139.481700
  20
509.363100
  0
VERTEX
  8
C18
  10
1139.919400
  20
508.420700
  0
VERTEX
  8
C18
  10
1140.362400
  20
507.468300
  0
VERTEX
  8
C18
  10
1140.811000
  20
506.507900
  0
VERTEX
  8
C18
  10
1141.265400
  20
505.541300
  0
VERTEX
  8
C18
  10
1141.725700
  20
504.570600
  0
VERTEX
  8
C18
  10
1142.192000
  20
503.597700
  0
VERTEX
  8
C18
  10
1142.664700
  20
502.624500
  0
VERTEX
  8
C18
  10
1143.143700
  20
501.653100
  0
VERTEX
  8
C18
  10
1143.629400
  20
500.685400
  0
VERTEX
  8
C18
  10
1144.121800
  20
499.723300
  0
VERTEX
  8
C18
  10
1144.621200
  20
498.768800
  0
VERTEX
  8
C18
  10
1145.127700
  20
497.823800
  0
VERTEX
  8
C18
  10
1145.641500
  20
496.890400
  0
VERTEX
  8
C18
  10
1146.162700
  20
495.970400
  0
VERTEX
  8
C18
  10
1146.691600
  20
495.065900
  0
VERTEX
  8
C18
  10
1147.228300
  20
494.178800
  0
VERTEX
  8
C18
  10
1147.772900
  20
493.311000
  0
VERTEX
  8
C18
  10
1148.325700
  20
492.464600
  0
VERTEX
  8
C18
  10
1148.886800
  20
491.641400
  0
VERTEX
  8
C18
  10
1149.456400
  20
490.843500
  0
VERTEX
  8
C18
  10
1150.034700
  20
490.072700
  0
VERTEX
  8
C18
  10
1150.621800
  20
489.331100
  0
VERTEX
  8
C18
  10
1151.217900
  20
488.620600
  0
VERTEX
  8
C18
  10
1151.823100
  20
487.943100
  0
VERTEX
  8
C18
  10
1152.437700
  20
487.300700
  0
VERTEX
  8
C18
  10
1153.061900
  20
486.695300
  0
VERTEX
  8
C18
  10
1153.695700
  20
486.128800
  0
VERTEX
  8
C18
  10
1154.339400
  20
485.603300
  0
VERTEX
  8
C18
  10
1154.934900
  20
485.185100
  0
VERTEX
  8
C18
  10
1155.589100
  20
484.808500
  0
VERTEX
  8
C18
  10
1156.298300
  20
484.471800
  0
VERTEX
  8
C18
  10
1157.059300
  20
484.173000
  0
VERTEX
  8
C18
  10
1157.868600
  20
483.910500
  0
VERTEX
  8
C18
  10
1158.722700
  20
483.682500
  0
VERTEX
  8
C18
  10
1159.618300
  20
483.487000
  0
VERTEX
  8
C18
  10
1160.552000
  20
483.322400
  0
VERTEX
  8
C18
  10
1161.520300
  20
483.186900
  0
VERTEX
  8
C18
  10
1162.519900
  20
483.078600
  0
VERTEX
  8
C18
  10
1163.547200
  20
482.995800
  0
VERTEX
  8
C18
  10
1164.599000
  20
482.936700
  0
VERTEX
  8
C18
  10
1165.671700
  20
482.899400
  0
VERTEX
  8
C18
  10
1166.762000
  20
482.882300
  0
VERTEX
  8
C18
  10
1167.866400
  20
482.883400
  0
VERTEX
  8
C18
  10
1168.981600
  20
482.901100
  0
VERTEX
  8
C18
  10
1170.104200
  20
482.933500
  0
VERTEX
  8
C18
  10
1171.230600
  20
482.978800
  0
VERTEX
  8
C18
  10
1172.357500
  20
483.035300
  0
VERTEX
  8
C18
  10
1173.481500
  20
483.101100
  0
VERTEX
  8
C18
  10
1174.599200
  20
483.174400
  0
VERTEX
  8
C18
  10
1175.707200
  20
483.253500
  0
VERTEX
  8
C18
  10
1176.802000
  20
483.336600
  0
VERTEX
  8
C18
  10
1177.880200
  20
483.421900
  0
VERTEX
  8
C18
  10
1178.938400
  20
483.507500
  0
VERTEX
  8
C18
  10
1179.973300
  20
483.591800
  0
VERTEX
  8
C18
  10
1180.981300
  20
483.672800
  0
VERTEX
  8
C18
  10
1181.959100
  20
483.748800
  0
VERTEX
  8
C18
  10
1182.903300
  20
483.818100
  0
VERTEX
  8
C18
  10
1183.810400
  20
483.878800
  0
VERTEX
  8
C18
  10
1184.677000
  20
483.929100
  0
VERTEX
  8
C18
  10
1185.499800
  20
483.967300
  0
VERTEX
  8
C18
  10
1186.275200
  20
483.991500
  0
VERTEX
  8
C18
  10
1187.000000
  20
484.000000
  0
VERTEX
  8
C18
  10
1276.000000
  20
484.000000
  0
VERTEX
  8
C18
  10
1534.000000
  20
484.000000
  0
VERTEX
  8
C18
  10
1613.000000
  20
484.000000
  0
VERTEX
  8
C18
  10
1649.895752
  20
484.317902
  0
VERTEX
  8
C18
  10
1659.489990
  20
496.714508
  0
VERTEX
  8
C18
  10
1681.000000
  20
533.960632
  0
VERTEX
  8
C18
  10
1762.650513
  20
675.000000
  0
VERTEX
  8
C18
  10
1862.000000
  20
846.844910
  0
VERTEX
  8
C18
  10
1888.199829
  20
892.000000
  0
VERTEX
  8
C18
  10
1899.848755
  20
914.089478
  0
VERTEX
  8
C18
  10
1899.897400
  20
914.905800
  0
VERTEX
  8
C18
  10
1899.890700
  20
915.736800
  0
VERTEX
  8
C18
  10
1899.831200
  20
916.581000
  0
VERTEX
  8
C18
  10
1899.721400
  20
917.437600
  0
VERTEX
  8
C18
  10
1899.563800
  20
918.305200
  0
VERTEX
  8
C18
  10
1899.361100
  20
919.182900
  0
VERTEX
  8
C18
  10
1899.115700
  20
920.069500
  0
VERTEX
  8
C18
  10
1898.830200
  20
920.963900
  0
VERTEX
  8
C18
  10
1898.507200
  20
921.865000
  0
VERTEX
  8
C18
  10
1898.149200
  20
922.771700
  0
VERTEX
  8
C18
  10
1897.758700
  20
923.682800
  0
VERTEX
  8
C18
  10
1897.338400
  20
924.597300
  0
VERTEX
  8
C18
  10
1896.890700
  20
925.514000
  0
VERTEX
  8
C18
  10
1896.418300
  20
926.431800
  0
VERTEX
  8
C18
  10
1895.923600
  20
927.349700
  0
VERTEX
  8
C18
  10
1895.409300
  20
928.266500
  0
VERTEX
  8
C18
  10
1894.877800
  20
929.181000
  0
VERTEX
  8
C18
  10
1894.331700
  20
930.092300
  0
VERTEX
  8
C18
  10
1893.773700
  20
930.999100
  0
VERTEX
  8
C18
  10
1893.206100
  20
931.900400
  0
VERTEX
  8
C18
  10
1892.631600
  20
932.795100
  0
VERTEX
  8
C18
  10
1892.052800
  20
933.682000
  0
VERTEX
  8
C18
  10
1891.472100
  20
934.560000
  0
VERTEX
  8
C18
  10
1890.892200
  20
935.428000
  0
VERTEX
  8
C18
  10
1890.315500
  20
936.285000
  0
VERTEX
  8
C18
  10
1889.744700
  20
937.129700
  0
VERTEX
  8
C18
  10
1889.182300
  20
937.961200
  0
VERTEX
  8
C18
  10
1888.630800
  20
938.778200
  0
VERTEX
  8
C18
  10
1888.092700
  20
939.579600
  0
VERTEX
  8
C18
  10
1887.570800
  20
940.364500
  0
VERTEX
  8
C18
  10
1887.067400
  20
941.131500
  0
VERTEX
  8
C18
  10
1886.585100
  20
941.879700
  0
VERTEX
  8
C18
  10
1886.126600
  20
942.607900
  0
VERTEX
  8
C18
  10
1885.694300
  20
943.315000
  0
VERTEX
  8
C18
  10
1885.290800
  20
944.000000
  0
VERTEX
  8
C18
  10
1842.510864
  20
1018.575623
  0
VERTEX
  8
C18
  10
1707.685181
  20
1253.196045
  0
VERTEX
  8
C18
  10
1670.628906
  20
1318.000000
  0
VERTEX
  8
C18
  10
1653.211426
  20
1346.682129
  0
VERTEX
  8
C18
  10
1652.619600
  20
1347.067600
  0
VERTEX
  8
C18
  10
1651.974300
  20
1347.416700
  0
VERTEX
  8
C18
  10
1651.278400
  20
1347.730800
  0
VERTEX
  8
C18
  10
1650.534800
  20
1348.011400
  0
VERTEX
  8
C18
  10
1649.746300
  20
1348.259800
  0
VERTEX
  8
C18
  10
1648.915900
  20
1348.477600
  0
VERTEX
  8
C18
  10
1648.046200
  20
1348.666300
  0
VERTEX
  8
C18
  10
1647.140400
  20
1348.827200
  0
VERTEX
  8
C18
  10
1646.201200
  20
1348.961900
  0
VERTEX
  8
C18
  10
1645.231400
  20
1349.071700
  0
VERTEX
  8
C18
  10
1644.234000
  20
1349.158300
  0
VERTEX
  8
C18
  10
1643.211800
  20
1349.223000
  0
VERTEX
  8
C18
  10
1642.167700
  20
1349.267200
  0
VERTEX
  8
C18
  10
1641.104600
  20
1349.292500
  0
VERTEX
  8
C18
  10
1640.025300
  20
1349.300300
  0
VERTEX
  8
C18
  10
1638.932700
  20
1349.292100
  0
VERTEX
  8
C18
  10
1637.829700
  20
1349.269300
  0
VERTEX
  8
C18
  10
1636.719100
  20
1349.233300
  0
VERTEX
  8
C18
  10
1635.603900
  20
1349.185700
  0
VERTEX
  8
C18
  10
1634.486800
  20
1349.128000
  0
VERTEX
  8
C18
  10
1633.370800
  20
1349.061400
  0
VERTEX
  8
C18
  10
1632.258700
  20
1348.987600
  0
VERTEX
  8
C18
  10
1631.153400
  20
1348.908000
  0
VERTEX
  8
C18
  10
1630.057800
  20
1348.824000
  0
VERTEX
  8
C18
  10
1628.974700
  20
1348.737200
  0
VERTEX
  8
C18
  10
1627.907000
  20
1348.648900
  0
VERTEX
  8
C18
  10
1626.857600
  20
1348.560600
  0
VERTEX
  8
C18
  10
1625.829300
  20
1348.473800
  0
VERTEX
  8
C18
  10
1624.825100
  20
1348.389900
  0
VERTEX
  8
C18
  10
1623.847700
  20
1348.310400
  0
VERTEX
  8
C18
  10
1622.900100
  20
1348.236800
  0
VERTEX
  8
C18
  10
1621.985100
  20
1348.170500
  0
VERTEX
  8
C18
  10
1621.105600
  20
1348.113000
  0
VERTEX
  8
C18
  10
1620.264500
  20
1348.065700
  0
VERTEX
  8
C18
  10
1619.464600
  20
1348.030200
  0
VERTEX
  8
C18
  10
1618.708800
  20
1348.007700
  0
VERTEX
  8
C18
  10
1618.000000
  20
1348.000000
  0
VERTEX
  8
C18
  10
1522.000000
  20
1348.000000
  0
VERTEX
  8
C18
  10
1155.000000
  20
1348.000000
  0
SEQEND
  8
C7
  0
POLYLINE
  8
C7
  66
1
  10
1459.379639
  20
1125.972290
  0
VERTEX
  8
C7
  10
1459.379639
  20
1125.972290
  0
VERTEX
  8
C7
  10
1451.869629
  20
1114.000000
  0
VERTEX
  8
C7
  10
1433.972168
  20
1080.000000
  0
VERTEX
  8
C7
  10
1373.449829
  20
966.000000
  0
VERTEX
  8
C7
  10
1355.503906
  20
932.089478
  0
VERTEX
  8
C7
  10
1349.977539
  20
918.000000
  0
VERTEX
  8
C7
  10
1368.058594
  20
883.000000
  0
VERTEX
  8
C7
  10
1411.752319
  20
800.000000
  0
VERTEX
  8
C7
  10
1445.726807
  20
734.999207
  0
VERTEX
  8
C7
  10
1459.213013
  20
712.027771
  0
VERTEX
  8
C7
  10
1459.883900
  20
711.666800
  0
VERTEX
  8
C7
  10
1460.603800
  20
711.344700
  0
VERTEX
  8
C7
  10
1461.369800
  20
711.059500
  0
VERTEX
  8
C7
  10
1462.178800
  20
710.809600
  0
VERTEX
  8
C7
  10
1463.027800
  20
710.593200
  0
VERTEX
  8
C7
  10
1463.913900
  20
710.408500
  0
VERTEX
  8
C7
  10
1464.834100
  20
710.253800
  0
VERTEX
  8
C7
  10
1465.785500
  20
710.127300
  0
VERTEX
  8
C7
  10
1466.765100
  20
710.027200
  0
VERTEX
  8
C7
  10
1467.769800
  20
709.951800
  0
VERTEX
  8
C7
  10
1468.796800
  20
709.899400
  0
VERTEX
  8
C7
  10
1469.843000
  20
709.868200
  0
VERTEX
  8
C7
  10
1470.905600
  20
709.856400
  0
VERTEX
  8
C7
  10
1471.981400
  20
709.862300
  0
VERTEX
  8
C7
  10
1473.067600
  20
709.884200
  0
VERTEX
  8
C7
  10
1474.161200
  20
709.920200
  0
VERTEX
  8
C7
  10
1475.259100
  20
709.968600
  0
VERTEX
  8
C7
  10
1476.358500
  20
710.027700
  0
VERTEX
  8
C7
  10
1477.456300
  20
710.095600
  0
VERTEX
  8
C7
  10
1478.549700
  20
710.170800
  0
VERTEX
  8
C7
  10
1479.635500
  20
710.251300
  0
VERTEX
  8
C7
  10
1480.710900
  20
710.335500
  0
VERTEX
  8
C7
  10
1481.772900
  20
710.421600
  0
VERTEX
  8
C7
  10
1482.818400
  20
710.507800
  0
VERTEX
  8
C7
  10
1483.844600
  20
710.592300
  0
VERTEX
  8
C7
  10
1484.848400
  20
710.673500
  0
VERTEX
  8
C7
  10
1485.826900
  20
710.749600
  0
VERTEX
  8
C7
  10
1486.777200
  20
710.818800
  0
VERTEX
  8
C7
  10
1487.696100
  20
710.879300
  0
VERTEX
  8
C7
  10
1488.580900
  20
710.929500
  0
VERTEX
  8
C7
  10
1489.428400
  20
710.967500
  0
VERTEX
  8
C7
  10
1490.235700
  20
710.991500
  0
VERTEX
  8
C7
  10
1491.000000
  20
711.000000
  0
VERTEX
  8
C7
  10
1571.000000
  20
711.000000
  0
VERTEX
  8
C7
  10
1643.000000
  20
711.000000
  0
VERTEX
  8
C7
  10
1670.446045
  20
712.023926
  0
VERTEX
  8
C7
  10
1678.000000
  20
723.961426
  0
VERTEX
  8
C7
  10
1693.021606
  20
752.575623
  0
VERTEX
  8
C7
  10
1754.772461
  20
868.999207
  0
VERTEX
  8
C7
  10
1772.800903
  20
903.014648
  0
VERTEX
  8
C7
  10
1779.607178
  20
919.000000
  0
VERTEX
  8
C7
  10
1779.542100
  20
919.814600
  0
VERTEX
  8
C7
  10
1779.443200
  20
920.641400
  0
VERTEX
  8
C7
  10
1779.311400
  20
921.479900
  0
VERTEX
  8
C7
  10
1779.148000
  20
922.329300
  0
VERTEX
  8
C7
  10
1778.954100
  20
923.189000
  0
VERTEX
  8
C7
  10
1778.730900
  20
924.058400
  0
VERTEX
  8
C7
  10
1778.479600
  20
924.936900
  0
VERTEX
  8
C7
  10
1778.201300
  20
925.823700
  0
VERTEX
  8
C7
  10
1777.897400
  20
926.718300
  0
VERTEX
  8
C7
  10
1777.568900
  20
927.620100
  0
VERTEX
  8
C7
  10
1777.217000
  20
928.528300
  0
VERTEX
  8
C7
  10
1776.843000
  20
929.442400
  0
VERTEX
  8
C7
  10
1776.448000
  20
930.361700
  0
VERTEX
  8
C7
  10
1776.033100
  20
931.285500
  0
VERTEX
  8
C7
  10
1775.599700
  20
932.213400
  0
VERTEX
  8
C7
  10
1775.148900
  20
933.144500
  0
VERTEX
  8
C7
  10
1774.681800
  20
934.078300
  0
VERTEX
  8
C7
  10
1774.199600
  20
935.014100
  0
VERTEX
  8
C7
  10
1773.703600
  20
935.951300
  0
VERTEX
  8
C7
  10
1773.194900
  20
936.889200
  0
VERTEX
  8
C7
  10
1772.674700
  20
937.827300
  0
VERTEX
  8
C7
  10
1772.144200
  20
938.764900
  0
VERTEX
  8
C7
  10
1771.604500
  20
939.701300
  0
VERTEX
  8
C7
  10
1771.056900
  20
940.635900
  0
VERTEX
  8
C7
  10
1770.502600
  20
941.568000
  0
VERTEX
  8
C7
  10
1769.942700
  20
942.497100
  0
VERTEX
  8
C7
  10
1769.378500
  20
943.422500
  0
VERTEX
  8
C7
  10
1768.811000
  20
944.343500
  0
VERTEX
  8
C7
  10
1768.241500
  20
945.259600
  0
VERTEX
  8
C7
  10
1767.671200
  20
946.170000
  0
VERTEX
  8
C7
  10
1767.101300
  20
947.074200
  0
VERTEX
  8
C7
  10
1766.532900
  20
947.971500
  0
VERTEX
  8
C7
  10
1765.967300
  20
948.861200
  0
VERTEX
  8
C7
  10
1765.405600
  20
949.742800
  0
VERTEX
  8
C7
  10
1764.848900
  20
950.615600
  0
VERTEX
  8
C7
  10
1764.298600
  20
951.478900
  0
VERTEX
  8
C7
  10
1763.755800
  20
952.332100
  0
VERTEX
  8
C7
  10
1763.221600
  20
953.174600
  0
VERTEX
  8
C7
  10
1762.697300
  20
954.005800
  0
VERTEX
  8
C7
  10
1762.184100
  20
954.825000
  0
VERTEX
  8
C7
  10
1761.683000
  20
955.631500
  0
VERTEX
  8
C7
  10
1761.195400
  20
956.424700
  0
VERTEX
  8
C7
  10
1760.722400
  20
957.204100
  0
VERTEX
  8
C7
  10
1760.265100
  20
957.968900
  0
VERTEX
  8
C7
  10
1759.824800
  20
958.718500
  0
VERTEX
  8
C7
  10
1759.402700
  20
959.452300
  0
VERTEX
  8
C7
  10
1759.000000
  20
960.169700
  0
VERTEX
  8
C7
  10
1715.575684
  20
1043.000000
  0
VERTEX
  8
C7
  10
1684.222168
  20
1103.000000
  0
VERTEX
  8
C7
  10
1670.736084
  20
1125.972290
  0
VERTEX
  8
C7
  10
1670.079900
  20
1126.336000
  0
VERTEX
  8
C7
  10
1669.372600
  20
1126.660700
  0
VERTEX
  8
C7
  10
1668.617200
  20
1126.948100
  0
VERTEX
  8
C7
  10
1667.816800
  20
1127.199900
  0
VERTEX
  8
C7
  10
1666.974400
  20
1127.417900
  0
VERTEX
  8
C7
  10
1666.093300
  20
1127.604000
  0
VERTEX
  8
C7
  10
1665.176400
  20
1127.759700
  0
VERTEX
  8
C7
  10
1664.227000
  20
1127.887000
  0
VERTEX
  8
C7
  10
1663.248100
  20
1127.987600
  0
VERTEX
  8
C7
  10
1662.242900
  20
1128.063300
  0
VERTEX
  8
C7
  10
1661.214400
  20
1128.115800
  0
VERTEX
  8
C7
  10
1660.165800
  20
1128.146900
  0
VERTEX
  8
C7
  10
1659.100100
  20
1128.158500
  0
VERTEX
  8
C7
  10
1658.020500
  20
1128.152100
  0
VERTEX
  8
C7
  10
1656.930100
  20
1128.129800
  0
VERTEX
  8
C7
  10
1655.832000
  20
1128.093100
  0
VERTEX
  8
C7
  10
1654.729300
  20
1128.043900
  0
VERTEX
  8
C7
  10
1653.625200
  20
1127.983900
  0
VERTEX
  8
C7
  10
1652.522600
  20
1127.915000
  0
VERTEX
  8
C7
  10
1651.424800
  20
1127.838900
  0
VERTEX
  8
C7
  10
1650.334900
  20
1127.757300
  0
VERTEX
  8
C7
  10
1649.255900
  20
1127.672100
  0
VERTEX
  8
C7
  10
1648.191000
  20
1127.585000
  0
VERTEX
  8
C7
  10
1647.143300
  20
1127.497700
  0
VERTEX
  8
C7
  10
1646.115800
  20
1127.412200
  0
VERTEX
  8
C7
  10
1645.111800
  20
1127.330000
  0
VERTEX
  8
C7
  10
1644.134300
  20
1127.253100
  0
VERTEX
  8
C7
  10
1643.186300
  20
1127.183100
  0
VERTEX
  8
C7
  10
1642.271200
  20
1127.121900
  0
VERTEX
  8
C7
  10
1641.391800
  20
1127.071200
  0
VERTEX
  8
C7
  10
1640.551400
  20
1127.032800
  0
VERTEX
  8
C7
  10
1639.753100
  20
1127.008500
  0
VERTEX
  8
C7
  10
1639.000000
  20
1127.000000
  0
VERTEX
  8
C7
  10
1557.000000
  20
1127.000000
  0
VERTEX
  8
C7
  10
1487.000000
  20
1127.000000
  0
VERTEX
  8
C7
  10
1459.379639
  20
1125.972290
  0
SEQEND
  8
C18
  0
POLYLINE
  8
C18
  66
1
  10
268.000000
  20
959.000000
  0
VERTEX
  8
C18
  10
268.000000
  20
959.000000
  0
VERTEX
  8
C18
  10
270.000000
  20
955.000000
  0
VERTEX
  8
C18
  10
267.000000
  20
955.000000
  0
VERTEX
  8
C18
  10
271.000000
  20
953.000000
  0
VERTEX
  8
C18
  10
266.000000
  20
951.000000
  0
VERTEX
  8
C18
  10
268.000000
  20
941.000000
  0
VERTEX
  8
C18
  10
270.000000
  20
939.000000
  0
VERTEX
  8
C18
  10
266.000000
  20
940.000000
  0
VERTEX
  8
C18
  10
272.000000
  20
939.000000
  0
VERTEX
  8
C18
  10
269.000000
  20
937.000000
  0
VERTEX
  8
C18
  10
270.000000
  20
934.000000
  0
VERTEX
  8
C18
  10
267.000000
  20
935.000000
  0
VERTEX
  8
C18
  10
273.000000
  20
928.000000
  0
VERTEX
  8
C18
  10
268.000000
  20
927.000000
  0
VERTEX
  8
C18
  10
270.000000
  20
929.000000
  0
VERTEX
  8
C18
  10
271.000000
  20
926.000000
  0
VERTEX
  8
C18
  10
269.000000
  20
926.000000
  0
VERTEX
  8
C18
  10
270.000000
  20
917.000000
  0
VERTEX
  8
C18
  10
267.000000
  20
924.000000
  0
VERTEX
  8
C18
  10
268.000000
  20
914.000000
  0
VERTEX
  8
C18
  10
270.000000
  20
912.000000
  0
VERTEX
  8
C18
  10
273.000000
  20
909.000000
  0
VERTEX
  8
C18
  10
270.000000
  20
911.000000
  0
VERTEX
  8
C18
  10
272.000000
  20
907.000000
  0
VERTEX
  8
C18
  10
271.000000
  20
906.000000
  0
VERTEX
  8
C18
  10
265.000000
  20
911.000000
  0
VERTEX
  8
C18
  10
272.000000
  20
902.000000
  0
VERTEX
  8
C18
  10
268.000000
  20
905.000000
  0
VERTEX
  8
C18
  10
269.000000
  20
900.000000
  0
VERTEX
  8
C18
  10
271.000000
  20
902.000000
  0
VERTEX
  8
C18
  10
272.000000
  20
898.000000
  0
VERTEX
  8
C18
  10
268.000000
  20
899.000000
  0
VERTEX
  8
C18
  10
271.000000
  20
898.000000
  0
VERTEX
  8
C18
  10
272.000000
  20
892.000000
  0
VERTEX
  8
C18
  10
270.815800
  20
891.795500
  0
VERTEX
  8
C18
  10
269.910000
  20
891.743500
  0
VERTEX
  8
C18
  10
269.279000
  20
891.890900
  0
VERTEX
  8
C18
  10
268.919300
  20
892.284700
  0
VERTEX
  8
C18
  10
268.827500
  20
892.972000
  0
VERTEX
  8
C18
  10
269.000000
  20
894.000000
  0
VERTEX
  8
C18
  10
268.143300
  20
893.026500
  0
VERTEX
  8
C18
  10
267.809500
  20
892.298900
  0
VERTEX
  8
C18
  10
268.003900
  20
891.758100
  0
VERTEX
  8
C18
  10
268.732200
  20
891.344800
  0
VERTEX
  8
C18
  10
270.000000
  20
891.000000
  0
VERTEX
  8
C18
  10
272.000000
  20
878.000000
  0
VERTEX
  8
C18
  10
270.000000
  20
881.000000
  0
VERTEX
  8
C18
  10
267.000000
  20
881.000000
  0
VERTEX
  8
C18
  10
267.371500
  20
880.174900
  0
VERTEX
  8
C18
  10
267.790500
  20
879.403400
  0
VERTEX
  8
C18
  10
268.255100
  20
878.683700
  0
VERTEX
  8
C18
  10
268.763400
  20
878.014200
  0
VERTEX
  8
C18
  10
269.313400
  20
877.393100
  0
VERTEX
  8
C18
  10
269.903200
  20
876.818800
  0
VERTEX
  8
C18
  10
270.531000
  20
876.289600
  0
VERTEX
  8
C18
  10
271.194800
  20
875.803700
  0
VERTEX
  8
C18
  10
271.892700
  20
875.359500
  0
VERTEX
  8
C18
  10
272.622800
  20
874.955300
  0
VERTEX
  8
C18
  10
273.383100
  20
874.589300
  0
VERTEX
  8
C18
  10
274.171800
  20
874.260000
  0
VERTEX
  8
C18
  10
274.987000
  20
873.965500
  0
VERTEX
  8
C18
  10
275.826700
  20
873.704200
  0
VERTEX
  8
C18
  10
276.689000
  20
873.474300
  0
VERTEX
  8
C18
  10
277.572000
  20
873.274300
  0
VERTEX
  8
C18
  10
278.473800
  20
873.102400
  0
VERTEX
  8
C18
  10
279.392400
  20
872.956800
  0
VERTEX
  8
C18
  10
280.326100
  20
872.836000
  0
VERTEX
  8
C18
  10
281.272800
  20
872.738200
  0
VERTEX
  8
C18
  10
282.230600
  20
872.661700
  0
VERTEX
  8
C18
  10
283.197600
  20
872.604800
  0
VERTEX
  8
C18
  10
284.172000
  20
872.565800
  0
VERTEX
  8
C18
  10
285.151700
  20
872.543000
  0
VERTEX
  8
C18
  10
286.134900
  20
872.534800
  0
VERTEX
  8
C18
  10
287.119700
  20
872.539300
  0
VERTEX
  8
C18
  10
288.104200
  20
872.555000
  0
VERTEX
  8
C18
  10
289.086400
  20
872.580200
  0
VERTEX
  8
C18
  10
290.064400
  20
872.613000
  0
VERTEX
  8
C18
  10
291.036300
  20
872.652000
  0
VERTEX
  8
C18
  10
292.000200
  20
872.695200
  0
VERTEX
  8
C18
  10
292.954300
  20
872.741100
  0
VERTEX
  8
C18
  10
293.896500
  20
872.788000
  0
VERTEX
  8
C18
  10
294.824900
  20
872.834100
  0
VERTEX
  8
C18
  10
295.737700
  20
872.877700
  0
VERTEX
  8
C18
  10
296.632900
  20
872.917200
  0
VERTEX
  8
C18
  10
297.508700
  20
872.950900
  0
VERTEX
  8
C18
  10
298.363100
  20
872.977100
  0
VERTEX
  8
C18
  10
299.194100
  20
872.994000
  0
VERTEX
  8
C18
  10
300.000000
  20
873.000000
  0
VERTEX
  8
C18
  10
400.000000
  20
872.000000
  0
VERTEX
  8
C18
  10
723.000000
  20
872.000000
  0
VERTEX
  8
C18
  10
806.000000
  20
872.000000
  0
VERTEX
  8
C18
  10
806.658700
  20
871.990500
  0
VERTEX
  8
C18
  10
807.383700
  20
871.963600
  0
VERTEX
  8
C18
  10
808.169900
  20
871.921300
  0
VERTEX
  8
C18
  10
809.012600
  20
871.865700
  0
VERTEX
  8
C18
  10
809.906900
  20
871.799000
  0
VERTEX
  8
C18
  10
810.847800
  20
871.723100
  0
VERTEX
  8
C18
  10
811.830700
  20
871.640200
  0
VERTEX
  8
C18
  10
812.850600
  20
871.552400
  0
VERTEX
  8
C18
  10
813.902600
  20
871.461700
  0
VERTEX
  8
C18
  10
814.981900
  20
871.370400
  0
VERTEX
  8
C18
  10
816.083600
  20
871.280400
  0
VERTEX
  8
C18
  10
817.202900
  20
871.193800
  0
VERTEX
  8
C18
  10
818.334900
  20
871.112800
  0
VERTEX
  8
C18
  10
819.474700
  20
871.039400
  0
VERTEX
  8
C18
  10
820.617500
  20
870.975800
  0
VERTEX
  8
C18
  10
821.758400
  20
870.923900
  0
VERTEX
  8
C18
  10
822.892600
  20
870.886000
  0
VERTEX
  8
C18
  10
824.015200
  20
870.864100
  0
VERTEX
  8
C18
  10
825.121400
  20
870.860300
  0
VERTEX
  8
C18
  10
826.206200
  20
870.876700
  0
VERTEX
  8
C18
  10
827.264900
  20
870.915400
  0
VERTEX
  8
C18
  10
828.292500
  20
870.978500
  0
VERTEX
  8
C18
  10
829.284200
  20
871.068000
  0
VERTEX
  8
C18
  10
830.235200
  20
871.186100
  0
VERTEX
  8
C18
  10
831.140500
  20
871.334900
  0
VERTEX
  8
C18
  10
831.995400
  20
871.516400
  0
VERTEX
  8
C18
  10
832.794900
  20
871.732700
  0
VERTEX
  8
C18
  10
833.534200
  20
871.986000
  0
VERTEX
  8
C18
  10
834.208500
  20
872.278300
  0
VERTEX
  8
C18
  10
834.812900
  20
872.611700
  0
VERTEX
  8
C18
  10
835.342500
  20
872.988400
  0
VERTEX
  8
C18
  10
831.489197
  20
884.285522
  0
VERTEX
  8
C18
  10
831.063100
  20
885.032400
  0
VERTEX
  8
C18
  10
830.637600
  20
885.806200
  0
VERTEX
  8
C18
  10
830.212300
  20
886.605000
  0
VERTEX
  8
C18
  10
829.786600
  20
887.426900
  0
VERTEX
  8
C18
  10
829.360200
  20
888.270200
  0
VERTEX
  8
C18
  10
828.932600
  20
889.132900
  0
VERTEX
  8
C18
  10
828.503400
  20
890.013300
  0
VERTEX
  8
C18
  10
828.072000
  20
890.909500
  0
VERTEX
  8
C18
  10
827.638200
  20
891.819600
  0
VERTEX
  8
C18
  10
827.201400
  20
892.741800
  0
VERTEX
  8
C18
  10
826.761200
  20
893.674300
  0
VERTEX
  8
C18
  10
826.317200
  20
894.615200
  0
VERTEX
  8
C18
  10
825.869000
  20
895.562700
  0
VERTEX
  8
C18
  10
825.416000
  20
896.514900
  0
VERTEX
  8
C18
  10
824.957900
  20
897.470000
  0
VERTEX
  8
C18
  10
824.494200
  20
898.426200
  0
VERTEX
  8
C18
  10
824.024600
  20
899.381600
  0
VERTEX
  8
C18
  10
823.548500
  20
900.334400
  0
VERTEX
  8
C18
  10
823.065500
  20
901.282700
  0
VERTEX
  8
C18
  10
822.575200
  20
902.224600
  0
VERTEX
  8
C18
  10
822.077100
  20
903.158400
  0
VERTEX
  8
C18
  10
821.570800
  20
904.082300
  0
VERTEX
  8
C18
  10
821.055900
  20
904.994200
  0
VERTEX
  8
C18
  10
820.532000
  20
905.892500
  0
VERTEX
  8
C18
  10
819.998500
  20
906.775300
  0
VERTEX
  8
C18
  10
819.455100
  20
907.640700
  0
VERTEX
  8
C18
  10
818.901400
  20
908.486800
  0
VERTEX
  8
C18
  10
818.336800
  20
909.312000
  0
VERTEX
  8
C18
  10
817.760900
  20
910.114200
  0
VERTEX
  8
C18
  10
817.173400
  20
910.891700
  0
VERTEX
  8
C18
  10
816.573700
  20
911.642600
  0
VERTEX
  8
C18
  10
815.961500
  20
912.365100
  0
VERTEX
  8
C18
  10
815.336300
  20
913.057300
  0
VERTEX
  8
C18
  10
814.697700
  20
913.717400
  0
VERTEX
  8
C18
  10
814.045100
  20
914.343600
  0
VERTEX
  8
C18
  10
813.378300
  20
914.934000
  0
VERTEX
  8
C18
  10
812.696700
  20
915.486700
  0
VERTEX
  8
C18
  10
812.000000
  20
916.000000
  0
VERTEX
  8
C18
  10
812.000000
  20
918.000000
  0
VERTEX
  8
C18
  10
820.000000
  20
929.285522
  0
VERTEX
  8
C18
  10
820.449900
  20
930.062600
  0
VERTEX
  8
C18
  10
820.917900
  20
930.849700
  0
VERTEX
  8
C18
  10
821.402200
  20
931.646600
  0
VERTEX
  8
C18
  10
821.901100
  20
932.452700
  0
VERTEX
  8
C18
  10
822.412700
  20
933.267700
  0
VERTEX
  8
C18
  10
822.935300
  20
934.091200
  0
VERTEX
  8
C18
  10
823.467300
  20
934.922900
  0
VERTEX
  8
C18
  10
824.006700
  20
935.762400
  0
VERTEX
  8
C18
  10
824.552000
  20
936.609200
  0
VERTEX
  8
C18
  10
825.101200
  20
937.463100
  0
VERTEX
  8
C18
  10
825.652700
  20
938.323700
  0
VERTEX
  8
C18
  10
826.204700
  20
939.190600
  0
VERTEX
  8
C18
  10
826.755400
  20
940.063300
  0
VERTEX
  8
C18
  10
827.303100
  20
940.941600
  0
VERTEX
  8
C18
  10
827.846100
  20
941.825000
  0
VERTEX
  8
C18
  10
828.382500
  20
942.713300
  0
VERTEX
  8
C18
  10
828.910600
  20
943.605900
  0
VERTEX
  8
C18
  10
829.428700
  20
944.502600
  0
VERTEX
  8
C18
  10
829.935000
  20
945.402900
  0
VERTEX
  8
C18
  10
830.427800
  20
946.306500
  0
VERTEX
  8
C18
  10
830.905300
  20
947.213000
  0
VERTEX
  8
C18
  10
831.365700
  20
948.122100
  0
VERTEX
  8
C18
  10
831.807300
  20
949.033300
  0
VERTEX
  8
C18
  10
832.228300
  20
949.946300
  0
VERTEX
  8
C18
  10
832.627000
  20
950.860700
  0
VERTEX
  8
C18
  10
833.001600
  20
951.776200
  0
VERTEX
  8
C18
  10
833.350400
  20
952.692300
  0
VERTEX
  8
C18
  10
833.671600
  20
953.608700
  0
VERTEX
  8
C18
  10
833.963400
  20
954.525000
  0
VERTEX
  8
C18
  10
834.224200
  20
955.440800
  0
VERTEX
  8
C18
  10
834.452100
  20
956.355800
  0
VERTEX
  8
C18
  10
834.645400
  20
957.269600
  0
VERTEX
  8
C18
  10
834.802300
  20
958.181800
  0
VERTEX
  8
C18
  10
834.921000
  20
959.092000
  0
VERTEX
  8
C18
  10
835.000000
  20
960.000000
  0
VERTEX
  8
C18
  10
438.000000
  20
960.000000
  0
VERTEX
  8
C18
  10
318.000000
  20
959.999207
  0
VERTEX
  8
C18
  10
317.118600
  20
959.990500
  0
VERTEX
  8
C18
  10
316.223200
  20
959.970500
  0
VERTEX
  8
C18
  10
315.314300
  20
959.939800
  0
VERTEX
  8
C18
  10
314.392500
  20
959.899200
  0
VERTEX
  8
C18
  10
313.458600
  20
959.849300
  0
VERTEX
  8
C18
  10
312.513000
  20
959.790800
  0
VERTEX
  8
C18
  10
311.556400
  20
959.724300
  0
VERTEX
  8
C18
  10
310.589500
  20
959.650500
  0
VERTEX
  8
C18
  10
309.612800
  20
959.570000
  0
VERTEX
  8
C18
  10
308.627100
  20
959.483600
  0
VERTEX
  8
C18
  10
307.632800
  20
959.391800
  0
VERTEX
  8
C18
  10
306.630600
  20
959.295400
  0
VERTEX
  8
C18
  10
305.621100
  20
959.195000
  0
VERTEX
  8
C18
  10
304.605000
  20
959.091300
  0
VERTEX
  8
C18
  10
303.582900
  20
958.985000
  0
VERTEX
  8
C18
  10
302.555400
  20
958.876600
  0
VERTEX
  8
C18
  10
301.523100
  20
958.767000
  0
VERTEX
  8
C18
  10
300.486600
  20
958.656600
  0
VERTEX
  8
C18
  10
299.446600
  20
958.546300
  0
VERTEX
  8
C18
  10
298.403600
  20
958.436700
  0
VERTEX
  8
C18
  10
297.358300
  20
958.328400
  0
VERTEX
  8
C18
  10
296.311400
  20
958.222100
  0
VERTEX
  8
C18
  10
295.263300
  20
958.118400
  0
VERTEX
  8
C18
  10
294.214900
  20
958.018100
  0
VERTEX
  8
C18
  10
293.166500
  20
957.921800
  0
VERTEX
  8
C18
  10
292.119000
  20
957.830200
  0
VERTEX
  8
C18
  10
291.072900
  20
957.743900
  0
VERTEX
  8
C18
  10
290.028800
  20
957.663600
  0
VERTEX
  8
C18
  10
288.987400
  20
957.589900
  0
VERTEX
  8
C18
  10
287.949200
  20
957.523600
  0
VERTEX
  8
C18
  10
286.914900
  20
957.465200
  0
VERTEX
  8
C18
  10
285.885200
  20
957.415500
  0
VERTEX
  8
C18
  10
284.860500
  20
957.375100
  0
VERTEX
  8
C18
  10
283.841600
  20
957.344700
  0
VERTEX
  8
C18
  10
282.829100
  20
957.325000
  0
VERTEX
  8
C18
  10
281.823500
  20
957.316600
  0
VERTEX
  8
C18
  10
280.825600
  20
957.320100
  0
VERTEX
  8
C18
  10
279.835900
  20
957.336300
  0
VERTEX
  8
C18
  10
278.855000
  20
957.365800
  0
VERTEX
  8
C18
  10
277.883600
  20
957.409300
  0
VERTEX
  8
C18
  10
276.922300
  20
957.467400
  0
VERTEX
  8
C18
  10
275.971600
  20
957.540800
  0
VERTEX
  8
C18
  10
275.032300
  20
957.630200
  0
VERTEX
  8
C18
  10
274.105000
  20
957.736200
  0
VERTEX
  8
C18
  10
273.190200
  20
957.859500
  0
VERTEX
  8
C18
  10
272.288600
  20
958.000800
  0
VERTEX
  8
C18
  10
271.400800
  20
958.160700
  0
VERTEX
  8
C18
  10
270.527400
  20
958.339900
  0
VERTEX
  8
C18
  10
269.669000
  20
958.539100
  0
VERTEX
  8
C18
  10
268.826400
  20
958.758900
  0
VERTEX
  8
C18
  10
268.000000
  20
959.000000
  0
SEQEND
  8
C18
  0
POLYLINE
  8
C18
  66
1
  10
264.000000
  20
958.000000
  0
VERTEX
  8
C18
  10
264.000000
  20
958.000000
  0
VERTEX
  8
C18
  10
265.000000
  20
957.000000
  0
VERTEX
  8
C18
  10
264.000000
  20
958.000000
  0
SEQEND
  8
C18
  0
POLYLINE
  8
C18
  66
1
  10
266.000000
  20
958.000000
  0
VERTEX
  8
C18
  10
266.000000
  20
958.000000
  0
VERTEX
  8
C18
  10
268.000000
  20
956.000000
  0
VERTEX
  8
C18
  10
266.000000
  20
958.000000
  0
SEQEND
  8
C7
  0
POLYLINE
  8
C7
  66
1
  10
272.000000
  20
958.000000
  0
VERTEX
  8
C7
  10
272.000000
  20
958.000000
  0
VERTEX
  8
C7
  10
269.000000
  20
953.000000
  0
VERTEX
  8
C7
  10
273.000000
  20
952.000000
  0
VERTEX
  8
C7
  10
273.000000
  20
954.000000
  0
VERTEX
  8
C7
  10
276.000000
  20
950.000000
  0
VERTEX
  8
C7
  10
272.000000
  20
958.000000
  0
SEQEND
  8
C7
  0
POLYLINE
  8
C7
  66
1
  10
274.000000
  20
958.000000
  0
VERTEX
  8
C7
  10
274.000000
  20
958.000000
  0
VERTEX
  8
C7
  10
276.000000
  20
955.000000
  0
VERTEX
  8
C7
  10
274.000000
  20
958.000000
  0
SEQEND
  8
C7
  0
POLYLINE
  8
C7
  66
1
  10
276.000000
  20
958.000000
  0
VERTEX
  8
C7
  10
276.000000
  20
958.000000
  0
VERTEX
  8
C7
  10
279.000000
  20
956.000000
  0
VERTEX
  8
C7
  10
276.000000
  20
958.000000
  0
SEQEND
  8
C7
  0
POLYLINE
  8
C7
  66
1
  10
280.000000
  20
958.000000
  0
VERTEX
  8
C7
  10
280.000000
  20
958.000000
  0
VERTEX
  8
C7
  10
281.000000
  20
957.000000
  0
VERTEX
  8
C7
  10
280.000000
  20
958.000000
  0
SEQEND
  8
C7
  0
POLYLINE
  8
C7
  66
1
  10
280.000000
  20
956.000000
  0
VERTEX
  8
C7
  10
280.000000
  20
956.000000
  0
VERTEX
  8
C7
  10
281.000000
  20
955.000000
  0
VERTEX
  8
C7
  10
280.000000
  20
956.000000
  0
SEQEND
  8
C18
  0
POLYLINE
  8
C18
  66
1
  10
263.000000
  20
955.000000
  0
VERTEX
  8
C18
  10
263.000000
  20
955.000000
  0
VERTEX
  8
C18
  10
264.000000
  20
954.000000
  0
VERTEX
  8
C18
  10
263.000000
  20
955.000000
  0
SEQEND
  8
C18
  0
POLYLINE
  8
C18
  66
1
  10
265.000000
  20
955.000000
  0
VERTEX
  8
C18
  10
265.000000
  20
955.000000
  0
VERTEX
  8
C18
  10
266.000000
  20
954.000000
  0
VERTEX
  8
C18
  10
265.000000
  20
955.000000
  0
SEQEND
  8
C18
  0
POLYLINE
  8
C18
  66
1
  10
271.000000
  20
955.000000
  0
VERTEX
  8
C18
  10
271.000000
  20
955.000000
  0
VERTEX
  8
C18
  10
272.000000
  20
954.000000
  0
VERTEX
  8
C18
  10
271.000000
  20
955.000000
  0
SEQEND
  8
C7
  0
POLYLINE
  8
C7
  66
1
  10
278.000000
  20
955.000000
  0
VERTEX
  8
C7
  10
278.000000
  20
955.000000
  0
VERTEX
  8
C7
  10
279.000000
  20
954.000000
  0
VERTEX
  8
C7
  10
278.000000
  20
955.000000
  0
SEQEND
  8
C7
  0
POLYLINE
  8
C7
  66
1
  10
276.000000
  20
954.000000
  0
VERTEX
  8
C7
  10
276.000000
  20
954.000000
  0
VERTEX
  8
C7
  10
278.000000
  20
951.000000
  0
VERTEX
  8
C7
  10
276.000000
  20
954.000000
  0
SEQEND
  8
C18
  0
POLYLINE
  8
C18
  66
1
  10
265.000000
  20
953.000000
  0
VERTEX
  8
C18
  10
265.000000
  20
953.000000
  0
VERTEX
  8
C18
  10
266.000000
  20
952.000000
  0
VERTEX
  8
C18
  10
265.000000
  20
953.000000
  0
SEQEND
  8
C7
  0
POLYLINE
  8
C7
  66
1
  10
280.000000
  20
953.000000
  0
VERTEX
  8
C7
  10
280.000000
  20
953.000000
  0
VERTEX
  8
C7
  10
281.000000
  20
952.000000
  0
VERTEX
  8
C7
  10
280.000000
  20
953.000000
  0
SEQEND
  8
C18
  0
POLYLINE
  8
C18
  66
1
  10
264.000000
  20
951.000000
  0
VERTEX
  8
C18
  10
264.000000
  20
951.000000
  0
VERTEX
  8
C18
  10
265.000000
  20
950.000000
  0
VERTEX
  8
C18
  10
264.000000
  20
951.000000
  0
SEQEND
  8
C7
  0
POLYLINE
  8
C7
  66
1
  10
268.000000
  20
950.000000
  0
VERTEX
  8
C7
  10
268.000000
  20
950.000000
  0
VERTEX
  8
C7
  10
268.471200
  20
949.049500
  0
VERTEX
  8
C7
  10
268.906800
  20
948.105900
  0
VERTEX
  8
C7
  10
269.305800
  20
947.167900
  0
VERTEX
  8
C7
  10
269.667400
  20
946.234500
  0
VERTEX
  8
C7
  10
269.990600
  20
945.304400
  0
VERTEX
  8
C7
  10
270.274700
  20
944.376500
  0
VERTEX
  8
C7
  10
270.518700
  20
943.449800
  0
VERTEX
  8
C7
  10
270.721700
  20
942.523000
  0
VERTEX
  8
C7
  10
270.882900
  20
941.595000
  0
VERTEX
  8
C7
  10
271.001400
  20
940.664700
  0
VERTEX
  8
C7
  10
271.076300
  20
939.730900
  0
VERTEX
  8
C7
  10
271.106700
  20
938.792600
  0
VERTEX
  8
C7
  10
271.091700
  20
937.848500
  0
VERTEX
  8
C7
  10
271.030500
  20
936.897600
  0
VERTEX
  8
C7
  10
270.922100
  20
935.938600
  0
VERTEX
  8
C7
  10
270.765800
  20
934.970500
  0
VERTEX
  8
C7
  10
270.560600
  20
933.992100
  0
VERTEX
  8
C7
  10
270.305600
  20
933.002300
  0
VERTEX
  8
C7
  10
270.000000
  20
932.000000
  0
VERTEX
  8
C7
  10
274.000000
  20
931.000000
  0
VERTEX
  8
C7
  10
271.000000
  20
934.000000
  0
VERTEX
  8
C7
  10
277.000000
  20
930.000000
  0
VERTEX
  8
C7
  10
274.000000
  20
939.000000
  0
VERTEX
  8
C7
  10
277.000000
  20
937.000000
  0
VERTEX
  8
C7
  10
273.000000
  20
939.000000
  0
VERTEX
  8
C7
  10
272.956600
  20
939.832200
  0
VERTEX
  8
C7
  10
272.972500
  20
940.703300
  0
VERTEX
  8
C7
  10
273.062600
  20
941.555000
  0
VERTEX
  8
C7
  10
273.242000
  20
942.329200
  0
VERTEX
  8
C7
  10
273.525500
  20
942.967500
  0
VERTEX
  8
C7
  10
273.928100
  20
943.412000
  0
VERTEX
  8
C7
  10
274.464700
  20
943.604300
  0
VERTEX
  8
C7
  10
275.150300
  20
943.486400
  0
VERTEX
  8
C7
  10
276.000000
  20
943.000000
  0
VERTEX
  8
C7
  10
274.000000
  20
950.000000
  0
VERTEX
  8
C7
  10
273.000000
  20
951.000000
  0
VERTEX
  8
C7
  10
268.000000
  20
950.000000
  0
SEQEND
  8
C7
  0
POLYLINE
  8
C7
  66
1
  10
279.000000
  20
951.000000
  0
VERTEX
  8
C7
  10
279.000000
  20
951.000000
  0
VERTEX
  8
C7
  10
280.000000
  20
950.000000
  0
VERTEX
  8
C7
  10
279.000000
  20
951.000000
  0
SEQEND
  8
C7
  0
POLYLINE
  8
C7
  66
1
  10
281.000000
  20
951.000000
  0
VERTEX
  8
C7
  10
281.000000
  20
951.000000
  0
VERTEX
  8
C7
  10
282.000000
  20
950.000000
  0
VERTEX
  8
C7
  10
281.000000
  20
951.000000
  0
SEQEND
  8
C18
  0
POLYLINE
  8
C18
  66
1
  10
262.000000
  20
950.000000
  0
VERTEX
  8
C18
  10
262.000000
  20
950.000000
  0
VERTEX
  8
C18
  10
263.000000
  20
949.000000
  0
VERTEX
  8
C18
  10
262.000000
  20
950.000000
  0
SEQEND
  8
C18
  0
POLYLINE
  8
C18
  66
1
  10
270.000000
  20
949.000000
  0
VERTEX
  8
C18
  10
270.000000
  20
949.000000
  0
VERTEX
  8
C18
  10
271.000000
  20
942.000000
  0
VERTEX
  8
C18
  10
273.000000
  20
950.000000
  0
VERTEX
  8
C18
  10
270.000000
  20
949.000000
  0
SEQEND
  8
C7
  0
POLYLINE
  8
C7
  66
1
  10
277.000000
  20
950.000000
  0
VERTEX
  8
C7
  10
277.000000
  20
950.000000
  0
VERTEX
  8
C7
  10
278.000000
  20
949.000000
  0
VERTEX
  8
C7
  10
277.000000
  20
950.000000
  0
SEQEND
  8
C7
  0
POLYLINE
  8
C7
  66
1
  10
271.000000
  20
949.000000
  0
VERTEX
  8
C7
  10
271.000000
  20
949.000000
  0
VERTEX
  8
C7
  10
272.000000
  20
948.000000
  0
VERTEX
  8
C7
  10
271.000000
  20
949.000000
  0
SEQEND
  8
C7
  0
POLYLINE
  8
C7
  66
1
  10
275.000000
  20
949.000000
  0
VERTEX
  8
C7
  10
275.000000
  20
949.000000
  0
VERTEX
  8
C7
  10
277.000000
  20
946.000000
  0
VERTEX
  8
C7
  10
275.000000
  20
949.000000
  0
SEQEND
  8
C18
  0
POLYLINE
  8
C18
  66
1
  10
264.000000
  20
948.000000
  0
VERTEX
  8
C18
  10
264.000000
  20
948.000000
  0
VERTEX
  8
C18
  10
265.000000
  20
947.000000
  0
VERTEX
  8
C18
  10
264.000000
  20
948.000000
  0
SEQEND
  8
C7
  0
POLYLINE
  8
C7
  66
1
  10
278.000000
  20
948.000000
  0
VERTEX
  8
C7
  10
278.000000
  20
948.000000
  0
VERTEX
  8
C7
  10
279.000000
  20
947.000000
  0
VERTEX
  8
C7
  10
278.000000
  20
948.000000
  0
SEQEND
  8
C7
  0
POLYLINE
  8
C7
  66
1
  10
280.000000
  20
948.000000
  0
VERTEX
  8
C7
  10
280.000000
  20
948.000000
  0
VERTEX
  8
C7
  10
281.000000
  20
947.000000
  0
VERTEX
  8
C7
  10
280.000000
  20
948.000000
  0
SEQEND
  8
C18
  0
POLYLINE
  8
C18
  66
1
  10
266.000000
  20
947.000000
  0
VERTEX
  8
C18
  10
266.000000
  20
947.000000
  0
VERTEX
  8
C18
  10
268.000000
  20
945.000000
  0
VERTEX
  8
C18
  10
266.000000
  20
947.000000
  0
SEQEND
  8
C18
  0
POLYLINE
  8
C18
  66
1
  10
263.000000
  20
946.000000
  0
VERTEX
  8
C18
  10
263.000000
  20
946.000000
  0
VERTEX
  8
C18
  10
264.000000
  20
945.000000
  0
VERTEX
  8
C18
  10
263.000000
  20
946.000000
  0
SEQEND
  8
C7
  0
POLYLINE
  8
C7
  66
1
  10
278.000000
  20
946.000000
  0
VERTEX
  8
C7
  10
278.000000
  20
946.000000
  0
VERTEX
  8
C7
  10
279.000000
  20
945.000000
  0
VERTEX
  8
C7
  10
278.000000
  20
946.000000
  0
SEQEND
  8
C7
  0
POLYLINE
  8
C7
  66
1
  10
282.000000
  20
946.000000
  0
VERTEX
  8
C7
  10
282.000000
  20
946.000000
  0
VERTEX
  8
C7
  10
283.000000
  20
945.000000
  0
VERTEX
  8
C7
  10
282.000000
  20
946.000000
  0
SEQEND
  8
C18
  0
POLYLINE
  8
C18
  66
1
  10
265.000000
  20
945.000000
  0
VERTEX
  8
C18
  10
265.000000
  20
945.000000
  0
VERTEX
  8
C18
  10
267.000000
  20
941.000000
  0
VERTEX
  8
C18
  10
265.000000
  20
945.000000
  0
SEQEND
  8
C7
  0
POLYLINE
  8
C7
  66
1
  10
277.000000
  20
944.000000
  0
VERTEX
  8
C7
  10
277.000000
  20
944.000000
  0
VERTEX
  8
C7
  10
278.000000
  20
943.000000
  0
VERTEX
  8
C7
  10
277.000000
  20
944.000000
  0
SEQEND
  8
C7
  0
POLYLINE
  8
C7
  66
1
  10
282.000000
  20
944.000000
  0
VERTEX
  8
C7
  10
282.000000
  20
944.000000
  0
VERTEX
  8
C7
  10
283.000000
  20
943.000000
  0
VERTEX
  8
C7
  10
282.000000
  20
944.000000
  0
SEQEND
  8
C7
  0
POLYLINE
  8
C7
  66
1
  10
279.000000
  20
943.000000
  0
VERTEX
  8
C7
  10
279.000000
  20
943.000000
  0
VERTEX
  8
C7
  10
280.000000
  20
942.000000
  0
VERTEX
  8
C7
  10
279.000000
  20
943.000000
  0
SEQEND
  8
C7
  0
POLYLINE
  8
C7
  66
1
  10
274.666656
  20
941.666687
  0
VERTEX
  8
C7
  10
274.666656
  20
941.666687
  0
VERTEX
  8
C7
  10
275.333344
  20
941.333313
  0
VERTEX
  8
C7
  10
274.666656
  20
941.666687
  0
SEQEND
  8
C7
  0
POLYLINE
  8
C7
  66
1
  10
277.333344
  20
941.333313
  0
VERTEX
  8
C7
  10
277.333344
  20
941.333313
  0
VERTEX
  8
C7
  10
277.666656
  20
940.666687
  0
VERTEX
  8
C7
  10
277.333344
  20
941.333313
  0
SEQEND
  8
C18
  0
POLYLINE
  8
C18
  66
1
  10
262.000000
  20
941.000000
  0
VERTEX
  8
C18
  10
262.000000
  20
941.000000
  0
VERTEX
  8
C18
  10
263.000000
  20
940.000000
  0
VERTEX
  8
C18
  10
262.000000
  20
941.000000
  0
SEQEND
  8
C7
  0
POLYLINE
  8
C7
  66
1
  10
279.000000
  20
941.000000
  0
VERTEX
  8
C7
  10
279.000000
  20
941.000000
  0
VERTEX
  8
C7
  10
281.000000
  20
939.000000
  0
VERTEX
  8
C7
  10
279.000000
  20
941.000000
  0
SEQEND
  8
C18
  0
POLYLINE
  8
C18
  66
1
  10
264.000000
  20
940.000000
  0
VERTEX
  8
C18
  10
264.000000
  20
940.000000
  0
VERTEX
  8
C18
  10
265.000000
  20
939.000000
  0
VERTEX
  8
C18
  10
264.000000
  20
940.000000
  0
SEQEND
  8
C7
  0
POLYLINE
  8
C7
  66
1
  10
278.000000
  20
939.000000
  0
VERTEX
  8
C7
  10
278.000000
  20
939.000000
  0
VERTEX
  8
C7
  10
279.000000
  20
938.000000
  0
VERTEX
  8
C7
  10
278.000000
  20
939.000000
  0
SEQEND
  8
C18
  0
POLYLINE
  8
C18
  66
1
  10
264.000000
  20
938.000000
  0
VERTEX
  8
C18
  10
264.000000
  20
938.000000
  0
VERTEX
  8
C18
  10
266.000000
  20
935.000000
  0
VERTEX
  8
C18
  10
264.000000
  20
938.000000
  0
SEQEND
  8
C7
  0
POLYLINE
  8
C7
  66
1
  10
280.000000
  20
938.000000
  0
VERTEX
  8
C7
  10
280.000000
  20
938.000000
  0
VERTEX
  8
C7
  10
281.000000
  20
937.000000
  0
VERTEX
  8
C7
  10
280.000000
  20
938.000000
  0
SEQEND
  8
C18
  0
POLYLINE
  8
C18
  66
1
  10
267.000000
  20
937.000000
  0
VERTEX
  8
C18
  10
267.000000
  20
937.000000
  0
VERTEX
  8
C18
  10
268.000000
  20
936.000000
  0
VERTEX
  8
C18
  10
267.000000
  20
937.000000
  0
SEQEND
  8
C7
  0
POLYLINE
  8
C7
  66
1
  10
274.000000
  20
937.000000
  0
VERTEX
  8
C7
  10
274.000000
  20
937.000000
  0
VERTEX
  8
C7
  10
278.000000
  20
936.000000
  0
VERTEX
  8
C7
  10
274.000000
  20
937.000000
  0
SEQEND
  8
C7
  0
POLYLINE
  8
C7
  66
1
  10
280.000000
  20
936.000000
  0
VERTEX
  8
C7
  10
280.000000
  20
936.000000
  0
VERTEX
  8
C7
  10
281.000000
  20
935.000000
  0
VERTEX
  8
C7
  10
280.000000
  20
936.000000
  0
SEQEND
  8
C7
  0
POLYLINE
  8
C7
  66
1
  10
282.000000
  20
935.000000
  0
VERTEX
  8
C7
  10
282.000000
  20
935.000000
  0
VERTEX
  8
C7
  10
283.000000
  20
934.000000
  0
VERTEX
  8
C7
  10
282.000000
  20
935.000000
  0
SEQEND
  8
C7
  0
POLYLINE
  8
C7
  66
1
  10
278.000000
  20
934.000000
  0
VERTEX
  8
C7
  10
278.000000
  20
934.000000
  0
VERTEX
  8
C7
  10
280.000000
  20
932.000000
  0
VERTEX
  8
C7
  10
278.000000
  20
934.000000
  0
SEQEND
  8
C18
  0
POLYLINE
  8
C18
  66
1
  10
264.000000
  20
933.000000
  0
VERTEX
  8
C18
  10
264.000000
  20
933.000000
  0
VERTEX
  8
C18
  10
266.000000
  20
931.000000
  0
VERTEX
  8
C18
  10
264.000000
  20
933.000000
  0
SEQEND
  8
C18
  0
POLYLINE
  8
C18
  66
1
  10
261.000000
  20
932.000000
  0
VERTEX
  8
C18
  10
261.000000
  20
932.000000
  0
VERTEX
  8
C18
  10
262.000000
  20
931.000000
  0
VERTEX
  8
C18
  10
261.000000
  20
932.000000
  0
SEQEND
  8
C7
  0
POLYLINE
  8
C7
  66
1
  10
281.000000
  20
932.000000
  0
VERTEX
  8
C7
  10
281.000000
  20
932.000000
  0
VERTEX
  8
C7
  10
282.000000
  20
931.000000
  0
VERTEX
  8
C7
  10
281.000000
  20
932.000000
  0
SEQEND
  8
C18
  0
POLYLINE
  8
C18
  66
1
  10
267.000000
  20
931.000000
  0
VERTEX
  8
C18
  10
267.000000
  20
931.000000
  0
VERTEX
  8
C18
  10
268.000000
  20
930.000000
  0
VERTEX
  8
C18
  10
267.000000
  20
931.000000
  0
SEQEND
  8
C7
  0
POLYLINE
  8
C7
  66
1
  10
279.000000
  20
931.000000
  0
VERTEX
  8
C7
  10
279.000000
  20
931.000000
  0
VERTEX
  8
C7
  10
280.000000
  20
930.000000
  0
VERTEX
  8
C7
  10
279.000000
  20
931.000000
  0
SEQEND
  8
C18
  0
POLYLINE
  8
C18
  66
1
  10
264.000000
  20
930.000000
  0
VERTEX
  8
C18
  10
264.000000
  20
930.000000
  0
VERTEX
  8
C18
  10
265.000000
  20
929.000000
  0
VERTEX
  8
C18
  10
264.000000
  20
930.000000
  0
SEQEND
  8
C7
  0
POLYLINE
  8
C7
  66
1
  10
273.000000
  20
930.000000
  0
VERTEX
  8
C7
  10
273.000000
  20
930.000000
  0
VERTEX
  8
C7
  10
276.000000
  20
928.000000
  0
VERTEX
  8
C7
  10
273.000000
  20
930.000000
  0
SEQEND
  8
C18
  0
POLYLINE
  8
C18
  66
1
  10
266.000000
  20
929.000000
  0
VERTEX
  8
C18
  10
266.000000
  20
929.000000
  0
VERTEX
  8
C18
  10
267.000000
  20
928.000000
  0
VERTEX
  8
C18
  10
266.000000
  20
929.000000
  0
SEQEND
  8
C7
  0
POLYLINE
  8
C7
  66
1
  10
277.000000
  20
929.000000
  0
VERTEX
  8
C7
  10
277.000000
  20
929.000000
  0
VERTEX
  8
C7
  10
277.000000
  20
926.000000
  0
VERTEX
  8
C7
  10
277.000000
  20
929.000000
  0
SEQEND
  8
C18
  0
POLYLINE
  8
C18
  66
1
  10
264.000000
  20
928.000000
  0
VERTEX
  8
C18
  10
264.000000
  20
928.000000
  0
VERTEX
  8
C18
  10
265.000000
  20
927.000000
  0
VERTEX
  8
C18
  10
264.000000
  20
928.000000
  0
SEQEND
  8
C7
  0
POLYLINE
  8
C7
  66
1
  10
276.000000
  20
915.000000
  0
VERTEX
  8
C7
  10
276.000000
  20
915.000000
  0
VERTEX
  8
C7
  10
272.000000
  20
914.000000
  0
VERTEX
  8
C7
  10
275.000000
  20
916.000000
  0
VERTEX
  8
C7
  10
277.000000
  20
918.000000
  0
VERTEX
  8
C7
  10
274.000000
  20
919.000000
  0
VERTEX
  8
C7
  10
272.000000
  20
926.000000
  0
VERTEX
  8
C7
  10
275.000000
  20
923.000000
  0
VERTEX
  8
C7
  10
276.000000
  20
927.000000
  0
VERTEX
  8
C7
  10
275.306500
  20
926.920100
  0
VERTEX
  8
C7
  10
274.662500
  20
926.751500
  0
VERTEX
  8
C7
  10
274.067700
  20
926.501300
  0
VERTEX
  8
C7
  10
273.521700
  20
926.176400
  0
VERTEX
  8
C7
  10
273.024200
  20
925.784000
  0
VERTEX
  8
C7
  10
272.574800
  20
925.331100
  0
VERTEX
  8
C7
  10
272.173200
  20
924.824800
  0
VERTEX
  8
C7
  10
271.819000
  20
924.272100
  0
VERTEX
  8
C7
  10
271.512000
  20
923.680100
  0
VERTEX
  8
C7
  10
271.251800
  20
923.055800
  0
VERTEX
  8
C7
  10
271.038100
  20
922.406400
  0
VERTEX
  8
C7
  10
270.870400
  20
921.738800
  0
VERTEX
  8
C7
  10
270.748600
  20
921.060200
  0
VERTEX
  8
C7
  10
270.672100
  20
920.377500
  0
VERTEX
  8
C7
  10
270.640800
  20
919.697900
  0
VERTEX
  8
C7
  10
270.654300
  20
919.028400
  0
VERTEX
  8
C7
  10
270.712200
  20
918.376100
  0
VERTEX
  8
C7
  10
270.814200
  20
917.748000
  0
VERTEX
  8
C7
  10
270.960000
  20
917.151200
  0
VERTEX
  8
C7
  10
271.149100
  20
916.592700
  0
VERTEX
  8
C7
  10
271.381400
  20
916.079700
  0
VERTEX
  8
C7
  10
271.656400
  20
915.619100
  0
VERTEX
  8
C7
  10
271.973900
  20
915.218100
  0
VERTEX
  8
C7
  10
272.333400
  20
914.883600
  0
VERTEX
  8
C7
  10
272.734700
  20
914.622800
  0
VERTEX
  8
C7
  10
273.177300
  20
914.442700
  0
VERTEX
  8
C7
  10
273.661100
  20
914.350400
  0
VERTEX
  8
C7
  10
274.185500
  20
914.352900
  0
VERTEX
  8
C7
  10
274.750400
  20
914.457300
  0
VERTEX
  8
C7
  10
275.355300
  20
914.670600
  0
VERTEX
  8
C7
  10
276.000000
  20
915.000000
  0
SEQEND
  8
C7
  0
POLYLINE
  8
C7
  66
1
  10
280.000000
  20
928.000000
  0
VERTEX
  8
C7
  10
280.000000
  20
928.000000
  0
VERTEX
  8
C7
  10
281.000000
  20
927.000000
  0
VERTEX
  8
C7
  10
280.000000
  20
928.000000
  0
SEQEND
  8
C18
  0
POLYLINE
  8
C18
  66
1
  10
266.000000
  20
927.000000
  0
VERTEX
  8
C18
  10
266.000000
  20
927.000000
  0
VERTEX
  8
C18
  10
268.000000
  20
925.000000
  0
VERTEX
  8
C18
  10
266.000000
  20
927.000000
  0
SEQEND
  8
C18
  0
POLYLINE
  8
C18
  66
1
  10
273.000000
  20
927.000000
  0
VERTEX
  8
C18
  10
273.000000
  20
927.000000
  0
VERTEX
  8
C18
  10
274.000000
  20
926.000000
  0
VERTEX
  8
C18
  10
273.000000
  20
927.000000
  0
SEQEND
  8
C7
  0
POLYLINE
  8
C7
  66
1
  10
280.000000
  20
926.000000
  0
VERTEX
  8
C7
  10
280.000000
  20
926.000000
  0
VERTEX
  8
C7
  10
281.000000
  20
925.000000
  0
VERTEX
  8
C7
  10
280.000000
  20
926.000000
  0
SEQEND
  8
C7
  0
POLYLINE
  8
C7
  66
1
  10
276.000000
  20
925.000000
  0
VERTEX
  8
C7
  10
276.000000
  20
925.000000
  0
VERTEX
  8
C7
  10
278.000000
  20
922.000000
  0
VERTEX
  8
C7
  10
276.000000
  20
925.000000
  0
SEQEND
  8
C7
  0
POLYLINE
  8
C7
  66
1
  10
282.000000
  20
925.000000
  0
VERTEX
  8
C7
  10
282.000000
  20
925.000000
  0
VERTEX
  8
C7
  10
283.000000
  20
924.000000
  0
VERTEX
  8
C7
  10
282.000000
  20
925.000000
  0
SEQEND
  8
C18
  0
POLYLINE
  8
C18
  66
1
  10
264.000000
  20
924.000000
  0
VERTEX
  8
C18
  10
264.000000
  20
924.000000
  0
VERTEX
  8
C18
  10
265.000000
  20
923.000000
  0
VERTEX
  8
C18
  10
264.000000
  20
924.000000
  0
SEQEND
  8
C7
  0
POLYLINE
  8
C7
  66
1
  10
280.000000
  20
924.000000
  0
VERTEX
  8
C7
  10
280.000000
  20
924.000000
  0
VERTEX
  8
C7
  10
281.000000
  20
923.000000
  0
VERTEX
  8
C7
  10
280.000000
  20
924.000000
  0
SEQEND
  8
C18
  0
POLYLINE
  8
C18
  66
1
  10
263.000000
  20
922.000000
  0
VERTEX
  8
C18
  10
263.000000
  20
922.000000
  0
VERTEX
  8
C18
  10
264.000000
  20
921.000000
  0
VERTEX
  8
C18
  10
263.000000
  20
922.000000
  0
SEQEND
  8
C18
  0
POLYLINE
  8
C18
  66
1
  10
265.000000
  20
922.000000
  0
VERTEX
  8
C18
  10
265.000000
  20
922.000000
  0
VERTEX
  8
C18
  10
266.000000
  20
921.000000
  0
VERTEX
  8
C18
  10
265.000000
  20
922.000000
  0
SEQEND
  8
C7
  0
POLYLINE
  8
C7
  66
1
  10
274.666656
  20
921.666687
  0
VERTEX
  8
C7
  10
274.666656
  20
921.666687
  0
VERTEX
  8
C7
  10
275.333344
  20
921.333313
  0
VERTEX
  8
C7
  10
274.666656
  20
921.666687
  0
SEQEND
  8
C7
  0
POLYLINE
  8
C7
  66
1
  10
277.000000
  20
921.000000
  0
VERTEX
  8
C7
  10
277.000000
  20
921.000000
  0
VERTEX
  8
C7
  10
279.000000
  20
919.000000
  0
VERTEX
  8
C7
  10
277.000000
  20
921.000000
  0
SEQEND
  8
C7
  0
POLYLINE
  8
C7
  66
1
  10
280.000000
  20
921.000000
  0
VERTEX
  8
C7
  10
280.000000
  20
921.000000
  0
VERTEX
  8
C7
  10
281.000000
  20
920.000000
  0
VERTEX
  8
C7
  10
280.000000
  20
921.000000
  0
SEQEND
  8
C18
  0
POLYLINE
  8
C18
  66
1
  10
264.000000
  20
920.000000
  0
VERTEX
  8
C18
  10
264.000000
  20
920.000000
  0
VERTEX
  8
C18
  10
265.000000
  20
919.000000
  0
VERTEX
  8
C18
  10
264.000000
  20
920.000000
  0
SEQEND
  8
C18
  0
POLYLINE
  8
C18
  66
1
  10
272.000000
  20
920.000000
  0
VERTEX
  8
C18
  10
272.000000
  20
920.000000
  0
VERTEX
  8
C18
  10
271.000000
  20
915.000000
  0
VERTEX
  8
C18
  10
272.000000
  20
920.000000
  0
SEQEND
  8
C7
  0
POLYLINE
  8
C7
  66
1
  10
281.000000
  20
919.000000
  0
VERTEX
  8
C7
  10
281.000000
  20
919.000000
  0
VERTEX
  8
C7
  10
282.000000
  20
918.000000
  0
VERTEX
  8
C7
  10
281.000000
  20
919.000000
  0
SEQEND
  8
C18
  0
POLYLINE
  8
C18
  66
1
  10
262.000000
  20
918.000000
  0
VERTEX
  8
C18
  10
262.000000
  20
918.000000
  0
VERTEX
  8
C18
  10
263.000000
  20
917.000000
  0
VERTEX
  8
C18
  10
262.000000
  20
918.000000
  0
SEQEND
  8
C18
  0
POLYLINE
  8
C18
  66
1
  10
266.000000
  20
918.000000
  0
VERTEX
  8
C18
  10
266.000000
  20
918.000000
  0
VERTEX
  8
C18
  10
267.000000
  20
917.000000
  0
VERTEX
  8
C18
  10
266.000000
  20
918.000000
  0
SEQEND
  8
C7
  0
POLYLINE
  8
C7
  66
1
  10
279.000000
  20
918.000000
  0
VERTEX
  8
C7
  10
279.000000
  20
918.000000
  0
VERTEX
  8
C7
  10
280.000000
  20
917.000000
  0
VERTEX
  8
C7
  10
279.000000
  20
918.000000
  0
SEQEND
  8
C18
  0
POLYLINE
  8
C18
  66
1
  10
264.000000
  20
917.000000
  0
VERTEX
  8
C18
  10
264.000000
  20
917.000000
  0
VERTEX
  8
C18
  10
265.000000
  20
916.000000
  0
VERTEX
  8
C18
  10
264.000000
  20
917.000000
  0
SEQEND
  8
C7
  0
POLYLINE
  8
C7
  66
1
  10
276.000000
  20
917.000000
  0
VERTEX
  8
C7
  10
276.000000
  20
917.000000
  0
VERTEX
  8
C7
  10
278.000000
  20
915.000000
  0
VERTEX
  8
C7
  10
276.000000
  20
917.000000
  0
SEQEND
  8
C7
  0
POLYLINE
  8
C7
  66
1
  10
282.000000
  20
917.000000
  0
VERTEX
  8
C7
  10
282.000000
  20
917.000000
  0
VERTEX
  8
C7
  10
283.000000
  20
916.000000
  0
VERTEX
  8
C7
  10
282.000000
  20
917.000000
  0
SEQEND
  8
C18
  0
POLYLINE
  8
C18
  66
1
  10
266.000000
  20
916.000000
  0
VERTEX
  8
C18
  10
266.000000
  20
916.000000
  0
VERTEX
  8
C18
  10
267.000000
  20
915.000000
  0
VERTEX
  8
C18
  10
266.000000
  20
916.000000
  0
SEQEND
  8
C18
  0
POLYLINE
  8
C18
  66
1
  10
264.000000
  20
915.000000
  0
VERTEX
  8
C18
  10
264.000000
  20
915.000000
  0
VERTEX
  8
C18
  10
265.000000
  20
914.000000
  0
VERTEX
  8
C18
  10
264.000000
  20
915.000000
  0
SEQEND
  8
C7
  0
POLYLINE
  8
C7
  66
1
  10
279.000000
  20
915.000000
  0
VERTEX
  8
C7
  10
279.000000
  20
915.000000
  0
VERTEX
  8
C7
  10
280.000000
  20
914.000000
  0
VERTEX
  8
C7
  10
279.000000
  20
915.000000
  0
SEQEND
  8
C18
  0
POLYLINE
  8
C18
  66
1
  10
266.000000
  20
914.000000
  0
VERTEX
  8
C18
  10
266.000000
  20
914.000000
  0
VERTEX
  8
C18
  10
269.000000
  20
910.000000
  0
VERTEX
  8
C18
  10
269.000000
  20
913.000000
  0
VERTEX
  8
C18
  10
266.000000
  20
914.000000
  0
SEQEND
  8
C7
  0
POLYLINE
  8
C7
  66
1
  10
277.000000
  20
914.000000
  0
VERTEX
  8
C7
  10
277.000000
  20
914.000000
  0
VERTEX
  8
C7
  10
279.000000
  20
912.000000
  0
VERTEX
  8
C7
  10
277.000000
  20
914.000000
  0
SEQEND
  8
C7
  0
POLYLINE
  8
C7
  66
1
  10
282.000000
  20
914.000000
  0
VERTEX
  8
C7
  10
282.000000
  20
914.000000
  0
VERTEX
  8
C7
  10
283.000000
  20
913.000000
  0
VERTEX
  8
C7
  10
282.000000
  20
914.000000
  0
SEQEND
  8
C7
  0
POLYLINE
  8
C7
  66
1
  10
275.000000
  20
913.000000
  0
VERTEX
  8
C7
  10
275.000000
  20
913.000000
  0
VERTEX
  8
C7
  10
276.000000
  20
909.000000
  0
VERTEX
  8
C7
  10
275.000000
  20
913.000000
  0
SEQEND
  8
C18
  0
POLYLINE
  8
C18
  66
1
  10
263.000000
  20
911.000000
  0
VERTEX
  8
C18
  10
263.000000
  20
911.000000
  0
VERTEX
  8
C18
  10
264.000000
  20
910.000000
  0
VERTEX
  8
C18
  10
263.000000
  20
911.000000
  0
SEQEND
  8
C7
  0
POLYLINE
  8
C7
  66
1
  10
277.000000
  20
911.000000
  0
VERTEX
  8
C7
  10
277.000000
  20
911.000000
  0
VERTEX
  8
C7
  10
279.000000
  20
909.000000
  0
VERTEX
  8
C7
  10
277.000000
  20
911.000000
  0
SEQEND
  8
C7
  0
POLYLINE
  8
C7
  66
1
  10
280.000000
  20
911.000000
  0
VERTEX
  8
C7
  10
280.000000
  20
911.000000
  0
VERTEX
  8
C7
  10
281.000000
  20
910.000000
  0
VERTEX
  8
C7
  10
280.000000
  20
911.000000
  0
SEQEND
  8
C7
  0
POLYLINE
  8
C7
  66
1
  10
282.000000
  20
910.000000
  0
VERTEX
  8
C7
  10
282.000000
  20
910.000000
  0
VERTEX
  8
C7
  10
283.000000
  20
909.000000
  0
VERTEX
  8
C7
  10
282.000000
  20
910.000000
  0
SEQEND
  8
C18
  0
POLYLINE
  8
C18
  66
1
  10
269.000000
  20
909.000000
  0
VERTEX
  8
C18
  10
269.000000
  20
909.000000
  0
VERTEX
  8
C18
  10
270.000000
  20
908.000000
  0
VERTEX
  8
C18
  10
269.000000
  20
909.000000
  0
SEQEND
  8
C7
  0
POLYLINE
  8
C7
  66
1
  10
273.000000
  20
909.000000
  0
VERTEX
  8
C7
  10
273.000000
  20
909.000000
  0
VERTEX
  8
C7
  10
276.000000
  20
907.000000
  0
VERTEX
  8
C7
  10
273.000000
  20
909.000000
  0
SEQEND
  8
C18
  0
POLYLINE
  8
C18
  66
1
  10
264.000000
  20
908.000000
  0
VERTEX
  8
C18
  10
264.000000
  20
908.000000
  0
VERTEX
  8
C18
  10
265.000000
  20
907.000000
  0
VERTEX
  8
C18
  10
264.000000
  20
908.000000
  0
SEQEND
  8
C7
  0
POLYLINE
  8
C7
  66
1
  10
278.000000
  20
908.000000
  0
VERTEX
  8
C7
  10
278.000000
  20
908.000000
  0
VERTEX
  8
C7
  10
277.000000
  20
906.000000
  0
VERTEX
  8
C7
  10
278.000000
  20
908.000000
  0
SEQEND
  8
C7
  0
POLYLINE
  8
C7
  66
1
  10
281.000000
  20
908.000000
  0
VERTEX
  8
C7
  10
281.000000
  20
908.000000
  0
VERTEX
  8
C7
  10
282.000000
  20
907.000000
  0
VERTEX
  8
C7
  10
281.000000
  20
908.000000
  0
SEQEND
  8
C7
  0
POLYLINE
  8
C7
  66
1
  10
272.000000
  20
907.000000
  0
VERTEX
  8
C7
  10
272.000000
  20
907.000000
  0
VERTEX
  8
C7
  10
272.000000
  20
902.000000
  0
VERTEX
  8
C7
  10
274.000000
  20
900.000000
  0
VERTEX
  8
C7
  10
273.325500
  20
899.026400
  0
VERTEX
  8
C7
  10
272.762500
  20
898.149600
  0
VERTEX
  8
C7
  10
272.333700
  20
897.335200
  0
VERTEX
  8
C7
  10
272.061900
  20
896.549000
  0
VERTEX
  8
C7
  10
271.969900
  20
895.756600
  0
VERTEX
  8
C7
  10
272.080400
  20
894.923800
  0
VERTEX
  8
C7
  10
272.416100
  20
894.016300
  0
VERTEX
  8
C7
  10
273.000000
  20
893.000000
  0
VERTEX
  8
C7
  10
272.346400
  20
892.008200
  0
VERTEX
  8
C7
  10
271.828400
  20
891.074600
  0
VERTEX
  8
C7
  10
271.450000
  20
890.194900
  0
VERTEX
  8
C7
  10
271.215200
  20
889.364900
  0
VERTEX
  8
C7
  10
271.128200
  20
888.580200
  0
VERTEX
  8
C7
  10
271.193000
  20
887.836700
  0
VERTEX
  8
C7
  10
271.413800
  20
887.130000
  0
VERTEX
  8
C7
  10
271.794600
  20
886.455900
  0
VERTEX
  8
C7
  10
272.339500
  20
885.810100
  0
VERTEX
  8
C7
  10
273.052700
  20
885.188300
  0
VERTEX
  8
C7
  10
273.938100
  20
884.586400
  0
VERTEX
  8
C7
  10
275.000000
  20
884.000000
  0
VERTEX
  8
C7
  10
271.000000
  20
890.000000
  0
VERTEX
  8
C7
  10
274.000000
  20
889.000000
  0
VERTEX
  8
C7
  10
272.000000
  20
891.000000
  0
VERTEX
  8
C7
  10
276.000000
  20
891.000000
  0
VERTEX
  8
C7
  10
274.000000
  20
895.000000
  0
VERTEX
  8
C7
  10
272.000000
  20
897.000000
  0
VERTEX
  8
C7
  10
275.000000
  20
897.000000
  0
VERTEX
  8
C7
  10
275.000000
  20
893.000000
  0
VERTEX
  8
C7
  10
273.000000
  20
902.000000
  0
VERTEX
  8
C7
  10
274.000000
  20
903.000000
  0
VERTEX
  8
C7
  10
277.000000
  20
900.000000
  0
VERTEX
  8
C7
  10
272.000000
  20
907.000000
  0
SEQEND
  8
C18
  0
POLYLINE
  8
C18
  66
1
  10
265.000000
  20
906.000000
  0
VERTEX
  8
C18
  10
265.000000
  20
906.000000
  0
VERTEX
  8
C18
  10
268.000000
  20
902.000000
  0
VERTEX
  8
C18
  10
265.000000
  20
906.000000
  0
SEQEND
  8
C7
  0
POLYLINE
  8
C7
  66
1
  10
275.000000
  20
906.000000
  0
VERTEX
  8
C7
  10
275.000000
  20
906.000000
  0
VERTEX
  8
C7
  10
277.000000
  20
904.000000
  0
VERTEX
  8
C7
  10
275.000000
  20
906.000000
  0
SEQEND
  8
C7
  0
POLYLINE
  8
C7
  66
1
  10
279.000000
  20
906.000000
  0
VERTEX
  8
C7
  10
279.000000
  20
906.000000
  0
VERTEX
  8
C7
  10
280.000000
  20
905.000000
  0
VERTEX
  8
C7
  10
279.000000
  20
906.000000
  0
SEQEND
  8
C7
  0
POLYLINE
  8
C7
  66
1
  10
281.000000
  20
905.000000
  0
VERTEX
  8
C7
  10
281.000000
  20
905.000000
  0
VERTEX
  8
C7
  10
282.000000
  20
904.000000
  0
VERTEX
  8
C7
  10
281.000000
  20
905.000000
  0
SEQEND
  8
C7
  0
POLYLINE
  8
C7
  66
1
  10
278.000000
  20
904.000000
  0
VERTEX
  8
C7
  10
278.000000
  20
904.000000
  0
VERTEX
  8
C7
  10
279.000000
  20
903.000000
  0
VERTEX
  8
C7
  10
278.000000
  20
904.000000
  0
SEQEND
  8
C18
  0
POLYLINE
  8
C18
  66
1
  10
264.000000
  20
903.000000
  0
VERTEX
  8
C18
  10
264.000000
  20
903.000000
  0
VERTEX
  8
C18
  10
266.000000
  20
901.000000
  0
VERTEX
  8
C18
  10
264.000000
  20
903.000000
  0
SEQEND
  8
C7
  0
POLYLINE
  8
C7
  66
1
  10
281.000000
  20
903.000000
  0
VERTEX
  8
C7
  10
281.000000
  20
903.000000
  0
VERTEX
  8
C7
  10
282.000000
  20
902.000000
  0
VERTEX
  8
C7
  10
281.000000
  20
903.000000
  0
SEQEND
  8
C7
  0
POLYLINE
  8
C7
  66
1
  10
279.000000
  20
902.000000
  0
VERTEX
  8
C7
  10
279.000000
  20
902.000000
  0
VERTEX
  8
C7
  10
280.000000
  20
901.000000
  0
VERTEX
  8
C7
  10
279.000000
  20
902.000000
  0
SEQEND
  8
C18
  0
POLYLINE
  8
C18
  66
1
  10
267.000000
  20
901.000000
  0
VERTEX
  8
C18
  10
267.000000
  20
901.000000
  0
VERTEX
  8
C18
  10
268.000000
  20
900.000000
  0
VERTEX
  8
C18
  10
267.000000
  20
901.000000
  0
SEQEND
  8
C7
  0
POLYLINE
  8
C7
  66
1
  10
282.000000
  20
901.000000
  0
VERTEX
  8
C7
  10
282.000000
  20
901.000000
  0
VERTEX
  8
C7
  10
283.000000
  20
900.000000
  0
VERTEX
  8
C7
  10
282.000000
  20
901.000000
  0
SEQEND
  8
C18
  0
POLYLINE
  8
C18
  66
1
  10
261.000000
  20
900.000000
  0
VERTEX
  8
C18
  10
261.000000
  20
900.000000
  0
VERTEX
  8
C18
  10
262.000000
  20
899.000000
  0
VERTEX
  8
C18
  10
261.000000
  20
900.000000
  0
SEQEND
  8
C18
  0
POLYLINE
  8
C18
  66
1
  10
264.000000
  20
900.000000
  0
VERTEX
  8
C18
  10
264.000000
  20
900.000000
  0
VERTEX
  8
C18
  10
265.000000
  20
899.000000
  0
VERTEX
  8
C18
  10
264.000000
  20
900.000000
  0
SEQEND
  8
C7
  0
POLYLINE
  8
C7
  66
1
  10
279.000000
  20
900.000000
  0
VERTEX
  8
C7
  10
279.000000
  20
900.000000
  0
VERTEX
  8
C7
  10
280.000000
  20
899.000000
  0
VERTEX
  8
C7
  10
279.000000
  20
900.000000
  0
SEQEND
  8
C18
  0
POLYLINE
  8
C18
  66
1
  10
266.000000
  20
899.000000
  0
VERTEX
  8
C18
  10
266.000000
  20
899.000000
  0
VERTEX
  8
C18
  10
267.000000
  20
898.000000
  0
VERTEX
  8
C18
  10
266.000000
  20
899.000000
  0
SEQEND
  8
C7
  0
POLYLINE
  8
C7
  66
1
  10
276.000000
  20
899.000000
  0
VERTEX
  8
C7
  10
276.000000
  20
899.000000
  0
VERTEX
  8
C7
  10
278.000000
  20
897.000000
  0
VERTEX
  8
C7
  10
276.000000
  20
899.000000
  0
SEQEND
  8
C18
  0
POLYLINE
  8
C18
  66
1
  10
273.000000
  20
898.000000
  0
VERTEX
  8
C18
  10
273.000000
  20
898.000000
  0
VERTEX
  8
C18
  10
274.000000
  20
897.000000
  0
VERTEX
  8
C18
  10
273.000000
  20
898.000000
  0
SEQEND
  8
C7
  0
POLYLINE
  8
C7
  66
1
  10
279.000000
  20
898.000000
  0
VERTEX
  8
C7
  10
279.000000
  20
898.000000
  0
VERTEX
  8
C7
  10
281.000000
  20
896.000000
  0
VERTEX
  8
C7
  10
279.000000
  20
898.000000
  0
SEQEND
  8
C18
  0
POLYLINE
  8
C18
  66
1
  10
265.000000
  20
897.000000
  0
VERTEX
  8
C18
  10
265.000000
  20
897.000000
  0
VERTEX
  8
C18
  10
266.000000
  20
896.000000
  0
VERTEX
  8
C18
  10
265.000000
  20
897.000000
  0
SEQEND
  8
C18
  0
POLYLINE
  8
C18
  66
1
  10
267.333344
  20
896.333313
  0
VERTEX
  8
C18
  10
267.333344
  20
896.333313
  0
VERTEX
  8
C18
  10
267.666656
  20
895.666687
  0
VERTEX
  8
C18
  10
267.333344
  20
896.333313
  0
SEQEND
  8
C7
  0
POLYLINE
  8
C7
  66
1
  10
282.000000
  20
897.000000
  0
VERTEX
  8
C7
  10
282.000000
  20
897.000000
  0
VERTEX
  8
C7
  10
283.000000
  20
896.000000
  0
VERTEX
  8
C7
  10
282.000000
  20
897.000000
  0
SEQEND
  8
C18
  0
POLYLINE
  8
C18
  66
1
  10
265.000000
  20
895.000000
  0
VERTEX
  8
C18
  10
265.000000
  20
895.000000
  0
VERTEX
  8
C18
  10
266.000000
  20
894.000000
  0
VERTEX
  8
C18
  10
265.000000
  20
895.000000
  0
SEQEND
  8
C7
  0
POLYLINE
  8
C7
  66
1
  10
278.000000
  20
895.000000
  0
VERTEX
  8
C7
  10
278.000000
  20
895.000000
  0
VERTEX
  8
C7
  10
279.000000
  20
894.000000
  0
VERTEX
  8
C7
  10
278.000000
  20
895.000000
  0
SEQEND
  8
C7
  0
POLYLINE
  8
C7
  66
1
  10
280.000000
  20
894.000000
  0
VERTEX
  8
C7
  10
280.000000
  20
894.000000
  0
VERTEX
  8
C7
  10
281.000000
  20
893.000000
  0
VERTEX
  8
C7
  10
280.000000
  20
894.000000
  0
SEQEND
  8
C18
  0
POLYLINE
  8
C18
  66
1
  10
264.000000
  20
893.000000
  0
VERTEX
  8
C18
  10
264.000000
  20
893.000000
  0
VERTEX
  8
C18
  10
265.000000
  20
892.000000
  0
VERTEX
  8
C18
  10
264.000000
  20
893.000000
  0
SEQEND
  8
C7
  0
POLYLINE
  8
C7
  66
1
  10
277.000000
  20
893.000000
  0
VERTEX
  8
C7
  10
277.000000
  20
893.000000
  0
VERTEX
  8
C7
  10
278.000000
  20
892.000000
  0
VERTEX
  8
C7
  10
277.000000
  20
893.000000
  0
SEQEND
  8
C7
  0
POLYLINE
  8
C7
  66
1
  10
282.000000
  20
893.000000
  0
VERTEX
  8
C7
  10
282.000000
  20
893.000000
  0
VERTEX
  8
C7
  10
283.000000
  20
892.000000
  0
VERTEX
  8
C7
  10
282.000000
  20
893.000000
  0
SEQEND
  8
C7
  0
POLYLINE
  8
C7
  66
1
  10
280.000000
  20
892.000000
  0
VERTEX
  8
C7
  10
280.000000
  20
892.000000
  0
VERTEX
  8
C7
  10
281.000000
  20
891.000000
  0
VERTEX
  8
C7
  10
280.000000
  20
892.000000
  0
SEQEND
  8
C18
  0
POLYLINE
  8
C18
  66
1
  10
265.000000
  20
891.000000
  0
VERTEX
  8
C18
  10
265.000000
  20
891.000000
  0
VERTEX
  8
C18
  10
266.000000
  20
890.000000
  0
VERTEX
  8
C18
  10
265.000000
  20
891.000000
  0
SEQEND
  8
C7
  0
POLYLINE
  8
C7
  66
1
  10
277.000000
  20
891.000000
  0
VERTEX
  8
C7
  10
277.000000
  20
891.000000
  0
VERTEX
  8
C7
  10
280.000000
  20
888.000000
  0
VERTEX
  8
C7
  10
277.000000
  20
891.000000
  0
SEQEND
  8
C7
  0
POLYLINE
  8
C7
  66
1
  10
275.000000
  20
890.000000
  0
VERTEX
  8
C7
  10
275.000000
  20
890.000000
  0
VERTEX
  8
C7
  10
274.000000
  20
886.000000
  0
VERTEX
  8
C7
  10
277.000000
  20
886.000000
  0
VERTEX
  8
C7
  10
275.000000
  20
890.000000
  0
SEQEND
  8
C18
  0
POLYLINE
  8
C18
  66
1
  10
263.000000
  20
889.000000
  0
VERTEX
  8
C18
  10
263.000000
  20
889.000000
  0
VERTEX
  8
C18
  10
264.000000
  20
888.000000
  0
VERTEX
  8
C18
  10
263.000000
  20
889.000000
  0
SEQEND
  8
C18
  0
POLYLINE
  8
C18
  66
1
  10
266.000000
  20
889.000000
  0
VERTEX
  8
C18
  10
266.000000
  20
889.000000
  0
VERTEX
  8
C18
  10
268.000000
  20
884.000000
  0
VERTEX
  8
C18
  10
266.000000
  20
889.000000
  0
SEQEND
  8
C7
  0
POLYLINE
  8
C7
  66
1
  10
281.000000
  20
889.000000
  0
VERTEX
  8
C7
  10
281.000000
  20
889.000000
  0
VERTEX
  8
C7
  10
282.000000
  20
888.000000
  0
VERTEX
  8
C7
  10
281.000000
  20
889.000000
  0
SEQEND
  8
C18
  0
POLYLINE
  8
C18
  66
1
  10
264.000000
  20
887.000000
  0
VERTEX
  8
C18
  10
264.000000
  20
887.000000
  0
VERTEX
  8
C18
  10
265.000000
  20
886.000000
  0
VERTEX
  8
C18
  10
264.000000
  20
887.000000
  0
SEQEND
  8
C7
  0
POLYLINE
  8
C7
  66
1
  10
281.000000
  20
887.000000
  0
VERTEX
  8
C7
  10
281.000000
  20
887.000000
  0
VERTEX
  8
C7
  10
282.000000
  20
886.000000
  0
VERTEX
  8
C7
  10
281.000000
  20
887.000000
  0
SEQEND
  8
C7
  0
POLYLINE
  8
C7
  66
1
  10
270.000000
  20
886.000000
  0
VERTEX
  8
C7
  10
270.000000
  20
886.000000
  0
VERTEX
  8
C7
  10
272.000000
  20
882.000000
  0
VERTEX
  8
C7
  10
270.000000
  20
886.000000
  0
SEQEND
  8
C7
  0
POLYLINE
  8
C7
  66
1
  10
278.000000
  20
886.000000
  0
VERTEX
  8
C7
  10
278.000000
  20
886.000000
  0
VERTEX
  8
C7
  10
279.000000
  20
885.000000
  0
VERTEX
  8
C7
  10
278.000000
  20
886.000000
  0
SEQEND
  8
C7
  0
POLYLINE
  8
C7
  66
1
  10
276.000000
  20
885.000000
  0
VERTEX
  8
C7
  10
276.000000
  20
885.000000
  0
VERTEX
  8
C7
  10
278.000000
  20
883.000000
  0
VERTEX
  8
C7
  10
276.000000
  20
885.000000
  0
SEQEND
  8
C7
  0
POLYLINE
  8
C7
  66
1
  10
282.000000
  20
885.000000
  0
VERTEX
  8
C7
  10
282.000000
  20
885.000000
  0
VERTEX
  8
C7
  10
283.000000
  20
884.000000
  0
VERTEX
  8
C7
  10
282.000000
  20
885.000000
  0
SEQEND
  8
C18
  0
POLYLINE
  8
C18
  66
1
  10
264.000000
  20
884.000000
  0
VERTEX
  8
C18
  10
264.000000
  20
884.000000
  0
VERTEX
  8
C18
  10
265.000000
  20
883.000000
  0
VERTEX
  8
C18
  10
264.000000
  20
884.000000
  0
SEQEND
  8
C7
  0
POLYLINE
  8
C7
  66
1
  10
279.000000
  20
884.000000
  0
VERTEX
  8
C7
  10
279.000000
  20
884.000000
  0
VERTEX
  8
C7
  10
280.000000
  20
883.000000
  0
VERTEX
  8
C7
  10
279.000000
  20
884.000000
  0
SEQEND
  8
C18
  0
POLYLINE
  8
C18
  66
1
  10
262.000000
  20
883.000000
  0
VERTEX
  8
C18
  10
262.000000
  20
883.000000
  0
VERTEX
  8
C18
  10
263.000000
  20
882.000000
  0
VERTEX
  8
C18
  10
262.000000
  20
883.000000
  0
SEQEND
  8
C18
  0
POLYLINE
  8
C18
  66
1
  10
267.000000
  20
883.000000
  0
VERTEX
  8
C18
  10
267.000000
  20
883.000000
  0
VERTEX
  8
C18
  10
268.000000
  20
882.000000
  0
VERTEX
  8
C18
  10
267.000000
  20
883.000000
  0
SEQEND
  8
C7
  0
POLYLINE
  8
C7
  66
1
  10
273.000000
  20
883.000000
  0
VERTEX
  8
C7
  10
273.000000
  20
883.000000
  0
VERTEX
  8
C7
  10
275.000000
  20
879.000000
  0
VERTEX
  8
C7
  10
273.000000
  20
883.000000
  0
SEQEND
  8
C7
  0
POLYLINE
  8
C7
  66
1
  10
275.000000
  20
883.000000
  0
VERTEX
  8
C7
  10
275.000000
  20
883.000000
  0
VERTEX
  8
C7
  10
277.000000
  20
881.000000
  0
VERTEX
  8
C7
  10
275.000000
  20
883.000000
  0
SEQEND
  8
C7
  0
POLYLINE
  8
C7
  66
1
  10
280.000000
  20
882.000000
  0
VERTEX
  8
C7
  10
280.000000
  20
882.000000
  0
VERTEX
  8
C7
  10
281.000000
  20
881.000000
  0
VERTEX
  8
C7
  10
280.000000
  20
882.000000
  0
SEQEND
  8
C18
  0
POLYLINE
  8
C18
  66
1
  10
265.000000
  20
881.000000
  0
VERTEX
  8
C18
  10
265.000000
  20
881.000000
  0
VERTEX
  8
C18
  10
266.000000
  20
880.000000
  0
VERTEX
  8
C18
  10
265.000000
  20
881.000000
  0
SEQEND
  8
C7
  0
POLYLINE
  8
C7
  66
1
  10
282.000000
  20
881.000000
  0
VERTEX
  8
C7
  10
282.000000
  20
881.000000
  0
VERTEX
  8
C7
  10
283.000000
  20
880.000000
  0
VERTEX
  8
C7
  10
282.000000
  20
881.000000
  0
SEQEND
  8
C18
  0
POLYLINE
  8
C18
  66
1
  10
263.000000
  20
880.000000
  0
VERTEX
  8
C18
  10
263.000000
  20
880.000000
  0
VERTEX
  8
C18
  10
264.000000
  20
879.000000
  0
VERTEX
  8
C18
  10
263.000000
  20
880.000000
  0
SEQEND
  8
C7
  0
POLYLINE
  8
C7
  66
1
  10
269.000000
  20
880.000000
  0
VERTEX
  8
C7
  10
269.000000
  20
880.000000
  0
VERTEX
  8
C7
  10
270.000000
  20
879.000000
  0
VERTEX
  8
C7
  10
269.000000
  20
880.000000
  0
SEQEND
  8
C7
  0
POLYLINE
  8
C7
  66
1
  10
276.000000
  20
880.000000
  0
VERTEX
  8
C7
  10
276.000000
  20
880.000000
  0
VERTEX
  8
C7
  10
280.000000
  20
876.000000
  0
VERTEX
  8
C7
  10
276.000000
  20
880.000000
  0
SEQEND
  8
C7
  0
POLYLINE
  8
C7
  66
1
  10
280.000000
  20
880.000000
  0
VERTEX
  8
C7
  10
280.000000
  20
880.000000
  0
VERTEX
  8
C7
  10
281.000000
  20
879.000000
  0
VERTEX
  8
C7
  10
280.000000
  20
880.000000
  0
SEQEND
  8
C18
  0
POLYLINE
  8
C18
  66
1
  10
265.000000
  20
879.000000
  0
VERTEX
  8
C18
  10
265.000000
  20
879.000000
  0
VERTEX
  8
C18
  10
266.000000
  20
878.000000
  0
VERTEX
  8
C18
  10
265.000000
  20
879.000000
  0
SEQEND
  8
C7
  0
POLYLINE
  8
C7
  66
1
  10
269.000000
  20
878.000000
  0
VERTEX
  8
C7
  10
269.000000
  20
878.000000
  0
VERTEX
  8
C7
  10
275.000000
  20
874.000000
  0
VERTEX
  8
C7
  10
274.000000
  20
878.000000
  0
VERTEX
  8
C7
  10
269.000000
  20
878.000000
  0
SEQEND
  8
C7
  0
POLYLINE
  8
C7
  66
1
  10
275.000000
  20
878.000000
  0
VERTEX
  8
C7
  10
275.000000
  20
878.000000
  0
VERTEX
  8
C7
  10
277.000000
  20
875.000000
  0
VERTEX
  8
C7
  10
275.000000
  20
878.000000
  0
SEQEND
  8
C18
  0
POLYLINE
  8
C18
  66
1
  10
261.000000
  20
877.000000
  0
VERTEX
  8
C18
  10
261.000000
  20
877.000000
  0
VERTEX
  8
C18
  10
262.000000
  20
876.000000
  0
VERTEX
  8
C18
  10
261.000000
  20
877.000000
  0
SEQEND
  8
C18
  0
POLYLINE
  8
C18
  66
1
  10
265.000000
  20
877.000000
  0
VERTEX
  8
C18
  10
265.000000
  20
877.000000
  0
VERTEX
  8
C18
  10
268.000000
  20
874.000000
  0
VERTEX
  8
C18
  10
265.000000
  20
877.000000
  0
SEQEND
  8
C7
  0
POLYLINE
  8
C7
  66
1
  10
281.000000
  20
877.000000
  0
VERTEX
  8
C7
  10
281.000000
  20
877.000000
  0
VERTEX
  8
C7
  10
282.000000
  20
876.000000
  0
VERTEX
  8
C7
  10
281.000000
  20
877.000000
  0
SEQEND
  8
C18
  0
POLYLINE
  8
C18
  66
1
  10
263.000000
  20
875.000000
  0
VERTEX
  8
C18
  10
263.000000
  20
875.000000
  0
VERTEX
  8
C18
  10
264.000000
  20
874.000000
  0
VERTEX
  8
C18
  10
263.000000
  20
875.000000
  0
SEQEND
  8
C18
  0
POLYLINE
  8
C18
  66
1
  10
269.000000
  20
874.000000
  0
VERTEX
  8
C18
  10
269.000000
  20
874.000000
  0
VERTEX
  8
C18
  10
270.000000
  20
873.000000
  0
VERTEX
  8
C18
  10
269.000000
  20
874.000000
  0
SEQEND
  8
C18
  0
POLYLINE
  8
C18
  66
1
  10
414.000000
  20
402.000000
  0
VERTEX
  8
C18
  10
414.000000
  20
402.000000
  0
VERTEX
  8
C18
  10
415.000000
  20
401.000000
  0
VERTEX
  8
C18
  10
414.000000
  20
402.000000
  0
SEQEND
  8
C18
  0
POLYLINE
  8
C18
  66
1
  10
416.000000
  20
402.000000
  0
VERTEX
  8
C18
  10
416.000000
  20
402.000000
  0
VERTEX
  8
C18
  10
417.000000
  20
401.000000
  0
VERTEX
  8
C18
  10
416.000000
  20
402.000000
  0
SEQEND
  8
C7
  0
POLYLINE
  8
C7
  66
1
  10
421.000000
  20
402.000000
  0
VERTEX
  8
C7
  10
421.000000
  20
402.000000
  0
VERTEX
  8
C7
  10
426.000000
  20
398.000000
  0
VERTEX
  8
C7
  10
421.000000
  20
402.000000
  0
SEQEND
  8
C7
  0
POLYLINE
  8
C7
  66
1
  10
424.000000
  20
402.000000
  0
VERTEX
  8
C7
  10
424.000000
  20
402.000000
  0
VERTEX
  8
C7
  10
425.000000
  20
401.000000
  0
VERTEX
  8
C7
  10
424.000000
  20
402.000000
  0
SEQEND
  8
C7
  0
POLYLINE
  8
C7
  66
1
  10
431.000000
  20
402.000000
  0
VERTEX
  8
C7
  10
431.000000
  20
402.000000
  0
VERTEX
  8
C7
  10
432.000000
  20
401.000000
  0
VERTEX
  8
C7
  10
431.000000
  20
402.000000
  0
SEQEND
  8
C7
  0
POLYLINE
  8
C7
  66
1
  10
434.000000
  20
402.000000
  0
VERTEX
  8
C7
  10
434.000000
  20
402.000000
  0
VERTEX
  8
C7
  10
435.000000
  20
401.000000
  0
VERTEX
  8
C7
  10
434.000000
  20
402.000000
  0
SEQEND
  8
C7
  0
POLYLINE
  8
C7
  66
1
  10
426.000000
  20
401.000000
  0
VERTEX
  8
C7
  10
426.000000
  20
401.000000
  0
VERTEX
  8
C7
  10
428.000000
  20
399.000000
  0
VERTEX
  8
C7
  10
426.000000
  20
401.000000
  0
SEQEND
  8
C18
  0
POLYLINE
  8
C18
  66
1
  10
413.000000
  20
400.000000
  0
VERTEX
  8
C18
  10
413.000000
  20
400.000000
  0
VERTEX
  8
C18
  10
414.000000
  20
399.000000
  0
VERTEX
  8
C18
  10
413.000000
  20
400.000000
  0
SEQEND
  8
C18
  0
POLYLINE
  8
C18
  66
1
  10
416.333344
  20
399.333344
  0
VERTEX
  8
C18
  10
416.333344
  20
399.333344
  0
VERTEX
  8
C18
  10
416.666656
  20
398.666656
  0
VERTEX
  8
C18
  10
416.333344
  20
399.333344
  0
SEQEND
  8
C7
  0
POLYLINE
  8
C7
  66
1
  10
421.000000
  20
399.000000
  0
VERTEX
  8
C7
  10
421.000000
  20
399.000000
  0
VERTEX
  8
C7
  10
419.000000
  20
390.000000
  0
VERTEX
  8
C7
  10
418.000000
  20
385.000000
  0
VERTEX
  8
C7
  10
421.000000
  20
382.000000
  0
VERTEX
  8
C7
  10
423.000000
  20
385.000000
  0
VERTEX
  8
C7
  10
425.000000
  20
379.000000
  0
VERTEX
  8
C7
  10
421.000000
  20
389.000000
  0
VERTEX
  8
C7
  10
425.000000
  20
386.000000
  0
VERTEX
  8
C7
  10
421.000000
  20
399.000000
  0
SEQEND
  8
C7
  0
POLYLINE
  8
C7
  66
1
  10
429.000000
  20
399.000000
  0
VERTEX
  8
C7
  10
429.000000
  20
399.000000
  0
VERTEX
  8
C7
  10
432.000000
  20
396.000000
  0
VERTEX
  8
C7
  10
429.000000
  20
399.000000
  0
SEQEND
  8
C18
  0
POLYLINE
  8
C18
  66
1
  10
412.000000
  20
398.000000
  0
VERTEX
  8
C18
  10
412.000000
  20
398.000000
  0
VERTEX
  8
C18
  10
413.000000
  20
397.000000
  0
VERTEX
  8
C18
  10
412.000000
  20
398.000000
  0
SEQEND
  8
C18
  0
POLYLINE
  8
C18
  66
1
  10
414.000000
  20
398.000000
  0
VERTEX
  8
C18
  10
414.000000
  20
398.000000
  0
VERTEX
  8
C18
  10
415.000000
  20
397.000000
  0
VERTEX
  8
C18
  10
414.000000
  20
398.000000
  0
SEQEND
  8
C7
  0
POLYLINE
  8
C7
  66
1
  10
423.000000
  20
398.000000
  0
VERTEX
  8
C7
  10
423.000000
  20
398.000000
  0
VERTEX
  8
C7
  10
424.000000
  20
392.000000
  0
VERTEX
  8
C7
  10
423.000000
  20
398.000000
  0
SEQEND
  8
C7
  0
POLYLINE
  8
C7
  66
1
  10
427.000000
  20
398.000000
  0
VERTEX
  8
C7
  10
427.000000
  20
398.000000
  0
VERTEX
  8
C7
  10
428.000000
  20
397.000000
  0
VERTEX
  8
C7
  10
427.000000
  20
398.000000
  0
SEQEND
  8
C18
  0
POLYLINE
  8
C18
  66
1
  10
416.000000
  20
397.000000
  0
VERTEX
  8
C18
  10
416.000000
  20
397.000000
  0
VERTEX
  8
C18
  10
417.000000
  20
396.000000
  0
VERTEX
  8
C18
  10
416.000000
  20
397.000000
  0
SEQEND
  8
C18
  0
POLYLINE
  8
C18
  66
1
  10
414.000000
  20
396.000000
  0
VERTEX
  8
C18
  10
414.000000
  20
396.000000
  0
VERTEX
  8
C18
  10
415.000000
  20
395.000000
  0
VERTEX
  8
C18
  10
414.000000
  20
396.000000
  0
SEQEND
  8
C18
  0
POLYLINE
  8
C18
  66
1
  10
421.333344
  20
394.333344
  0
VERTEX
  8
C18
  10
421.333344
  20
394.333344
  0
VERTEX
  8
C18
  10
421.666656
  20
393.666656
  0
VERTEX
  8
C18
  10
421.333344
  20
394.333344
  0
SEQEND
  8
C7
  0
POLYLINE
  8
C7
  66
1
  10
427.000000
  20
395.000000
  0
VERTEX
  8
C7
  10
427.000000
  20
395.000000
  0
VERTEX
  8
C7
  10
428.000000
  20
394.000000
  0
VERTEX
  8
C7
  10
427.000000
  20
395.000000
  0
SEQEND
  8
C18
  0
POLYLINE
  8
C18
  66
1
  10
411.000000
  20
394.000000
  0
VERTEX
  8
C18
  10
411.000000
  20
394.000000
  0
VERTEX
  8
C18
  10
412.000000
  20
393.000000
  0
VERTEX
  8
C18
  10
411.000000
  20
394.000000
  0
SEQEND
  8
C18
  0
POLYLINE
  8
C18
  66
1
  10
413.000000
  20
394.000000
  0
VERTEX
  8
C18
  10
413.000000
  20
394.000000
  0
VERTEX
  8
C18
  10
414.000000
  20
393.000000
  0
VERTEX
  8
C18
  10
413.000000
  20
394.000000
  0
SEQEND
  8
C18
  0
POLYLINE
  8
C18
  66
1
  10
415.000000
  20
394.000000
  0
VERTEX
  8
C18
  10
415.000000
  20
394.000000
  0
VERTEX
  8
C18
  10
416.000000
  20
393.000000
  0
VERTEX
  8
C18
  10
415.000000
  20
394.000000
  0
SEQEND
  8
C18
  0
POLYLINE
  8
C18
  66
1
  10
417.000000
  20
394.000000
  0
VERTEX
  8
C18
  10
417.000000
  20
394.000000
  0
VERTEX
  8
C18
  10
418.000000
  20
393.000000
  0
VERTEX
  8
C18
  10
417.000000
  20
394.000000
  0
SEQEND
  8
C7
  0
POLYLINE
  8
C7
  66
1
  10
432.000000
  20
394.000000
  0
VERTEX
  8
C7
  10
432.000000
  20
394.000000
  0
VERTEX
  8
C7
  10
433.000000
  20
393.000000
  0
VERTEX
  8
C7
  10
432.000000
  20
394.000000
  0
SEQEND
  8
C7
  0
POLYLINE
  8
C7
  66
1
  10
426.000000
  20
393.000000
  0
VERTEX
  8
C7
  10
426.000000
  20
393.000000
  0
VERTEX
  8
C7
  10
427.000000
  20
392.000000
  0
VERTEX
  8
C7
  10
426.000000
  20
393.000000
  0
SEQEND
  8
C7
  0
POLYLINE
  8
C7
  66
1
  10
428.000000
  20
393.000000
  0
VERTEX
  8
C7
  10
428.000000
  20
393.000000
  0
VERTEX
  8
C7
  10
429.000000
  20
392.000000
  0
VERTEX
  8
C7
  10
428.000000
  20
393.000000
  0
SEQEND
  8
C18
  0
POLYLINE
  8
C18
  66
1
  10
414.000000
  20
392.000000
  0
VERTEX
  8
C18
  10
414.000000
  20
392.000000
  0
VERTEX
  8
C18
  10
415.000000
  20
391.000000
  0
VERTEX
  8
C18
  10
414.000000
  20
392.000000
  0
SEQEND
  8
C7
  0
POLYLINE
  8
C7
  66
1
  10
423.666656
  20
390.666656
  0
VERTEX
  8
C7
  10
423.666656
  20
390.666656
  0
VERTEX
  8
C7
  10
424.333344
  20
390.333344
  0
VERTEX
  8
C7
  10
423.666656
  20
390.666656
  0
SEQEND
  8
C7
  0
POLYLINE
  8
C7
  66
1
  10
426.000000
  20
391.000000
  0
VERTEX
  8
C7
  10
426.000000
  20
391.000000
  0
VERTEX
  8
C7
  10
427.000000
  20
390.000000
  0
VERTEX
  8
C7
  10
426.000000
  20
391.000000
  0
SEQEND
  8
C7
  0
POLYLINE
  8
C7
  66
1
  10
429.000000
  20
391.000000
  0
VERTEX
  8
C7
  10
429.000000
  20
391.000000
  0
VERTEX
  8
C7
  10
430.000000
  20
390.000000
  0
VERTEX
  8
C7
  10
429.000000
  20
391.000000
  0
SEQEND
  8
C7
  0
POLYLINE
  8
C7
  66
1
  10
432.000000
  20
391.000000
  0
VERTEX
  8
C7
  10
432.000000
  20
391.000000
  0
VERTEX
  8
C7
  10
433.000000
  20
390.000000
  0
VERTEX
  8
C7
  10
432.000000
  20
391.000000
  0
SEQEND
  8
C18
  0
POLYLINE
  8
C18
  66
1
  10
412.000000
  20
390.000000
  0
VERTEX
  8
C18
  10
412.000000
  20
390.000000
  0
VERTEX
  8
C18
  10
414.000000
  20
388.000000
  0
VERTEX
  8
C18
  10
412.000000
  20
390.000000
  0
SEQEND
  8
C7
  0
POLYLINE
  8
C7
  66
1
  10
425.000000
  20
389.000000
  0
VERTEX
  8
C7
  10
425.000000
  20
389.000000
  0
VERTEX
  8
C7
  10
426.000000
  20
388.000000
  0
VERTEX
  8
C7
  10
425.000000
  20
389.000000
  0
SEQEND
  8
C7
  0
POLYLINE
  8
C7
  66
1
  10
427.000000
  20
389.000000
  0
VERTEX
  8
C7
  10
427.000000
  20
389.000000
  0
VERTEX
  8
C7
  10
429.000000
  20
387.000000
  0
VERTEX
  8
C7
  10
427.000000
  20
389.000000
  0
SEQEND
  8
C18
  0
POLYLINE
  8
C18
  66
1
  10
413.000000
  20
387.000000
  0
VERTEX
  8
C18
  10
413.000000
  20
387.000000
  0
VERTEX
  8
C18
  10
414.000000
  20
386.000000
  0
VERTEX
  8
C18
  10
413.000000
  20
387.000000
  0
SEQEND
  8
C18
  0
POLYLINE
  8
C18
  66
1
  10
415.000000
  20
387.000000
  0
VERTEX
  8
C18
  10
415.000000
  20
387.000000
  0
VERTEX
  8
C18
  10
416.000000
  20
386.000000
  0
VERTEX
  8
C18
  10
415.000000
  20
387.000000
  0
SEQEND
  8
C18
  0
POLYLINE
  8
C18
  66
1
  10
420.000000
  20
387.000000
  0
VERTEX
  8
C18
  10
420.000000
  20
387.000000
  0
VERTEX
  8
C18
  10
422.000000
  20
385.000000
  0
VERTEX
  8
C18
  10
420.000000
  20
387.000000
  0
SEQEND
  8
C7
  0
POLYLINE
  8
C7
  66
1
  10
426.000000
  20
387.000000
  0
VERTEX
  8
C7
  10
426.000000
  20
387.000000
  0
VERTEX
  8
C7
  10
427.000000
  20
386.000000
  0
VERTEX
  8
C7
  10
426.000000
  20
387.000000
  0
SEQEND
  8
C7
  0
POLYLINE
  8
C7
  66
1
  10
431.000000
  20
387.000000
  0
VERTEX
  8
C7
  10
431.000000
  20
387.000000
  0
VERTEX
  8
C7
  10
432.000000
  20
386.000000
  0
VERTEX
  8
C7
  10
431.000000
  20
387.000000
  0
SEQEND
  8
C7
  0
POLYLINE
  8
C7
  66
1
  10
429.000000
  20
386.000000
  0
VERTEX
  8
C7
  10
429.000000
  20
386.000000
  0
VERTEX
  8
C7
  10
430.000000
  20
385.000000
  0
VERTEX
  8
C7
  10
429.000000
  20
386.000000
  0
SEQEND
  8
C18
  0
POLYLINE
  8
C18
  66
1
  10
415.000000
  20
385.000000
  0
VERTEX
  8
C18
  10
415.000000
  20
385.000000
  0
VERTEX
  8
C18
  10
416.000000
  20
384.000000
  0
VERTEX
  8
C18
  10
415.000000
  20
385.000000
  0
SEQEND
  8
C7
  0
POLYLINE
  8
C7
  66
1
  10
426.000000
  20
385.000000
  0
VERTEX
  8
C7
  10
426.000000
  20
385.000000
  0
VERTEX
  8
C7
  10
428.000000
  20
383.000000
  0
VERTEX
  8
C7
  10
426.000000
  20
385.000000
  0
SEQEND
  8
C18
  0
POLYLINE
  8
C18
  66
1
  10
415.000000
  20
383.000000
  0
VERTEX
  8
C18
  10
415.000000
  20
383.000000
  0
VERTEX
  8
C18
  10
417.000000
  20
380.000000
  0
VERTEX
  8
C18
  10
415.000000
  20
383.000000
  0
SEQEND
  8
C7
  0
POLYLINE
  8
C7
  66
1
  10
429.000000
  20
383.000000
  0
VERTEX
  8
C7
  10
429.000000
  20
383.000000
  0
VERTEX
  8
C7
  10
431.000000
  20
381.000000
  0
VERTEX
  8
C7
  10
429.000000
  20
383.000000
  0
SEQEND
  8
C18
  0
POLYLINE
  8
C18
  66
1
  10
412.000000
  20
382.000000
  0
VERTEX
  8
C18
  10
412.000000
  20
382.000000
  0
VERTEX
  8
C18
  10
413.000000
  20
381.000000
  0
VERTEX
  8
C18
  10
412.000000
  20
382.000000
  0
SEQEND
  8
C7
  0
POLYLINE
  8
C7
  66
1
  10
426.000000
  20
382.000000
  0
VERTEX
  8
C7
  10
426.000000
  20
382.000000
  0
VERTEX
  8
C7
  10
427.000000
  20
381.000000
  0
VERTEX
  8
C7
  10
426.000000
  20
382.000000
  0
SEQEND
  8
C18
  0
POLYLINE
  8
C18
  66
1
  10
412.000000
  20
380.000000
  0
VERTEX
  8
C18
  10
412.000000
  20
380.000000
  0
VERTEX
  8
C18
  10
413.000000
  20
379.000000
  0
VERTEX
  8
C18
  10
412.000000
  20
380.000000
  0
SEQEND
  8
C7
  0
POLYLINE
  8
C7
  66
1
  10
426.000000
  20
380.000000
  0
VERTEX
  8
C7
  10
426.000000
  20
380.000000
  0
VERTEX
  8
C7
  10
429.000000
  20
377.000000
  0
VERTEX
  8
C7
  10
426.000000
  20
380.000000
  0
SEQEND
  8
C7
  0
POLYLINE
  8
C7
  66
1
  10
431.000000
  20
380.000000
  0
VERTEX
  8
C7
  10
431.000000
  20
380.000000
  0
VERTEX
  8
C7
  10
432.000000
  20
379.000000
  0
VERTEX
  8
C7
  10
431.000000
  20
380.000000
  0
SEQEND
  8
C18
  0
POLYLINE
  8
C18
  66
1
  10
415.000000
  20
379.000000
  0
VERTEX
  8
C18
  10
415.000000
  20
379.000000
  0
VERTEX
  8
C18
  10
416.000000
  20
378.000000
  0
VERTEX
  8
C18
  10
415.000000
  20
379.000000
  0
SEQEND
  8
C18
  0
POLYLINE
  8
C18
  66
1
  10
417.000000
  20
379.000000
  0
VERTEX
  8
C18
  10
417.000000
  20
379.000000
  0
VERTEX
  8
C18
  10
419.000000
  20
376.000000
  0
VERTEX
  8
C18
  10
417.000000
  20
379.000000
  0
SEQEND
  8
C7
  0
POLYLINE
  8
C7
  66
1
  10
422.000000
  20
379.000000
  0
VERTEX
  8
C7
  10
422.000000
  20
379.000000
  0
VERTEX
  8
C7
  10
425.000000
  20
375.000000
  0
VERTEX
  8
C7
  10
422.000000
  20
379.000000
  0
SEQEND
  8
C18
  0
POLYLINE
  8
C18
  66
1
  10
413.000000
  20
378.000000
  0
VERTEX
  8
C18
  10
413.000000
  20
378.000000
  0
VERTEX
  8
C18
  10
414.000000
  20
377.000000
  0
VERTEX
  8
C18
  10
413.000000
  20
378.000000
  0
SEQEND
  8
C7
  0
POLYLINE
  8
C7
  66
1
  10
424.666656
  20
377.666656
  0
VERTEX
  8
C7
  10
424.666656
  20
377.666656
  0
VERTEX
  8
C7
  10
425.333344
  20
377.333344
  0
VERTEX
  8
C7
  10
424.666656
  20
377.666656
  0
SEQEND
  8
C7
  0
POLYLINE
  8
C7
  66
1
  10
430.000000
  20
378.000000
  0
VERTEX
  8
C7
  10
430.000000
  20
378.000000
  0
VERTEX
  8
C7
  10
431.000000
  20
377.000000
  0
VERTEX
  8
C7
  10
430.000000
  20
378.000000
  0
SEQEND
  8
C18
  0
POLYLINE
  8
C18
  66
1
  10
413.000000
  20
376.000000
  0
VERTEX
  8
C18
  10
413.000000
  20
376.000000
  0
VERTEX
  8
C18
  10
414.000000
  20
375.000000
  0
VERTEX
  8
C18
  10
413.000000
  20
376.000000
  0
SEQEND
  8
C18
  0
POLYLINE
  8
C18
  66
1
  10
415.000000
  20
376.000000
  0
VERTEX
  8
C18
  10
415.000000
  20
376.000000
  0
VERTEX
  8
C18
  10
416.000000
  20
375.000000
  0
VERTEX
  8
C18
  10
415.000000
  20
376.000000
  0
SEQEND
  8
C7
  0
POLYLINE
  8
C7
  66
1
  10
426.000000
  20
376.000000
  0
VERTEX
  8
C7
  10
426.000000
  20
376.000000
  0
VERTEX
  8
C7
  10
427.000000
  20
375.000000
  0
VERTEX
  8
C7
  10
426.000000
  20
376.000000
  0
SEQEND
  8
C7
  0
POLYLINE
  8
C7
  66
1
  10
429.000000
  20
375.000000
  0
VERTEX
  8
C7
  10
429.000000
  20
375.000000
  0
VERTEX
  8
C7
  10
432.000000
  20
372.000000
  0
VERTEX
  8
C7
  10
429.000000
  20
375.000000
  0
SEQEND
  8
C18
  0
POLYLINE
  8
C18
  66
1
  10
414.000000
  20
374.000000
  0
VERTEX
  8
C18
  10
414.000000
  20
374.000000
  0
VERTEX
  8
C18
  10
416.000000
  20
372.000000
  0
VERTEX
  8
C18
  10
414.000000
  20
374.000000
  0
SEQEND
  8
C7
  0
POLYLINE
  8
C7
  66
1
  10
422.000000
  20
374.000000
  0
VERTEX
  8
C7
  10
422.000000
  20
374.000000
  0
VERTEX
  8
C7
  10
423.000000
  20
373.000000
  0
VERTEX
  8
C7
  10
422.000000
  20
374.000000
  0
SEQEND
  8
C7
  0
POLYLINE
  8
C7
  66
1
  10
424.000000
  20
374.000000
  0
VERTEX
  8
C7
  10
424.000000
  20
374.000000
  0
VERTEX
  8
C7
  10
424.000000
  20
370.000000
  0
VERTEX
  8
C7
  10
424.000000
  20
374.000000
  0
SEQEND
  8
C7
  0
POLYLINE
  8
C7
  66
1
  10
427.000000
  20
374.000000
  0
VERTEX
  8
C7
  10
427.000000
  20
374.000000
  0
VERTEX
  8
C7
  10
428.000000
  20
373.000000
  0
VERTEX
  8
C7
  10
427.000000
  20
374.000000
  0
SEQEND
  8
C18
  0
POLYLINE
  8
C18
  66
1
  10
412.000000
  20
372.000000
  0
VERTEX
  8
C18
  10
412.000000
  20
372.000000
  0
VERTEX
  8
C18
  10
413.000000
  20
371.000000
  0
VERTEX
  8
C18
  10
412.000000
  20
372.000000
  0
SEQEND
  8
C7
  0
POLYLINE
  8
C7
  66
1
  10
422.000000
  20
371.000000
  0
VERTEX
  8
C7
  10
422.000000
  20
371.000000
  0
VERTEX
  8
C7
  10
426.000000
  20
366.000000
  0
VERTEX
  8
C7
  10
422.000000
  20
371.000000
  0
SEQEND
  8
C7
  0
POLYLINE
  8
C7
  66
1
  10
426.000000
  20
371.000000
  0
VERTEX
  8
C7
  10
426.000000
  20
371.000000
  0
VERTEX
  8
C7
  10
427.000000
  20
370.000000
  0
VERTEX
  8
C7
  10
426.000000
  20
371.000000
  0
SEQEND
  8
C7
  0
POLYLINE
  8
C7
  66
1
  10
428.000000
  20
371.000000
  0
VERTEX
  8
C7
  10
428.000000
  20
371.000000
  0
VERTEX
  8
C7
  10
429.000000
  20
370.000000
  0
VERTEX
  8
C7
  10
428.000000
  20
371.000000
  0
SEQEND
  8
C18
  0
POLYLINE
  8
C18
  66
1
  10
415.000000
  20
370.000000
  0
VERTEX
  8
C18
  10
415.000000
  20
370.000000
  0
VERTEX
  8
C18
  10
416.000000
  20
369.000000
  0
VERTEX
  8
C18
  10
415.000000
  20
370.000000
  0
SEQEND
  8
C7
  0
POLYLINE
  8
C7
  66
1
  10
418.000000
  20
370.000000
  0
VERTEX
  8
C7
  10
418.000000
  20
370.000000
  0
VERTEX
  8
C7
  10
421.000000
  20
368.000000
  0
VERTEX
  8
C7
  10
420.557500
  20
367.212600
  0
VERTEX
  8
C7
  10
420.152400
  20
366.386600
  0
VERTEX
  8
C7
  10
419.789700
  20
365.528900
  0
VERTEX
  8
C7
  10
419.474500
  20
364.646200
  0
VERTEX
  8
C7
  10
419.211800
  20
363.745300
  0
VERTEX
  8
C7
  10
419.006600
  20
362.833200
  0
VERTEX
  8
C7
  10
418.864200
  20
361.916500
  0
VERTEX
  8
C7
  10
418.789400
  20
361.002100
  0
VERTEX
  8
C7
  10
418.787500
  20
360.096800
  0
VERTEX
  8
C7
  10
418.863400
  20
359.207400
  0
VERTEX
  8
C7
  10
419.022200
  20
358.340800
  0
VERTEX
  8
C7
  10
419.269000
  20
357.503700
  0
VERTEX
  8
C7
  10
419.608800
  20
356.703000
  0
VERTEX
  8
C7
  10
420.046800
  20
355.945400
  0
VERTEX
  8
C7
  10
420.587900
  20
355.237800
  0
VERTEX
  8
C7
  10
421.237300
  20
354.587100
  0
VERTEX
  8
C7
  10
422.000000
  20
354.000000
  0
VERTEX
  8
C7
  10
420.000000
  20
346.000000
  0
VERTEX
  8
C7
  10
422.000000
  20
343.000000
  0
VERTEX
  8
C7
  10
419.000000
  20
342.000000
  0
VERTEX
  8
C7
  10
418.000000
  20
336.000000
  0
VERTEX
  8
C7
  10
423.000000
  20
331.000000
  0
VERTEX
  8
C7
  10
418.000000
  20
331.000000
  0
VERTEX
  8
C7
  10
421.000000
  20
322.000000
  0
VERTEX
  8
C7
  10
421.000000
  20
326.000000
  0
VERTEX
  8
C7
  10
431.000000
  20
320.000000
  0
VERTEX
  8
C7
  10
426.000000
  20
327.000000
  0
VERTEX
  8
C7
  10
423.000000
  20
331.000000
  0
VERTEX
  8
C7
  10
426.000000
  20
328.000000
  0
VERTEX
  8
C7
  10
423.000000
  20
334.000000
  0
VERTEX
  8
C7
  10
427.000000
  20
331.000000
  0
VERTEX
  8
C7
  10
426.000000
  20
335.000000
  0
VERTEX
  8
C7
  10
422.000000
  20
334.000000
  0
VERTEX
  8
C7
  10
422.000000
  20
342.000000
  0
VERTEX
  8
C7
  10
424.000000
  20
336.000000
  0
VERTEX
  8
C7
  10
426.000000
  20
338.000000
  0
VERTEX
  8
C7
  10
423.000000
  20
341.000000
  0
VERTEX
  8
C7
  10
425.000000
  20
344.000000
  0
VERTEX
  8
C7
  10
422.000000
  20
346.000000
  0
VERTEX
  8
C7
  10
425.000000
  20
345.000000
  0
VERTEX
  8
C7
  10
422.000000
  20
350.000000
  0
VERTEX
  8
C7
  10
427.000000
  20
347.000000
  0
VERTEX
  8
C7
  10
425.000000
  20
351.000000
  0
VERTEX
  8
C7
  10
422.000000
  20
353.000000
  0
VERTEX
  8
C7
  10
425.000000
  20
352.000000
  0
VERTEX
  8
C7
  10
420.000000
  20
359.000000
  0
VERTEX
  8
C7
  10
429.000000
  20
351.000000
  0
VERTEX
  8
C7
  10
423.000000
  20
357.000000
  0
VERTEX
  8
C7
  10
421.000000
  20
364.000000
  0
VERTEX
  8
C7
  10
425.000000
  20
358.000000
  0
VERTEX
  8
C7
  10
428.000000
  20
358.000000
  0
VERTEX
  8
C7
  10
425.000000
  20
361.000000
  0
VERTEX
  8
C7
  10
425.000000
  20
365.000000
  0
VERTEX
  8
C7
  10
425.000000
  20
362.000000
  0
VERTEX
  8
C7
  10
424.000000
  20
365.000000
  0
VERTEX
  8
C7
  10
418.000000
  20
370.000000
  0
SEQEND
  8
C18
  0
POLYLINE
  8
C18
  66
1
  10
413.000000
  20
369.000000
  0
VERTEX
  8
C18
  10
413.000000
  20
369.000000
  0
VERTEX
  8
C18
  10
414.000000
  20
368.000000
  0
VERTEX
  8
C18
  10
413.000000
  20
369.000000
  0
SEQEND
  8
C7
  0
POLYLINE
  8
C7
  66
1
  10
427.000000
  20
369.000000
  0
VERTEX
  8
C7
  10
427.000000
  20
369.000000
  0
VERTEX
  8
C7
  10
428.000000
  20
368.000000
  0
VERTEX
  8
C7
  10
427.000000
  20
369.000000
  0
SEQEND
  8
C18
  0
POLYLINE
  8
C18
  66
1
  10
415.000000
  20
368.000000
  0
VERTEX
  8
C18
  10
415.000000
  20
368.000000
  0
VERTEX
  8
C18
  10
416.000000
  20
367.000000
  0
VERTEX
  8
C18
  10
415.000000
  20
368.000000
  0
SEQEND
  8
C7
  0
POLYLINE
  8
C7
  66
1
  10
429.000000
  20
368.000000
  0
VERTEX
  8
C7
  10
429.000000
  20
368.000000
  0
VERTEX
  8
C7
  10
430.000000
  20
367.000000
  0
VERTEX
  8
C7
  10
429.000000
  20
368.000000
  0
SEQEND
  8
C18
  0
POLYLINE
  8
C18
  66
1
  10
421.000000
  20
367.000000
  0
VERTEX
  8
C18
  10
421.000000
  20
367.000000
  0
VERTEX
  8
C18
  10
419.000000
  20
363.000000
  0
VERTEX
  8
C18
  10
421.000000
  20
367.000000
  0
SEQEND
  8
C7
  0
POLYLINE
  8
C7
  66
1
  10
427.000000
  20
367.000000
  0
VERTEX
  8
C7
  10
427.000000
  20
367.000000
  0
VERTEX
  8
C7
  10
428.000000
  20
366.000000
  0
VERTEX
  8
C7
  10
427.000000
  20
367.000000
  0
SEQEND
  8
C18
  0
POLYLINE
  8
C18
  66
1
  10
412.000000
  20
366.000000
  0
VERTEX
  8
C18
  10
412.000000
  20
366.000000
  0
VERTEX
  8
C18
  10
413.000000
  20
365.000000
  0
VERTEX
  8
C18
  10
412.000000
  20
366.000000
  0
SEQEND
  8
C7
  0
POLYLINE
  8
C7
  66
1
  10
429.000000
  20
366.000000
  0
VERTEX
  8
C7
  10
429.000000
  20
366.000000
  0
VERTEX
  8
C7
  10
431.000000
  20
364.000000
  0
VERTEX
  8
C7
  10
429.000000
  20
366.000000
  0
SEQEND
  8
C18
  0
POLYLINE
  8
C18
  66
1
  10
413.000000
  20
363.000000
  0
VERTEX
  8
C18
  10
413.000000
  20
363.000000
  0
VERTEX
  8
C18
  10
414.000000
  20
362.000000
  0
VERTEX
  8
C18
  10
413.000000
  20
363.000000
  0
SEQEND
  8
C18
  0
POLYLINE
  8
C18
  66
1
  10
411.000000
  20
362.000000
  0
VERTEX
  8
C18
  10
411.000000
  20
362.000000
  0
VERTEX
  8
C18
  10
412.000000
  20
361.000000
  0
VERTEX
  8
C18
  10
411.000000
  20
362.000000
  0
SEQEND
  8
C7
  0
POLYLINE
  8
C7
  66
1
  10
427.000000
  20
362.000000
  0
VERTEX
  8
C7
  10
427.000000
  20
362.000000
  0
VERTEX
  8
C7
  10
428.000000
  20
361.000000
  0
VERTEX
  8
C7
  10
427.000000
  20
362.000000
  0
SEQEND
  8
C7
  0
POLYLINE
  8
C7
  66
1
  10
430.000000
  20
362.000000
  0
VERTEX
  8
C7
  10
430.000000
  20
362.000000
  0
VERTEX
  8
C7
  10
431.000000
  20
361.000000
  0
VERTEX
  8
C7
  10
430.000000
  20
362.000000
  0
SEQEND
  8
C18
  0
POLYLINE
  8
C18
  66
1
  10
413.000000
  20
361.000000
  0
VERTEX
  8
C18
  10
413.000000
  20
361.000000
  0
VERTEX
  8
C18
  10
414.000000
  20
360.000000
  0
VERTEX
  8
C18
  10
413.000000
  20
361.000000
  0
SEQEND
  8
C18
  0
POLYLINE
  8
C18
  66
1
  10
415.333344
  20
360.333344
  0
VERTEX
  8
C18
  10
415.333344
  20
360.333344
  0
VERTEX
  8
C18
  10
415.666656
  20
359.666656
  0
VERTEX
  8
C18
  10
415.333344
  20
360.333344
  0
SEQEND
  8
C18
  0
POLYLINE
  8
C18
  66
1
  10
421.000000
  20
360.000000
  0
VERTEX
  8
C18
  10
421.000000
  20
360.000000
  0
VERTEX
  8
C18
  10
423.000000
  20
358.000000
  0
VERTEX
  8
C18
  10
421.000000
  20
360.000000
  0
SEQEND
  8
C18
  0
POLYLINE
  8
C18
  66
1
  10
413.000000
  20
359.000000
  0
VERTEX
  8
C18
  10
413.000000
  20
359.000000
  0
VERTEX
  8
C18
  10
414.000000
  20
358.000000
  0
VERTEX
  8
C18
  10
413.000000
  20
359.000000
  0
SEQEND
  8
C7
  0
POLYLINE
  8
C7
  66
1
  10
429.000000
  20
359.000000
  0
VERTEX
  8
C7
  10
429.000000
  20
359.000000
  0
VERTEX
  8
C7
  10
431.000000
  20
357.000000
  0
VERTEX
  8
C7
  10
429.000000
  20
359.000000
  0
SEQEND
  8
C18
  0
POLYLINE
  8
C18
  66
1
  10
415.000000
  20
358.000000
  0
VERTEX
  8
C18
  10
415.000000
  20
358.000000
  0
VERTEX
  8
C18
  10
416.000000
  20
357.000000
  0
VERTEX
  8
C18
  10
415.000000
  20
358.000000
  0
SEQEND
  8
C18
  0
POLYLINE
  8
C18
  66
1
  10
414.000000
  20
356.000000
  0
VERTEX
  8
C18
  10
414.000000
  20
356.000000
  0
VERTEX
  8
C18
  10
416.000000
  20
354.000000
  0
VERTEX
  8
C18
  10
414.000000
  20
356.000000
  0
SEQEND
  8
C7
  0
POLYLINE
  8
C7
  66
1
  10
427.000000
  20
356.000000
  0
VERTEX
  8
C7
  10
427.000000
  20
356.000000
  0
VERTEX
  8
C7
  10
428.000000
  20
355.000000
  0
VERTEX
  8
C7
  10
427.000000
  20
356.000000
  0
SEQEND
  8
C18
  0
POLYLINE
  8
C18
  66
1
  10
412.000000
  20
355.000000
  0
VERTEX
  8
C18
  10
412.000000
  20
355.000000
  0
VERTEX
  8
C18
  10
413.000000
  20
354.000000
  0
VERTEX
  8
C18
  10
412.000000
  20
355.000000
  0
SEQEND
  8
C7
  0
POLYLINE
  8
C7
  66
1
  10
429.000000
  20
355.000000
  0
VERTEX
  8
C7
  10
429.000000
  20
355.000000
  0
VERTEX
  8
C7
  10
430.000000
  20
354.000000
  0
VERTEX
  8
C7
  10
429.000000
  20
355.000000
  0
SEQEND
  8
C7
  0
POLYLINE
  8
C7
  66
1
  10
431.000000
  20
354.000000
  0
VERTEX
  8
C7
  10
431.000000
  20
354.000000
  0
VERTEX
  8
C7
  10
432.000000
  20
353.000000
  0
VERTEX
  8
C7
  10
431.000000
  20
354.000000
  0
SEQEND
  8
C18
  0
POLYLINE
  8
C18
  66
1
  10
415.000000
  20
353.000000
  0
VERTEX
  8
C18
  10
415.000000
  20
353.000000
  0
VERTEX
  8
C18
  10
416.000000
  20
352.000000
  0
VERTEX
  8
C18
  10
415.000000
  20
353.000000
  0
SEQEND
  8
C18
  0
POLYLINE
  8
C18
  66
1
  10
412.000000
  20
351.000000
  0
VERTEX
  8
C18
  10
412.000000
  20
351.000000
  0
VERTEX
  8
C18
  10
413.000000
  20
350.000000
  0
VERTEX
  8
C18
  10
412.000000
  20
351.000000
  0
SEQEND
  8
C18
  0
POLYLINE
  8
C18
  66
1
  10
416.000000
  20
351.000000
  0
VERTEX
  8
C18
  10
416.000000
  20
351.000000
  0
VERTEX
  8
C18
  10
417.000000
  20
350.000000
  0
VERTEX
  8
C18
  10
416.000000
  20
351.000000
  0
SEQEND
  8
C7
  0
POLYLINE
  8
C7
  66
1
  10
426.000000
  20
351.000000
  0
VERTEX
  8
C7
  10
426.000000
  20
351.000000
  0
VERTEX
  8
C7
  10
427.000000
  20
350.000000
  0
VERTEX
  8
C7
  10
426.000000
  20
351.000000
  0
SEQEND
  8
C18
  0
POLYLINE
  8
C18
  66
1
  10
414.333344
  20
349.333344
  0
VERTEX
  8
C18
  10
414.333344
  20
349.333344
  0
VERTEX
  8
C18
  10
414.666656
  20
348.666656
  0
VERTEX
  8
C18
  10
414.333344
  20
349.333344
  0
SEQEND
  8
C7
  0
POLYLINE
  8
C7
  66
1
  10
429.000000
  20
350.000000
  0
VERTEX
  8
C7
  10
429.000000
  20
350.000000
  0
VERTEX
  8
C7
  10
431.000000
  20
348.000000
  0
VERTEX
  8
C7
  10
429.000000
  20
350.000000
  0
SEQEND
  8
C18
  0
POLYLINE
  8
C18
  66
1
  10
416.000000
  20
349.000000
  0
VERTEX
  8
C18
  10
416.000000
  20
349.000000
  0
VERTEX
  8
C18
  10
417.000000
  20
348.000000
  0
VERTEX
  8
C18
  10
416.000000
  20
349.000000
  0
SEQEND
  8
C7
  0
POLYLINE
  8
C7
  66
1
  10
428.000000
  20
347.000000
  0
VERTEX
  8
C7
  10
428.000000
  20
347.000000
  0
VERTEX
  8
C7
  10
429.000000
  20
346.000000
  0
VERTEX
  8
C7
  10
428.000000
  20
347.000000
  0
SEQEND
  8
C7
  0
POLYLINE
  8
C7
  66
1
  10
426.000000
  20
346.000000
  0
VERTEX
  8
C7
  10
426.000000
  20
346.000000
  0
VERTEX
  8
C7
  10
427.000000
  20
345.000000
  0
VERTEX
  8
C7
  10
426.000000
  20
346.000000
  0
SEQEND
  8
C18
  0
POLYLINE
  8
C18
  66
1
  10
412.000000
  20
345.000000
  0
VERTEX
  8
C18
  10
412.000000
  20
345.000000
  0
VERTEX
  8
C18
  10
414.000000
  20
343.000000
  0
VERTEX
  8
C18
  10
412.000000
  20
345.000000
  0
SEQEND
  8
C7
  0
POLYLINE
  8
C7
  66
1
  10
430.000000
  20
345.000000
  0
VERTEX
  8
C7
  10
430.000000
  20
345.000000
  0
VERTEX
  8
C7
  10
431.000000
  20
344.000000
  0
VERTEX
  8
C7
  10
430.000000
  20
345.000000
  0
SEQEND
  8
C7
  0
POLYLINE
  8
C7
  66
1
  10
426.000000
  20
344.000000
  0
VERTEX
  8
C7
  10
426.000000
  20
344.000000
  0
VERTEX
  8
C7
  10
428.000000
  20
342.000000
  0
VERTEX
  8
C7
  10
426.000000
  20
344.000000
  0
SEQEND
  8
C18
  0
POLYLINE
  8
C18
  66
1
  10
422.000000
  20
343.000000
  0
VERTEX
  8
C18
  10
422.000000
  20
343.000000
  0
VERTEX
  8
C18
  10
423.000000
  20
342.000000
  0
VERTEX
  8
C18
  10
422.000000
  20
343.000000
  0
SEQEND
  8
C18
  0
POLYLINE
  8
C18
  66
1
  10
415.000000
  20
342.000000
  0
VERTEX
  8
C18
  10
415.000000
  20
342.000000
  0
VERTEX
  8
C18
  10
416.000000
  20
341.000000
  0
VERTEX
  8
C18
  10
415.000000
  20
342.000000
  0
SEQEND
  8
C7
  0
POLYLINE
  8
C7
  66
1
  10
425.000000
  20
342.000000
  0
VERTEX
  8
C7
  10
425.000000
  20
342.000000
  0
VERTEX
  8
C7
  10
426.000000
  20
341.000000
  0
VERTEX
  8
C7
  10
425.000000
  20
342.000000
  0
SEQEND
  8
C7
  0
POLYLINE
  8
C7
  66
1
  10
430.000000
  20
342.000000
  0
VERTEX
  8
C7
  10
430.000000
  20
342.000000
  0
VERTEX
  8
C7
  10
431.000000
  20
341.000000
  0
VERTEX
  8
C7
  10
430.000000
  20
342.000000
  0
SEQEND
  8
C7
  0
POLYLINE
  8
C7
  66
1
  10
427.000000
  20
341.000000
  0
VERTEX
  8
C7
  10
427.000000
  20
341.000000
  0
VERTEX
  8
C7
  10
428.000000
  20
340.000000
  0
VERTEX
  8
C7
  10
427.000000
  20
341.000000
  0
SEQEND
  8
C18
  0
POLYLINE
  8
C18
  66
1
  10
414.000000
  20
340.000000
  0
VERTEX
  8
C18
  10
414.000000
  20
340.000000
  0
VERTEX
  8
C18
  10
415.000000
  20
339.000000
  0
VERTEX
  8
C18
  10
414.000000
  20
340.000000
  0
SEQEND
  8
C18
  0
POLYLINE
  8
C18
  66
1
  10
423.000000
  20
340.000000
  0
VERTEX
  8
C18
  10
423.000000
  20
340.000000
  0
VERTEX
  8
C18
  10
424.000000
  20
339.000000
  0
VERTEX
  8
C18
  10
423.000000
  20
340.000000
  0
SEQEND
  8
C7
  0
POLYLINE
  8
C7
  66
1
  10
429.000000
  20
340.000000
  0
VERTEX
  8
C7
  10
429.000000
  20
340.000000
  0
VERTEX
  8
C7
  10
430.000000
  20
339.000000
  0
VERTEX
  8
C7
  10
429.000000
  20
340.000000
  0
SEQEND
  8
C7
  0
POLYLINE
  8
C7
  66
1
  10
427.000000
  20
339.000000
  0
VERTEX
  8
C7
  10
427.000000
  20
339.000000
  0
VERTEX
  8
C7
  10
429.000000
  20
337.000000
  0
VERTEX
  8
C7
  10
427.000000
  20
339.000000
  0
SEQEND
  8
C18
  0
POLYLINE
  8
C18
  66
1
  10
413.000000
  20
338.000000
  0
VERTEX
  8
C18
  10
413.000000
  20
338.000000
  0
VERTEX
  8
C18
  10
414.000000
  20
337.000000
  0
VERTEX
  8
C18
  10
413.000000
  20
338.000000
  0
SEQEND
  8
C18
  0
POLYLINE
  8
C18
  66
1
  10
415.000000
  20
338.000000
  0
VERTEX
  8
C18
  10
415.000000
  20
338.000000
  0
VERTEX
  8
C18
  10
416.000000
  20
337.000000
  0
VERTEX
  8
C18
  10
415.000000
  20
338.000000
  0
SEQEND
  8
C7
  0
POLYLINE
  8
C7
  66
1
  10
425.000000
  20
337.000000
  0
VERTEX
  8
C7
  10
425.000000
  20
337.000000
  0
VERTEX
  8
C7
  10
426.000000
  20
336.000000
  0
VERTEX
  8
C7
  10
425.000000
  20
337.000000
  0
SEQEND
  8
C7
  0
POLYLINE
  8
C7
  66
1
  10
430.000000
  20
337.000000
  0
VERTEX
  8
C7
  10
430.000000
  20
337.000000
  0
VERTEX
  8
C7
  10
431.000000
  20
336.000000
  0
VERTEX
  8
C7
  10
430.000000
  20
337.000000
  0
SEQEND
  8
C18
  0
POLYLINE
  8
C18
  66
1
  10
413.000000
  20
336.000000
  0
VERTEX
  8
C18
  10
413.000000
  20
336.000000
  0
VERTEX
  8
C18
  10
414.000000
  20
335.000000
  0
VERTEX
  8
C18
  10
413.000000
  20
336.000000
  0
SEQEND
  8
C18
  0
POLYLINE
  8
C18
  66
1
  10
415.000000
  20
336.000000
  0
VERTEX
  8
C18
  10
415.000000
  20
336.000000
  0
VERTEX
  8
C18
  10
416.000000
  20
335.000000
  0
VERTEX
  8
C18
  10
415.000000
  20
336.000000
  0
SEQEND
  8
C7
  0
POLYLINE
  8
C7
  66
1
  10
427.000000
  20
336.000000
  0
VERTEX
  8
C7
  10
427.000000
  20
336.000000
  0
VERTEX
  8
C7
  10
428.000000
  20
335.000000
  0
VERTEX
  8
C7
  10
427.000000
  20
336.000000
  0
SEQEND
  8
C18
  0
POLYLINE
  8
C18
  66
1
  10
414.000000
  20
334.000000
  0
VERTEX
  8
C18
  10
414.000000
  20
334.000000
  0
VERTEX
  8
C18
  10
415.000000
  20
333.000000
  0
VERTEX
  8
C18
  10
414.000000
  20
334.000000
  0
SEQEND
  8
C7
  0
POLYLINE
  8
C7
  66
1
  10
428.000000
  20
334.000000
  0
VERTEX
  8
C7
  10
428.000000
  20
334.000000
  0
VERTEX
  8
C7
  10
429.000000
  20
333.000000
  0
VERTEX
  8
C7
  10
428.000000
  20
334.000000
  0
SEQEND
  8
C7
  0
POLYLINE
  8
C7
  66
1
  10
430.000000
  20
333.000000
  0
VERTEX
  8
C7
  10
430.000000
  20
333.000000
  0
VERTEX
  8
C7
  10
431.000000
  20
332.000000
  0
VERTEX
  8
C7
  10
430.000000
  20
333.000000
  0
SEQEND
  8
C18
  0
POLYLINE
  8
C18
  66
1
  10
413.000000
  20
331.000000
  0
VERTEX
  8
C18
  10
413.000000
  20
331.000000
  0
VERTEX
  8
C18
  10
414.000000
  20
330.000000
  0
VERTEX
  8
C18
  10
413.000000
  20
331.000000
  0
SEQEND
  8
C18
  0
POLYLINE
  8
C18
  66
1
  10
415.000000
  20
331.000000
  0
VERTEX
  8
C18
  10
415.000000
  20
331.000000
  0
VERTEX
  8
C18
  10
416.000000
  20
330.000000
  0
VERTEX
  8
C18
  10
415.000000
  20
331.000000
  0
SEQEND
  8
C7
  0
POLYLINE
  8
C7
  66
1
  10
428.000000
  20
331.000000
  0
VERTEX
  8
C7
  10
428.000000
  20
331.000000
  0
VERTEX
  8
C7
  10
431.000000
  20
328.000000
  0
VERTEX
  8
C7
  10
428.000000
  20
331.000000
  0
SEQEND
  8
C18
  0
POLYLINE
  8
C18
  66
1
  10
420.000000
  20
330.000000
  0
VERTEX
  8
C18
  10
420.000000
  20
330.000000
  0
VERTEX
  8
C18
  10
420.000000
  20
326.000000
  0
VERTEX
  8
C18
  10
420.000000
  20
330.000000
  0
SEQEND
  8
C18
  0
POLYLINE
  8
C18
  66
1
  10
411.000000
  20
329.000000
  0
VERTEX
  8
C18
  10
411.000000
  20
329.000000
  0
VERTEX
  8
C18
  10
412.000000
  20
328.000000
  0
VERTEX
  8
C18
  10
411.000000
  20
329.000000
  0
SEQEND
  8
C18
  0
POLYLINE
  8
C18
  66
1
  10
415.000000
  20
329.000000
  0
VERTEX
  8
C18
  10
415.000000
  20
329.000000
  0
VERTEX
  8
C18
  10
416.000000
  20
328.000000
  0
VERTEX
  8
C18
  10
415.000000
  20
329.000000
  0
SEQEND
  8
C18
  0
POLYLINE
  8
C18
  66
1
  10
413.000000
  20
328.000000
  0
VERTEX
  8
C18
  10
413.000000
  20
328.000000
  0
VERTEX
  8
C18
  10
414.000000
  20
327.000000
  0
VERTEX
  8
C18
  10
413.000000
  20
328.000000
  0
SEQEND
  8
C18
  0
POLYLINE
  8
C18
  66
1
  10
415.000000
  20
327.000000
  0
VERTEX
  8
C18
  10
415.000000
  20
327.000000
  0
VERTEX
  8
C18
  10
416.000000
  20
326.000000
  0
VERTEX
  8
C18
  10
415.000000
  20
327.000000
  0
SEQEND
  8
C7
  0
POLYLINE
  8
C7
  66
1
  10
428.000000
  20
326.000000
  0
VERTEX
  8
C7
  10
428.000000
  20
326.000000
  0
VERTEX
  8
C7
  10
429.000000
  20
325.000000
  0
VERTEX
  8
C7
  10
428.000000
  20
326.000000
  0
SEQEND
  8
C7
  0
POLYLINE
  8
C7
  66
1
  10
431.000000
  20
326.000000
  0
VERTEX
  8
C7
  10
431.000000
  20
326.000000
  0
VERTEX
  8
C7
  10
432.000000
  20
325.000000
  0
VERTEX
  8
C7
  10
431.000000
  20
326.000000
  0
SEQEND
  8
C18
  0
POLYLINE
  8
C18
  66
1
  10
413.000000
  20
325.000000
  0
VERTEX
  8
C18
  10
413.000000
  20
325.000000
  0
VERTEX
  8
C18
  10
414.000000
  20
324.000000
  0
VERTEX
  8
C18
  10
413.000000
  20
325.000000
  0
SEQEND
  8
C18
  0
POLYLINE
  8
C18
  66
1
  10
416.000000
  20
325.000000
  0
VERTEX
  8
C18
  10
416.000000
  20
325.000000
  0
VERTEX
  8
C18
  10
417.000000
  20
324.000000
  0
VERTEX
  8
C18
  10
416.000000
  20
325.000000
  0
SEQEND
  8
C18
  0
POLYLINE
  8
C18
  66
1
  10
411.000000
  20
324.000000
  0
VERTEX
  8
C18
  10
411.000000
  20
324.000000
  0
VERTEX
  8
C18
  10
412.000000
  20
323.000000
  0
VERTEX
  8
C18
  10
411.000000
  20
324.000000
  0
SEQEND
  8
C18
  0
POLYLINE
  8
C18
  66
1
  10
414.000000
  20
323.000000
  0
VERTEX
  8
C18
  10
414.000000
  20
323.000000
  0
VERTEX
  8
C18
  10
416.000000
  20
321.000000
  0
VERTEX
  8
C18
  10
414.000000
  20
323.000000
  0
SEQEND
  8
C7
  0
POLYLINE
  8
C7
  66
1
  10
425.000000
  20
323.000000
  0
VERTEX
  8
C7
  10
425.000000
  20
323.000000
  0
VERTEX
  8
C7
  10
426.000000
  20
322.000000
  0
VERTEX
  8
C7
  10
425.000000
  20
323.000000
  0
SEQEND
  8
C7
  0
POLYLINE
  8
C7
  66
1
  10
423.333344
  20
321.333344
  0
VERTEX
  8
C7
  10
423.333344
  20
321.333344
  0
VERTEX
  8
C7
  10
423.666656
  20
320.666656
  0
VERTEX
  8
C7
  10
423.333344
  20
321.333344
  0
SEQEND
  8
C18
  0
POLYLINE
  8
C18
  66
1
  10
412.000000
  20
321.000000
  0
VERTEX
  8
C18
  10
412.000000
  20
321.000000
  0
VERTEX
  8
C18
  10
414.000000
  20
319.000000
  0
VERTEX
  8
C18
  10
412.000000
  20
321.000000
  0
SEQEND
  8
C7
  0
POLYLINE
  8
C7
  66
1
  10
421.000000
  20
321.000000
  0
VERTEX
  8
C7
  10
421.000000
  20
321.000000
  0
VERTEX
  8
C7
  10
422.000000
  20
320.000000
  0
VERTEX
  8
C7
  10
421.000000
  20
321.000000
  0
SEQEND
  8
C7
  0
POLYLINE
  8
C7
  66
1
  10
425.000000
  20
321.000000
  0
VERTEX
  8
C7
  10
425.000000
  20
321.000000
  0
VERTEX
  8
C7
  10
426.000000
  20
320.000000
  0
VERTEX
  8
C7
  10
425.000000
  20
321.000000
  0
SEQEND
  8
C18
  0
POLYLINE
  8
C18
  66
1
  10
415.000000
  20
320.000000
  0
VERTEX
  8
C18
  10
415.000000
  20
320.000000
  0
VERTEX
  8
C18
  10
416.000000
  20
319.000000
  0
VERTEX
  8
C18
  10
415.000000
  20
320.000000
  0
SEQEND
  8
0
  0
ENDSEC
  0
EOF
