<?xml version="1.0" encoding="UTF-8" standalone="no"?>
<!-- Created with Serif DrawPlus 12,0,4,27 (May 24, 08:37:51) (http://www.serif.com) -->
<svg version="1.1" xmlns="http://www.w3.org/2000/svg" xmlns:xlink="http://www.w3.org/1999/xlink" xmlns:i="http://ns.adobe.com/AdobeIllustrator/10.0/" width="470.891" height="137.287">
	<g id="dp_group001" transform="matrix(1,0,0,1,-96.3987,-361.267)">
		<g id="dp_dp002" transform="matrix(1,0,0,1,392.028,441.368)">
			<path id="dp_path003" fill="#ee3337" stroke="#ee3337" stroke-width="0.666667" d="M -109.773,-50.616 L -94.7067,-50.616 C -89.9493,-50.616 -86.344,-50.2907 -83.8907,-49.6453 C -81.4373,-49 -79.4587,-47.6933 -77.9547,-45.7253 C -76.4453,-43.7573 -75.6933,-40.584 -75.6933,-36.2107 C -75.6933,-33.2507 -76.2267,-31.192 -77.288,-30.024 C -78.3547,-28.856 -80.4507,-27.96 -83.5867,-27.336 C -80.0987,-26.648 -77.7307,-25.5067 -76.488,-23.912 C -75.2453,-22.3173 -74.6267,-19.8747 -74.6267,-16.5787 L -74.6267,-11.8853 C -74.6267,-8.46667 -75.0747,-5.93333 -75.9707,-4.28533 C -76.8667,-2.64267 -78.296,-1.512 -80.2587,-0.909333 C -82.216,-0.306667 -86.2373,-0.00266667 -92.3067,-0.00266667 L -109.773,-0.00266667 Z M -94.68,-41.976 L -94.68,-30.7227 C -94.0347,-30.744 -93.528,-30.7547 -93.1707,-30.7547 C -91.6827,-30.7547 -90.7387,-31.0747 -90.3333,-31.7093 C -89.9227,-32.344 -89.72,-34.1627 -89.72,-37.16 C -89.72,-38.744 -89.8853,-39.8533 -90.2213,-40.4933 C -90.5573,-41.128 -90.9947,-41.528 -91.5333,-41.6933 C -92.072,-41.8587 -93.1227,-41.9547 -94.68,-41.976 Z M -94.68,-22.8293 L -94.68,-8.64267 C -92.5467,-8.70667 -91.1867,-9 -90.6,-9.51733 C -90.0133,-10.04 -89.72,-11.3253 -89.72,-13.3733 L -89.72,-18.0987 C -89.72,-20.2693 -89.9813,-21.5867 -90.5093,-22.0453 C -91.0373,-22.504 -92.4293,-22.7653 -94.68,-22.8293 Z "/>
			<path id="dp_path004" fill="#ee3337" stroke="#ee3337" stroke-width="0.666667" d="M -34.648,-20.9787 C -34.648,-15.8907 -34.7867,-12.2907 -35.0587,-10.1787 C -35.336,-8.06133 -36.1947,-6.12533 -37.6453,-4.376 C -39.0907,-2.62667 -41.0427,-1.28267 -43.5067,-0.344 C -45.9707,0.594667 -48.84,1.064 -52.1147,1.064 C -55.224,1.064 -58.0133,0.621333 -60.488,-0.264 C -62.9627,-1.14933 -64.952,-2.47733 -66.4613,-4.25333 C -67.9653,-6.024 -68.8613,-7.94933 -69.1493,-10.0347 C -69.4373,-12.12 -69.5813,-15.768 -69.5813,-20.9787 L -69.5813,-29.64 C -69.5813,-34.728 -69.4427,-38.328 -69.1707,-40.44 C -68.8933,-42.5573 -68.0347,-44.4933 -66.584,-46.2427 C -65.1387,-47.992 -63.1867,-49.336 -60.7227,-50.2747 C -58.2587,-51.2133 -55.3893,-51.6827 -52.1147,-51.6827 C -49.0053,-51.6827 -46.216,-51.24 -43.7413,-50.3547 C -41.2667,-49.4693 -39.2773,-48.1413 -37.768,-46.3653 C -36.264,-44.5947 -35.368,-42.6693 -35.08,-40.584 C -34.792,-38.4987 -34.648,-34.8507 -34.648,-29.64 Z M -49.7413,-37.5973 C -49.7413,-39.9547 -49.8907,-41.4587 -50.1893,-42.1147 C -50.488,-42.7707 -51.1067,-43.096 -52.0453,-43.096 C -52.8347,-43.096 -53.4373,-42.8293 -53.8587,-42.3013 C -54.28,-41.768 -54.488,-40.2 -54.488,-37.5973 L -54.488,-13.9867 C -54.488,-11.0533 -54.3493,-9.24 -54.072,-8.552 C -53.8,-7.864 -53.16,-7.52267 -52.152,-7.52267 C -51.1173,-7.52267 -50.4613,-7.91733 -50.1733,-8.712 C -49.8853,-9.50133 -49.7413,-11.384 -49.7413,-14.3653 Z "/>
			<path id="dp_path005" fill="#ee3337" stroke="#ee3337" stroke-width="0.666667" d="M -29.048,-50.616 L -18.36,-50.616 C -11.24,-50.616 -6.41333,-50.376 -3.896,-49.896 C -1.37333,-49.416 0.685333,-48.1947 2.27467,-46.2267 C 3.864,-44.2587 4.65867,-41.1173 4.65867,-36.8027 C 4.65867,-32.8667 4.09867,-30.2213 2.97333,-28.8667 C 1.85333,-27.5173 -0.36,-26.7013 -3.656,-26.4293 C -0.669333,-25.784 1.336,-24.92 2.36533,-23.8373 C 3.39467,-22.7493 4.02933,-21.7573 4.28,-20.8507 C 4.53067,-19.944 4.65867,-17.4427 4.65867,-13.3573 L 4.65867,-0.00266667 L -9.368,-0.00266667 L -9.368,-16.824 C -9.368,-19.5387 -9.61333,-21.2133 -10.104,-21.8587 C -10.5947,-22.504 -11.8747,-22.8293 -13.9547,-22.8293 L -13.9547,-0.00266667 L -29.048,-0.00266667 Z M -13.9547,-41.976 L -13.9547,-30.7227 C -12.2587,-30.7227 -11.0693,-30.9253 -10.3867,-31.3307 C -9.70933,-31.736 -9.368,-33.0587 -9.368,-35.288 L -9.368,-38.0667 C -9.368,-39.672 -9.69867,-40.7227 -10.3547,-41.224 C -11.0107,-41.7253 -12.2107,-41.976 -13.9547,-41.976 Z "/>
			<path id="dp_path006" fill="#ee3337" stroke="#ee3337" stroke-width="0.666667" d="M 45.0533,-20.9787 C 45.0533,-15.8907 44.9147,-12.2907 44.6427,-10.1787 C 44.3653,-8.06133 43.5067,-6.12533 42.056,-4.376 C 40.6107,-2.62667 38.6587,-1.28267 36.1947,-0.344 C 33.7307,0.594667 30.8613,1.064 27.5867,1.064 C 24.4773,1.064 21.688,0.621333 19.2133,-0.264 C 16.7387,-1.14933 14.7493,-2.47733 13.24,-4.25333 C 11.736,-6.024 10.84,-7.94933 10.552,-10.0347 C 10.264,-12.12 10.12,-15.768 10.12,-20.9787 L 10.12,-29.64 C 10.12,-34.728 10.2587,-38.328 10.5307,-40.44 C 10.808,-42.5573 11.6667,-44.4933 13.1173,-46.2427 C 14.5627,-47.992 16.5147,-49.336 18.9787,-50.2747 C 21.4427,-51.2133 24.312,-51.6827 27.5867,-51.6827 C 30.696,-51.6827 33.4853,-51.24 35.96,-50.3547 C 38.4347,-49.4693 40.424,-48.1413 41.9333,-46.3653 C 43.4373,-44.5947 44.3333,-42.6693 44.6213,-40.584 C 44.9093,-38.4987 45.0533,-34.8507 45.0533,-29.64 Z M 29.96,-37.5973 C 29.96,-39.9547 29.8107,-41.4587 29.512,-42.1147 C 29.2133,-42.7707 28.5947,-43.096 27.656,-43.096 C 26.8667,-43.096 26.264,-42.8293 25.8427,-42.3013 C 25.4213,-41.768 25.2133,-40.2 25.2133,-37.5973 L 25.2133,-13.9867 C 25.2133,-11.0533 25.352,-9.24 25.6293,-8.552 C 25.9013,-7.864 26.5413,-7.52267 27.5493,-7.52267 C 28.584,-7.52267 29.24,-7.91733 29.528,-8.712 C 29.816,-9.50133 29.96,-11.384 29.96,-14.3653 Z "/>
			<path id="dp_path007" fill="#ee3337" stroke="#ee3337" stroke-width="0.666667" d="M 84.36,-50.616 L 84.36,-0.00266667 L 71.1333,-0.00266667 L 63.2933,-23.0107 L 63.2933,-0.00266667 L 50.6533,-0.00266667 L 50.6533,-50.616 L 63.24,-50.616 L 71.72,-27.8267 L 71.72,-50.616 Z "/>
			<path id="dp_path008" fill="#ee3337" stroke="#ee3337" stroke-width="0.666667" d="M 105.512,-50.616 L 105.512,-0.00266667 L 90.4187,-0.00266667 L 90.4187,-50.616 Z "/>
			<path id="dp_path009" fill="#ee3337" stroke="#ee3337" stroke-width="0.666667" d="M 141.981,-50.616 L 141.981,-40.4827 L 133.021,-40.4827 L 133.021,-0.00266667 L 117.928,-0.00266667 L 117.928,-40.4827 L 109.021,-40.4827 L 109.021,-50.616 Z "/>
			<path id="dp_path010" fill="#ee3337" stroke="#ee3337" stroke-width="0.666667" d="M 145.373,-50.616 L 170.547,-50.616 L 170.547,-40.4827 L 160.467,-40.4827 L 160.467,-30.8827 L 169.907,-30.8827 L 169.907,-21.2827 L 160.467,-21.2827 L 160.467,-10.136 L 171.56,-10.136 L 171.56,-0.00266667 L 145.373,-0.00266667 Z "/>
		</g>
		<g id="dp_group011">
			<path id="dp_path012" fill="none" fill-rule="evenodd" stroke="#ee3337" stroke-width="6.66667" d="M 110.941,460.701 L 178.348,460.701"/>
			<path id="dp_path013" fill="none" fill-rule="evenodd" stroke="#ee3337" stroke-width="6.66667" d="M 119.483,372.397 L 186.888,372.397"/>
			<path id="dp_path014" fill="none" fill-rule="evenodd" stroke="#ee3337" stroke-width="6.66667" d="M 96.3987,416.596 L 163.804,416.596"/>
			<path id="dp_path015" fill="#ee3337" fill-rule="evenodd" stroke="#ee3337" stroke-width="6.66667" d="M 257.955,416.533 L 230.368,464.204 L 175.348,464.117 L 147.912,416.361 L 175.497,368.691 L 230.519,368.777 Z "/>
			<path id="dp_path016" fill="none" fill-rule="evenodd" stroke="white" stroke-width="6.66667" d="M 234.081,416.676 L 212.4,454.161 L 169.155,454.093 L 147.592,416.54 L 169.273,379.053 L 212.519,379.121 Z "/>
			<path id="dp_path017" fill="white" fill-rule="evenodd" stroke="#ee3337" stroke-width="6.66667" d="M 224.677,416.409 L 214.119,436.351 L 193.065,436.317 L 182.571,416.344 L 193.128,396.403 L 214.181,396.436 Z "/>
		</g>
		<g id="dp_dp018" transform="matrix(1,0,0,1,128.667,493.376)">
			<path id="dp_path019" fill="#201f1f" d="M 0.906667,0 L 4.05333,-15.2707 L 14.9867,-15.2707 L 14.6453,-13.5467 L 5.696,-13.5467 L 4.71067,-8.764 L 13.4573,-8.764 L 13.1027,-7.04 L 4.356,-7.04 L 3.26,-1.724 L 12.796,-1.724 L 12.436,0 Z "/>
			<path id="dp_path020" fill="#201f1f" d="M 13.96,0 L 18.712,-5.62533 L 15.9867,-11.076 L 18.0493,-11.076 L 18.9827,-9.10267 C 19.3307,-8.368 19.6373,-7.67867 19.9,-7.02933 L 23.0267,-11.076 L 25.3027,-11.076 L 20.7387,-5.49733 L 23.5067,0 L 21.4453,0 L 20.336,-2.252 C 20.1067,-2.732 19.8453,-3.328 19.5533,-4.03867 L 16.2893,0 Z "/>
			<path id="dp_path021" fill="#201f1f" d="M 29.572,-1.524 L 29.2627,0.0173333 C 28.8187,0.137333 28.3867,0.196 27.9693,0.196 C 27.2307,0.196 26.6413,0.0106667 26.204,-0.358667 C 25.8747,-0.638667 25.7107,-1.01733 25.7107,-1.49867 C 25.7107,-1.74267 25.8,-2.304 25.9773,-3.18267 L 27.3107,-9.636 L 25.836,-9.636 L 26.1373,-11.076 L 27.6133,-11.076 L 28.1773,-13.78 L 30.2973,-15.076 L 29.4627,-11.076 L 31.2933,-11.076 L 30.9733,-9.636 L 29.16,-9.636 L 27.8973,-3.49733 C 27.74,-2.71467 27.6613,-2.24933 27.6613,-2.09467 C 27.6613,-1.872 27.7253,-1.70133 27.852,-1.58267 C 27.9773,-1.46267 28.1853,-1.404 28.472,-1.404 C 28.8827,-1.404 29.2507,-1.444 29.572,-1.524 Z "/>
			<path id="dp_path022" fill="#201f1f" d="M 31.0893,0 L 33.3653,-11.076 L 35.0227,-11.076 L 34.556,-8.82 C 35.12,-9.67067 35.6707,-10.3027 36.208,-10.7107 C 36.7467,-11.12 37.296,-11.324 37.856,-11.324 C 38.2253,-11.324 38.6827,-11.1827 39.2227,-10.8973 L 38.4627,-9.156 C 38.14,-9.404 37.788,-9.52933 37.404,-9.52933 C 36.756,-9.52933 36.0853,-9.15867 35.3987,-8.42 C 34.7133,-7.68133 34.172,-6.35333 33.7773,-4.436 L 32.8547,0 Z "/>
			<path id="dp_path023" fill="#201f1f" d="M 45.4293,-1.37467 C 44.7853,-0.812 44.1653,-0.401333 43.5693,-0.14 C 42.9747,0.118667 42.3373,0.249333 41.6587,0.249333 C 40.652,0.249333 39.8413,-0.052 39.2253,-0.652 C 38.608,-1.25333 38.3,-2.02267 38.3,-2.96133 C 38.3,-3.58 38.4387,-4.128 38.716,-4.604 C 38.9933,-5.08133 39.3613,-5.46267 39.82,-5.75067 C 40.2787,-6.03867 40.8387,-6.24533 41.504,-6.372 C 41.9147,-6.45467 42.708,-6.52133 43.8813,-6.56933 C 45.052,-6.61733 45.8933,-6.74267 46.404,-6.944 C 46.548,-7.45733 46.62,-7.88667 46.62,-8.22533 C 46.62,-8.66267 46.4627,-9.00667 46.1453,-9.25733 C 45.712,-9.604 45.0787,-9.77733 44.2467,-9.77733 C 43.4627,-9.77733 42.8213,-9.604 42.3213,-9.25467 C 41.824,-8.90667 41.4613,-8.41067 41.2333,-7.76933 L 39.3667,-7.92933 C 39.7507,-9.02533 40.3587,-9.86667 41.1907,-10.4493 C 42.0227,-11.0333 43.0733,-11.324 44.3413,-11.324 C 45.6907,-11.324 46.7587,-10.9973 47.5467,-10.3453 C 48.1493,-9.85733 48.452,-9.22533 48.452,-8.44667 C 48.452,-7.856 48.3667,-7.172 48.1933,-6.39333 L 47.5853,-3.63867 C 47.392,-2.76267 47.296,-2.052 47.296,-1.50267 C 47.296,-1.15333 47.372,-0.654667 47.524,0 L 45.6467,0 C 45.5427,-0.361333 45.4707,-0.82 45.4293,-1.37467 Z M 46.1227,-5.60933 C 45.8613,-5.504 45.58,-5.424 45.2813,-5.36933 C 44.9813,-5.31333 44.484,-5.25467 43.7853,-5.19067 C 42.6973,-5.09467 41.9293,-4.97067 41.4827,-4.82133 C 41.0347,-4.672 40.6987,-4.43333 40.4707,-4.10667 C 40.2453,-3.78133 40.132,-3.41867 40.132,-3.02267 C 40.132,-2.49467 40.3107,-2.06 40.672,-1.71867 C 41.0333,-1.38 41.5467,-1.20933 42.2133,-1.20933 C 42.832,-1.20933 43.4253,-1.37467 43.996,-1.70533 C 44.5667,-2.03333 45.0173,-2.49467 45.348,-3.08667 C 45.6787,-3.676 45.9373,-4.51733 46.1227,-5.60933 Z "/>
			<path id="dp_path024" fill="#201f1f" d="M 50.0693,-4.20267 C 50.0693,-6.364 50.696,-8.15467 51.9493,-9.57333 C 52.9813,-10.7413 54.3387,-11.324 56.0147,-11.324 C 57.328,-11.324 58.388,-10.9067 59.192,-10.0733 C 59.9973,-9.23867 60.3987,-8.11333 60.3987,-6.69467 C 60.3987,-5.42267 60.1467,-4.24 59.64,-3.14533 C 59.1333,-2.04933 58.4133,-1.21067 57.4773,-0.628 C 56.5427,-0.0426667 55.56,0.249333 54.5267,0.249333 C 53.6773,0.249333 52.9053,0.064 52.2107,-0.304 C 51.5147,-0.672 50.9853,-1.19333 50.6187,-1.868 C 50.2533,-2.54267 50.0693,-3.32133 50.0693,-4.20267 Z M 51.9013,-4.39067 C 51.9013,-3.348 52.148,-2.556 52.644,-2.01733 C 53.14,-1.47867 53.7693,-1.20933 54.532,-1.20933 C 54.932,-1.20933 55.3267,-1.29067 55.72,-1.45467 C 56.1107,-1.61733 56.4773,-1.86667 56.8133,-2.19867 C 57.1507,-2.53333 57.4373,-2.91333 57.6747,-3.34267 C 57.912,-3.76933 58.104,-4.23067 58.248,-4.724 C 58.4613,-5.41333 58.568,-6.07333 58.568,-6.70533 C 58.568,-7.70667 58.3187,-8.48533 57.8187,-9.03867 C 57.3213,-9.59067 56.692,-9.86667 55.936,-9.86667 C 55.352,-9.86667 54.8187,-9.72667 54.336,-9.444 C 53.8547,-9.16267 53.4187,-8.75067 53.032,-8.208 C 52.6427,-7.66533 52.356,-7.03467 52.1747,-6.31467 C 51.992,-5.59467 51.9013,-4.95333 51.9013,-4.39067 Z "/>
			<path id="dp_path025" fill="#201f1f" d="M 61.412,0 L 63.688,-11.076 L 65.3453,-11.076 L 64.8787,-8.82 C 65.4427,-9.67067 65.9933,-10.3027 66.5307,-10.7107 C 67.0693,-11.12 67.6187,-11.324 68.1787,-11.324 C 68.548,-11.324 69.0053,-11.1827 69.5453,-10.8973 L 68.7853,-9.156 C 68.4627,-9.404 68.1107,-9.52933 67.7267,-9.52933 C 67.0787,-9.52933 66.408,-9.15867 65.7213,-8.42 C 65.036,-7.68133 64.4947,-6.35333 64.1,-4.436 L 63.1773,0 Z "/>
			<path id="dp_path026" fill="#201f1f" d="M 75.7427,-1.604 C 74.6813,-0.368 73.572,0.249333 72.4147,0.249333 C 71.3827,0.249333 70.5213,-0.138667 69.8333,-0.913333 C 69.1453,-1.68933 68.8013,-2.812 68.8013,-4.28667 C 68.8013,-5.636 69.0733,-6.868 69.6173,-7.98267 C 70.1613,-9.09867 70.8413,-9.93467 71.66,-10.4907 C 72.4773,-11.0467 73.2973,-11.324 74.1187,-11.324 C 75.4733,-11.324 76.4947,-10.6613 77.1867,-9.33333 L 78.4187,-15.2707 L 80.268,-15.2707 L 77.1213,0 L 75.4147,0 Z M 70.632,-4.644 C 70.632,-3.872 70.708,-3.26267 70.86,-2.81733 C 71.0107,-2.372 71.268,-2.00133 71.6333,-1.70533 C 71.9973,-1.40933 72.4333,-1.26267 72.9413,-1.26267 C 73.788,-1.26267 74.5533,-1.70667 75.24,-2.596 C 76.1613,-3.776 76.6227,-5.23333 76.6227,-6.96933 C 76.6227,-7.84933 76.396,-8.53733 75.9427,-9.03333 C 75.4893,-9.52933 74.9187,-9.77733 74.2307,-9.77733 C 73.784,-9.77733 73.3773,-9.676 73.0093,-9.476 C 72.6413,-9.27333 72.276,-8.932 71.916,-8.448 C 71.5547,-7.964 71.2507,-7.34933 71.004,-6.604 C 70.756,-5.86133 70.632,-5.20667 70.632,-4.644 Z "/>
			<path id="dp_path027" fill="#201f1f" d="M 82.744,-13.1373 L 83.184,-15.2707 L 85.036,-15.2707 L 84.5973,-13.1373 Z M 80.0373,0 L 82.32,-11.076 L 84.172,-11.076 L 81.8893,0 Z "/>
			<path id="dp_path028" fill="#201f1f" d="M 84.72,0 L 87.0027,-11.076 L 88.692,-11.076 L 88.304,-9.14267 C 89.0453,-9.90267 89.7387,-10.4573 90.384,-10.804 C 91.028,-11.1507 91.6853,-11.324 92.3587,-11.324 C 93.252,-11.324 93.9533,-11.0787 94.464,-10.5867 C 94.972,-10.096 95.228,-9.43867 95.228,-8.61733 C 95.228,-8.208 95.132,-7.564 94.944,-6.684 L 93.4707,0 L 91.6173,0 L 93.1467,-7.02267 C 93.2973,-7.70533 93.3747,-8.20933 93.3747,-8.53733 C 93.3747,-8.90533 93.2467,-9.204 92.992,-9.43333 C 92.7373,-9.66267 92.3693,-9.77733 91.888,-9.77733 C 90.9187,-9.77733 90.0547,-9.42933 89.3,-8.732 C 88.5427,-8.036 87.9853,-6.84133 87.6307,-5.148 L 86.572,0 Z "/>
			<path id="dp_path029" fill="#201f1f" d="M 103.741,-1.37467 C 103.097,-0.812 102.477,-0.401333 101.881,-0.14 C 101.287,0.118667 100.649,0.249333 99.9707,0.249333 C 98.964,0.249333 98.1533,-0.052 97.5373,-0.652 C 96.92,-1.25333 96.612,-2.02267 96.612,-2.96133 C 96.612,-3.58 96.7507,-4.128 97.028,-4.604 C 97.3053,-5.08133 97.6733,-5.46267 98.132,-5.75067 C 98.5907,-6.03867 99.1507,-6.24533 99.816,-6.372 C 100.227,-6.45467 101.02,-6.52133 102.193,-6.56933 C 103.364,-6.61733 104.205,-6.74267 104.716,-6.944 C 104.86,-7.45733 104.932,-7.88667 104.932,-8.22533 C 104.932,-8.66267 104.775,-9.00667 104.457,-9.25733 C 104.024,-9.604 103.391,-9.77733 102.559,-9.77733 C 101.775,-9.77733 101.133,-9.604 100.633,-9.25467 C 100.136,-8.90667 99.7733,-8.41067 99.5453,-7.76933 L 97.6787,-7.92933 C 98.0627,-9.02533 98.6707,-9.86667 99.5027,-10.4493 C 100.335,-11.0333 101.385,-11.324 102.653,-11.324 C 104.003,-11.324 105.071,-10.9973 105.859,-10.3453 C 106.461,-9.85733 106.764,-9.22533 106.764,-8.44667 C 106.764,-7.856 106.679,-7.172 106.505,-6.39333 L 105.897,-3.63867 C 105.704,-2.76267 105.608,-2.052 105.608,-1.50267 C 105.608,-1.15333 105.684,-0.654667 105.836,0 L 103.959,0 C 103.855,-0.361333 103.783,-0.82 103.741,-1.37467 Z M 104.435,-5.60933 C 104.173,-5.504 103.892,-5.424 103.593,-5.36933 C 103.293,-5.31333 102.796,-5.25467 102.097,-5.19067 C 101.009,-5.09467 100.241,-4.97067 99.7947,-4.82133 C 99.3467,-4.672 99.0107,-4.43333 98.7827,-4.10667 C 98.5573,-3.78133 98.444,-3.41867 98.444,-3.02267 C 98.444,-2.49467 98.6227,-2.06 98.984,-1.71867 C 99.3453,-1.38 99.8587,-1.20933 100.525,-1.20933 C 101.144,-1.20933 101.737,-1.37467 102.308,-1.70533 C 102.879,-2.03333 103.329,-2.49467 103.66,-3.08667 C 103.991,-3.676 104.249,-4.51733 104.435,-5.60933 Z "/>
			<path id="dp_path030" fill="#201f1f" d="M 108.061,0 L 110.337,-11.076 L 111.995,-11.076 L 111.528,-8.82 C 112.092,-9.67067 112.643,-10.3027 113.18,-10.7107 C 113.719,-11.12 114.268,-11.324 114.828,-11.324 C 115.197,-11.324 115.655,-11.1827 116.195,-10.8973 L 115.435,-9.156 C 115.112,-9.404 114.76,-9.52933 114.376,-9.52933 C 113.728,-9.52933 113.057,-9.15867 112.371,-8.42 C 111.685,-7.68133 111.144,-6.35333 110.749,-4.436 L 109.827,0 Z "/>
			<path id="dp_path031" fill="#201f1f" d="M 114.348,4.27733 L 114.455,2.5 C 114.839,2.612 115.212,2.66667 115.576,2.66667 C 115.953,2.66667 116.259,2.58 116.492,2.40667 C 116.795,2.17733 117.123,1.748 117.48,1.116 L 118.076,0.0373333 L 116.251,-11.076 L 118.081,-11.076 L 118.904,-5.472 C 119.069,-4.364 119.211,-3.25867 119.325,-2.15333 L 124.215,-11.076 L 126.151,-11.076 L 119.197,1.472 C 118.528,2.69733 117.931,3.508 117.411,3.904 C 116.891,4.3 116.291,4.49733 115.612,4.49733 C 115.18,4.49733 114.759,4.42533 114.348,4.27733 Z "/>
			<path id="dp_path032" fill="#201f1f" d="M 131.793,0 L 134.924,-15.2707 L 137.425,-15.2707 L 138.837,-5.38133 C 139.019,-4.068 139.137,-2.82133 139.195,-1.63867 C 139.608,-2.65067 140.305,-4.04133 141.283,-5.80933 L 146.571,-15.2707 L 149.079,-15.2707 L 145.923,0 L 143.941,0 L 145.523,-7.42533 C 145.884,-9.14267 146.403,-11.0627 147.085,-13.1907 C 146.643,-12.204 146.104,-11.1373 145.472,-9.99333 L 139.872,0 L 137.931,0 L 136.531,-9.80667 C 136.403,-10.7027 136.309,-11.7427 136.252,-12.924 C 136.075,-11.5693 135.904,-10.5013 135.74,-9.71733 L 133.755,0 Z "/>
			<path id="dp_path033" fill="#201f1f" d="M 156.308,-1.37467 C 155.664,-0.812 155.044,-0.401333 154.448,-0.14 C 153.853,0.118667 153.216,0.249333 152.537,0.249333 C 151.531,0.249333 150.72,-0.052 150.104,-0.652 C 149.487,-1.25333 149.179,-2.02267 149.179,-2.96133 C 149.179,-3.58 149.317,-4.128 149.595,-4.604 C 149.872,-5.08133 150.24,-5.46267 150.699,-5.75067 C 151.157,-6.03867 151.717,-6.24533 152.383,-6.372 C 152.793,-6.45467 153.587,-6.52133 154.76,-6.56933 C 155.931,-6.61733 156.772,-6.74267 157.283,-6.944 C 157.427,-7.45733 157.499,-7.88667 157.499,-8.22533 C 157.499,-8.66267 157.341,-9.00667 157.024,-9.25733 C 156.591,-9.604 155.957,-9.77733 155.125,-9.77733 C 154.341,-9.77733 153.7,-9.604 153.2,-9.25467 C 152.703,-8.90667 152.34,-8.41067 152.112,-7.76933 L 150.245,-7.92933 C 150.629,-9.02533 151.237,-9.86667 152.069,-10.4493 C 152.901,-11.0333 153.952,-11.324 155.22,-11.324 C 156.569,-11.324 157.637,-10.9973 158.425,-10.3453 C 159.028,-9.85733 159.331,-9.22533 159.331,-8.44667 C 159.331,-7.856 159.245,-7.172 159.072,-6.39333 L 158.464,-3.63867 C 158.271,-2.76267 158.175,-2.052 158.175,-1.50267 C 158.175,-1.15333 158.251,-0.654667 158.403,0 L 156.525,0 C 156.421,-0.361333 156.349,-0.82 156.308,-1.37467 Z M 157.001,-5.60933 C 156.74,-5.504 156.459,-5.424 156.16,-5.36933 C 155.86,-5.31333 155.363,-5.25467 154.664,-5.19067 C 153.576,-5.09467 152.808,-4.97067 152.361,-4.82133 C 151.913,-4.672 151.577,-4.43333 151.349,-4.10667 C 151.124,-3.78133 151.011,-3.41867 151.011,-3.02267 C 151.011,-2.49467 151.189,-2.06 151.551,-1.71867 C 151.912,-1.38 152.425,-1.20933 153.092,-1.20933 C 153.711,-1.20933 154.304,-1.37467 154.875,-1.70533 C 155.445,-2.03333 155.896,-2.49467 156.227,-3.08667 C 156.557,-3.676 156.816,-4.51733 157.001,-5.60933 Z "/>
			<path id="dp_path034" fill="#201f1f" d="M 164.969,-1.524 L 164.66,0.0173333 C 164.216,0.137333 163.784,0.196 163.367,0.196 C 162.628,0.196 162.039,0.0106667 161.601,-0.358667 C 161.272,-0.638667 161.108,-1.01733 161.108,-1.49867 C 161.108,-1.74267 161.197,-2.304 161.375,-3.18267 L 162.708,-9.636 L 161.233,-9.636 L 161.535,-11.076 L 163.011,-11.076 L 163.575,-13.78 L 165.695,-15.076 L 164.86,-11.076 L 166.691,-11.076 L 166.371,-9.636 L 164.557,-9.636 L 163.295,-3.49733 C 163.137,-2.71467 163.059,-2.24933 163.059,-2.09467 C 163.059,-1.872 163.123,-1.70133 163.249,-1.58267 C 163.375,-1.46267 163.583,-1.404 163.869,-1.404 C 164.28,-1.404 164.648,-1.444 164.969,-1.524 Z "/>
			<path id="dp_path035" fill="#201f1f" d="M 174.503,-3.716 L 176.309,-3.556 C 176.049,-2.65067 175.451,-1.79067 174.513,-0.974667 C 173.577,-0.158667 172.46,0.249333 171.163,0.249333 C 170.353,0.249333 169.611,0.0586667 168.935,-0.32 C 168.26,-0.698667 167.744,-1.24933 167.391,-1.972 C 167.036,-2.69467 166.86,-3.51867 166.86,-4.44267 C 166.86,-5.65333 167.136,-6.82533 167.689,-7.96267 C 168.241,-9.09867 168.956,-9.94267 169.835,-10.496 C 170.713,-11.0493 171.663,-11.324 172.684,-11.324 C 173.988,-11.324 175.029,-10.9133 175.808,-10.0947 C 176.587,-9.27333 176.976,-8.15467 176.976,-6.736 C 176.976,-6.19333 176.928,-5.63733 176.832,-5.06667 L 168.78,-5.06667 C 168.757,-4.852 168.745,-4.65733 168.745,-4.484 C 168.745,-3.44933 168.98,-2.66 169.451,-2.116 C 169.92,-1.56933 170.496,-1.29733 171.175,-1.29733 C 171.815,-1.29733 172.443,-1.50533 173.061,-1.92 C 173.679,-2.33467 174.159,-2.93333 174.503,-3.716 Z M 169.079,-6.50667 L 175.223,-6.50667 C 175.231,-6.70267 175.233,-6.84133 175.233,-6.924 C 175.233,-7.87333 175.001,-8.60267 174.533,-9.108 C 174.065,-9.61467 173.465,-9.86667 172.729,-9.86667 C 171.932,-9.86667 171.205,-9.588 170.548,-9.02933 C 169.892,-8.47067 169.403,-7.63067 169.079,-6.50667 Z "/>
			<path id="dp_path036" fill="#201f1f" d="M 178.149,0 L 180.425,-11.076 L 182.083,-11.076 L 181.616,-8.82 C 182.18,-9.67067 182.731,-10.3027 183.268,-10.7107 C 183.807,-11.12 184.356,-11.324 184.916,-11.324 C 185.285,-11.324 185.743,-11.1827 186.283,-10.8973 L 185.523,-9.156 C 185.2,-9.404 184.848,-9.52933 184.464,-9.52933 C 183.816,-9.52933 183.145,-9.15867 182.459,-8.42 C 181.773,-7.68133 181.232,-6.35333 180.837,-4.436 L 179.915,0 Z "/>
			<path id="dp_path037" fill="#201f1f" d="M 187.819,-13.1373 L 188.259,-15.2707 L 190.111,-15.2707 L 189.672,-13.1373 Z M 185.112,0 L 187.395,-11.076 L 189.247,-11.076 L 186.964,0 Z "/>
			<path id="dp_path038" fill="#201f1f" d="M 197.155,-1.37467 C 196.511,-0.812 195.891,-0.401333 195.295,-0.14 C 194.7,0.118667 194.063,0.249333 193.384,0.249333 C 192.377,0.249333 191.567,-0.052 190.951,-0.652 C 190.333,-1.25333 190.025,-2.02267 190.025,-2.96133 C 190.025,-3.58 190.164,-4.128 190.441,-4.604 C 190.719,-5.08133 191.087,-5.46267 191.545,-5.75067 C 192.004,-6.03867 192.564,-6.24533 193.229,-6.372 C 193.64,-6.45467 194.433,-6.52133 195.607,-6.56933 C 196.777,-6.61733 197.619,-6.74267 198.129,-6.944 C 198.273,-7.45733 198.345,-7.88667 198.345,-8.22533 C 198.345,-8.66267 198.188,-9.00667 197.871,-9.25733 C 197.437,-9.604 196.804,-9.77733 195.972,-9.77733 C 195.188,-9.77733 194.547,-9.604 194.047,-9.25467 C 193.549,-8.90667 193.187,-8.41067 192.959,-7.76933 L 191.092,-7.92933 C 191.476,-9.02533 192.084,-9.86667 192.916,-10.4493 C 193.748,-11.0333 194.799,-11.324 196.067,-11.324 C 197.416,-11.324 198.484,-10.9973 199.272,-10.3453 C 199.875,-9.85733 200.177,-9.22533 200.177,-8.44667 C 200.177,-7.856 200.092,-7.172 199.919,-6.39333 L 199.311,-3.63867 C 199.117,-2.76267 199.021,-2.052 199.021,-1.50267 C 199.021,-1.15333 199.097,-0.654667 199.249,0 L 197.372,0 C 197.268,-0.361333 197.196,-0.82 197.155,-1.37467 Z M 197.848,-5.60933 C 197.587,-5.504 197.305,-5.424 197.007,-5.36933 C 196.707,-5.31333 196.209,-5.25467 195.511,-5.19067 C 194.423,-5.09467 193.655,-4.97067 193.208,-4.82133 C 192.76,-4.672 192.424,-4.43333 192.196,-4.10667 C 191.971,-3.78133 191.857,-3.41867 191.857,-3.02267 C 191.857,-2.49467 192.036,-2.06 192.397,-1.71867 C 192.759,-1.38 193.272,-1.20933 193.939,-1.20933 C 194.557,-1.20933 195.151,-1.37467 195.721,-1.70533 C 196.292,-2.03333 196.743,-2.49467 197.073,-3.08667 C 197.404,-3.676 197.663,-4.51733 197.848,-5.60933 Z "/>
			<path id="dp_path039" fill="#201f1f" d="M 201.345,0 L 204.497,-15.2707 L 206.349,-15.2707 L 203.197,0 Z "/>
			<path id="dp_path040" fill="#201f1f" d="M 206.319,-3.78667 L 208.185,-3.89333 C 208.185,-3.35333 208.267,-2.89067 208.431,-2.51067 C 208.596,-2.128 208.897,-1.81467 209.339,-1.57333 C 209.78,-1.32933 210.293,-1.20933 210.88,-1.20933 C 211.701,-1.20933 212.315,-1.376 212.725,-1.708 C 213.136,-2.04133 213.34,-2.43333 213.34,-2.88533 C 213.34,-3.21067 213.217,-3.52 212.972,-3.812 C 212.719,-4.10267 212.101,-4.46267 211.121,-4.89067 C 210.14,-5.31867 209.513,-5.62133 209.239,-5.796 C 208.779,-6.08 208.432,-6.416 208.197,-6.80133 C 207.964,-7.188 207.847,-7.632 207.847,-8.132 C 207.847,-9.008 208.191,-9.76 208.875,-10.3853 C 209.559,-11.012 210.517,-11.324 211.749,-11.324 C 213.119,-11.324 214.16,-11.0027 214.875,-10.3613 C 215.591,-9.71733 215.963,-8.87067 215.989,-7.82267 L 214.176,-7.69733 C 214.149,-8.364 213.916,-8.89467 213.479,-9.284 C 213.04,-9.67333 212.421,-9.86667 211.621,-9.86667 C 210.977,-9.86667 210.479,-9.71733 210.123,-9.41867 C 209.767,-9.12 209.589,-8.796 209.589,-8.448 C 209.589,-8.1 209.743,-7.79333 210.049,-7.53067 C 210.256,-7.34933 210.785,-7.07067 211.641,-6.69467 C 213.063,-6.068 213.957,-5.57333 214.327,-5.212 C 214.913,-4.63467 215.207,-3.93467 215.207,-3.108 C 215.207,-2.55867 215.041,-2.02 214.709,-1.492 C 214.377,-0.964 213.872,-0.542667 213.191,-0.225333 C 212.511,0.0906667 211.707,0.249333 210.784,0.249333 C 209.525,0.249333 208.453,-0.068 207.572,-0.7 C 206.688,-1.33333 206.271,-2.36133 206.319,-3.78667 Z "/>
			<path id="dp_path041" fill="#201f1f" d="M 222.72,0 L 224.732,-9.636 L 223.093,-9.636 L 223.396,-11.076 L 225.04,-11.076 L 225.356,-12.64 C 225.521,-13.42 225.691,-13.984 225.865,-14.3293 C 226.039,-14.6733 226.321,-14.9587 226.715,-15.184 C 227.108,-15.408 227.643,-15.52 228.32,-15.52 C 228.793,-15.52 229.477,-15.4187 230.375,-15.216 L 230.036,-13.5693 C 229.407,-13.732 228.879,-13.8133 228.455,-13.8133 C 228.091,-13.8133 227.815,-13.7227 227.628,-13.5413 C 227.44,-13.36 227.276,-12.9293 227.14,-12.252 L 226.895,-11.076 L 228.977,-11.076 L 228.676,-9.636 L 226.585,-9.636 L 224.575,0 Z "/>
			<path id="dp_path042" fill="#201f1f" d="M 228.704,-4.20267 C 228.704,-6.364 229.331,-8.15467 230.584,-9.57333 C 231.616,-10.7413 232.973,-11.324 234.649,-11.324 C 235.963,-11.324 237.023,-10.9067 237.827,-10.0733 C 238.632,-9.23867 239.033,-8.11333 239.033,-6.69467 C 239.033,-5.42267 238.781,-4.24 238.275,-3.14533 C 237.768,-2.04933 237.048,-1.21067 236.112,-0.628 C 235.177,-0.0426667 234.195,0.249333 233.161,0.249333 C 232.312,0.249333 231.54,0.064 230.845,-0.304 C 230.149,-0.672 229.62,-1.19333 229.253,-1.868 C 228.888,-2.54267 228.704,-3.32133 228.704,-4.20267 Z M 230.536,-4.39067 C 230.536,-3.348 230.783,-2.556 231.279,-2.01733 C 231.775,-1.47867 232.404,-1.20933 233.167,-1.20933 C 233.567,-1.20933 233.961,-1.29067 234.355,-1.45467 C 234.745,-1.61733 235.112,-1.86667 235.448,-2.19867 C 235.785,-2.53333 236.072,-2.91333 236.309,-3.34267 C 236.547,-3.76933 236.739,-4.23067 236.883,-4.724 C 237.096,-5.41333 237.203,-6.07333 237.203,-6.70533 C 237.203,-7.70667 236.953,-8.48533 236.453,-9.03867 C 235.956,-9.59067 235.327,-9.86667 234.571,-9.86667 C 233.987,-9.86667 233.453,-9.72667 232.971,-9.444 C 232.489,-9.16267 232.053,-8.75067 231.667,-8.208 C 231.277,-7.66533 230.991,-7.03467 230.809,-6.31467 C 230.627,-5.59467 230.536,-4.95333 230.536,-4.39067 Z "/>
			<path id="dp_path043" fill="#201f1f" d="M 240.047,0 L 242.323,-11.076 L 243.98,-11.076 L 243.513,-8.82 C 244.077,-9.67067 244.628,-10.3027 245.165,-10.7107 C 245.704,-11.12 246.253,-11.324 246.813,-11.324 C 247.183,-11.324 247.64,-11.1827 248.18,-10.8973 L 247.42,-9.156 C 247.097,-9.404 246.745,-9.52933 246.361,-9.52933 C 245.713,-9.52933 245.043,-9.15867 244.356,-8.42 C 243.671,-7.68133 243.129,-6.35333 242.735,-4.436 L 241.812,0 Z "/>
			<path id="dp_path044" fill="#201f1f" d="M 260.247,-1.37467 C 259.603,-0.812 258.983,-0.401333 258.387,-0.14 C 257.792,0.118667 257.155,0.249333 256.476,0.249333 C 255.469,0.249333 254.659,-0.052 254.043,-0.652 C 253.425,-1.25333 253.117,-2.02267 253.117,-2.96133 C 253.117,-3.58 253.256,-4.128 253.533,-4.604 C 253.811,-5.08133 254.179,-5.46267 254.637,-5.75067 C 255.096,-6.03867 255.656,-6.24533 256.321,-6.372 C 256.732,-6.45467 257.525,-6.52133 258.699,-6.56933 C 259.869,-6.61733 260.711,-6.74267 261.221,-6.944 C 261.365,-7.45733 261.437,-7.88667 261.437,-8.22533 C 261.437,-8.66267 261.28,-9.00667 260.963,-9.25733 C 260.529,-9.604 259.896,-9.77733 259.064,-9.77733 C 258.28,-9.77733 257.639,-9.604 257.139,-9.25467 C 256.641,-8.90667 256.279,-8.41067 256.051,-7.76933 L 254.184,-7.92933 C 254.568,-9.02533 255.176,-9.86667 256.008,-10.4493 C 256.84,-11.0333 257.891,-11.324 259.159,-11.324 C 260.508,-11.324 261.576,-10.9973 262.364,-10.3453 C 262.967,-9.85733 263.269,-9.22533 263.269,-8.44667 C 263.269,-7.856 263.184,-7.172 263.011,-6.39333 L 262.403,-3.63867 C 262.209,-2.76267 262.113,-2.052 262.113,-1.50267 C 262.113,-1.15333 262.189,-0.654667 262.341,0 L 260.464,0 C 260.36,-0.361333 260.288,-0.82 260.247,-1.37467 Z M 260.94,-5.60933 C 260.679,-5.504 260.397,-5.424 260.099,-5.36933 C 259.799,-5.31333 259.301,-5.25467 258.603,-5.19067 C 257.515,-5.09467 256.747,-4.97067 256.3,-4.82133 C 255.852,-4.672 255.516,-4.43333 255.288,-4.10667 C 255.063,-3.78133 254.949,-3.41867 254.949,-3.02267 C 254.949,-2.49467 255.128,-2.06 255.489,-1.71867 C 255.851,-1.38 256.364,-1.20933 257.031,-1.20933 C 257.649,-1.20933 258.243,-1.37467 258.813,-1.70533 C 259.384,-2.03333 259.835,-2.49467 260.165,-3.08667 C 260.496,-3.676 260.755,-4.51733 260.94,-5.60933 Z "/>
			<path id="dp_path045" fill="#201f1f" d="M 270.659,0 L 273.805,-15.2707 L 278.339,-15.2707 C 279.424,-15.2707 280.255,-15.1907 280.829,-15.0307 C 281.651,-14.816 282.351,-14.432 282.932,-13.8813 C 283.512,-13.328 283.951,-12.6387 284.244,-11.8133 C 284.537,-10.9867 284.685,-10.0587 284.685,-9.03067 C 284.685,-7.80267 284.501,-6.68267 284.136,-5.67067 C 283.769,-4.66133 283.291,-3.772 282.699,-3.004 C 282.107,-2.23867 281.488,-1.63733 280.841,-1.204 C 280.196,-0.769333 279.432,-0.448 278.548,-0.24 C 277.877,-0.08 277.055,0 276.077,0 Z M 273.012,-1.724 L 275.396,-1.724 C 276.472,-1.724 277.427,-1.82533 278.264,-2.02667 C 278.783,-2.15067 279.229,-2.336 279.599,-2.58 C 280.085,-2.892 280.527,-3.30667 280.925,-3.82267 C 281.445,-4.50267 281.861,-5.28 282.173,-6.15333 C 282.484,-7.02533 282.64,-8.02 282.64,-9.132 C 282.64,-10.372 282.429,-11.3227 282.004,-11.988 C 281.579,-12.6507 281.037,-13.092 280.379,-13.3067 C 279.893,-13.4667 279.136,-13.5467 278.109,-13.5467 L 275.448,-13.5467 Z "/>
			<path id="dp_path046" fill="#201f1f" d="M 293.633,-3.716 L 295.44,-3.556 C 295.18,-2.65067 294.581,-1.79067 293.644,-0.974667 C 292.708,-0.158667 291.591,0.249333 290.293,0.249333 C 289.484,0.249333 288.741,0.0586667 288.065,-0.32 C 287.391,-0.698667 286.875,-1.24933 286.521,-1.972 C 286.167,-2.69467 285.991,-3.51867 285.991,-4.44267 C 285.991,-5.65333 286.267,-6.82533 286.82,-7.96267 C 287.372,-9.09867 288.087,-9.94267 288.965,-10.496 C 289.844,-11.0493 290.793,-11.324 291.815,-11.324 C 293.119,-11.324 294.16,-10.9133 294.939,-10.0947 C 295.717,-9.27333 296.107,-8.15467 296.107,-6.736 C 296.107,-6.19333 296.059,-5.63733 295.963,-5.06667 L 287.911,-5.06667 C 287.888,-4.852 287.876,-4.65733 287.876,-4.484 C 287.876,-3.44933 288.111,-2.66 288.581,-2.116 C 289.051,-1.56933 289.627,-1.29733 290.305,-1.29733 C 290.945,-1.29733 291.573,-1.50533 292.192,-1.92 C 292.809,-2.33467 293.289,-2.93333 293.633,-3.716 Z M 288.209,-6.50667 L 294.353,-6.50667 C 294.361,-6.70267 294.364,-6.84133 294.364,-6.924 C 294.364,-7.87333 294.132,-8.60267 293.664,-9.108 C 293.196,-9.61467 292.596,-9.86667 291.86,-9.86667 C 291.063,-9.86667 290.336,-9.588 289.679,-9.02933 C 289.023,-8.47067 288.533,-7.63067 288.209,-6.50667 Z "/>
			<path id="dp_path047" fill="#201f1f" d="M 297.263,0 L 299.541,-11.076 L 301.395,-11.076 L 301.017,-9.23867 C 301.709,-10.028 302.328,-10.5747 302.873,-10.8747 C 303.417,-11.1747 304.009,-11.324 304.648,-11.324 C 305.325,-11.324 305.893,-11.1413 306.349,-10.7773 C 306.804,-10.412 307.104,-9.904 307.248,-9.252 C 307.805,-9.94667 308.388,-10.4653 309.001,-10.8093 C 309.616,-11.152 310.261,-11.324 310.941,-11.324 C 311.853,-11.324 312.536,-11.104 312.992,-10.6653 C 313.448,-10.2253 313.677,-9.60667 313.677,-8.812 C 313.677,-8.47333 313.597,-7.90933 313.437,-7.12533 L 311.951,0 L 310.099,0 L 311.605,-7.32667 C 311.736,-7.924 311.801,-8.352 311.801,-8.60933 C 311.801,-8.97067 311.688,-9.25733 311.461,-9.46533 C 311.235,-9.67333 310.916,-9.77733 310.504,-9.77733 C 309.947,-9.77733 309.381,-9.60667 308.804,-9.26533 C 308.228,-8.924 307.78,-8.476 307.46,-7.924 C 307.141,-7.36933 306.861,-6.51733 306.621,-5.36667 L 305.515,0 L 303.663,0 L 305.203,-7.48267 C 305.311,-7.98933 305.365,-8.352 305.365,-8.56667 C 305.365,-8.92933 305.253,-9.22133 305.032,-9.444 C 304.809,-9.66533 304.52,-9.77733 304.163,-9.77733 C 303.635,-9.77733 303.081,-9.60667 302.501,-9.26533 C 301.923,-8.924 301.449,-8.448 301.087,-7.83867 C 300.723,-7.228 300.425,-6.35867 300.192,-5.23067 L 299.115,0 Z "/>
			<path id="dp_path048" fill="#201f1f" d="M 322.144,-1.37467 C 321.5,-0.812 320.88,-0.401333 320.284,-0.14 C 319.689,0.118667 319.052,0.249333 318.373,0.249333 C 317.367,0.249333 316.556,-0.052 315.94,-0.652 C 315.323,-1.25333 315.015,-2.02267 315.015,-2.96133 C 315.015,-3.58 315.153,-4.128 315.431,-4.604 C 315.708,-5.08133 316.076,-5.46267 316.535,-5.75067 C 316.993,-6.03867 317.553,-6.24533 318.219,-6.372 C 318.629,-6.45467 319.423,-6.52133 320.596,-6.56933 C 321.767,-6.61733 322.608,-6.74267 323.119,-6.944 C 323.263,-7.45733 323.335,-7.88667 323.335,-8.22533 C 323.335,-8.66267 323.177,-9.00667 322.86,-9.25733 C 322.427,-9.604 321.793,-9.77733 320.961,-9.77733 C 320.177,-9.77733 319.536,-9.604 319.036,-9.25467 C 318.539,-8.90667 318.176,-8.41067 317.948,-7.76933 L 316.081,-7.92933 C 316.465,-9.02533 317.073,-9.86667 317.905,-10.4493 C 318.737,-11.0333 319.788,-11.324 321.056,-11.324 C 322.405,-11.324 323.473,-10.9973 324.261,-10.3453 C 324.864,-9.85733 325.167,-9.22533 325.167,-8.44667 C 325.167,-7.856 325.081,-7.172 324.908,-6.39333 L 324.3,-3.63867 C 324.107,-2.76267 324.011,-2.052 324.011,-1.50267 C 324.011,-1.15333 324.087,-0.654667 324.239,0 L 322.361,0 C 322.257,-0.361333 322.185,-0.82 322.144,-1.37467 Z M 322.837,-5.60933 C 322.576,-5.504 322.295,-5.424 321.996,-5.36933 C 321.696,-5.31333 321.199,-5.25467 320.5,-5.19067 C 319.412,-5.09467 318.644,-4.97067 318.197,-4.82133 C 317.749,-4.672 317.413,-4.43333 317.185,-4.10667 C 316.96,-3.78133 316.847,-3.41867 316.847,-3.02267 C 316.847,-2.49467 317.025,-2.06 317.387,-1.71867 C 317.748,-1.38 318.261,-1.20933 318.928,-1.20933 C 319.547,-1.20933 320.14,-1.37467 320.711,-1.70533 C 321.281,-2.03333 321.732,-2.49467 322.063,-3.08667 C 322.393,-3.676 322.652,-4.51733 322.837,-5.60933 Z "/>
			<path id="dp_path049" fill="#201f1f" d="M 326.447,0 L 328.729,-11.076 L 330.419,-11.076 L 330.031,-9.14267 C 330.772,-9.90267 331.465,-10.4573 332.111,-10.804 C 332.755,-11.1507 333.412,-11.324 334.085,-11.324 C 334.979,-11.324 335.68,-11.0787 336.191,-10.5867 C 336.699,-10.096 336.955,-9.43867 336.955,-8.61733 C 336.955,-8.208 336.859,-7.564 336.671,-6.684 L 335.197,0 L 333.344,0 L 334.873,-7.02267 C 335.024,-7.70533 335.101,-8.20933 335.101,-8.53733 C 335.101,-8.90533 334.973,-9.204 334.719,-9.43333 C 334.464,-9.66267 334.096,-9.77733 333.615,-9.77733 C 332.645,-9.77733 331.781,-9.42933 331.027,-8.732 C 330.269,-8.036 329.712,-6.84133 329.357,-5.148 L 328.299,0 Z "/>
			<path id="dp_path050" fill="#201f1f" d="M 345.459,-1.604 C 344.397,-0.368 343.288,0.249333 342.131,0.249333 C 341.099,0.249333 340.237,-0.138667 339.549,-0.913333 C 338.861,-1.68933 338.517,-2.812 338.517,-4.28667 C 338.517,-5.636 338.789,-6.868 339.333,-7.98267 C 339.877,-9.09867 340.557,-9.93467 341.376,-10.4907 C 342.193,-11.0467 343.013,-11.324 343.835,-11.324 C 345.189,-11.324 346.211,-10.6613 346.903,-9.33333 L 348.135,-15.2707 L 349.984,-15.2707 L 346.837,0 L 345.131,0 Z M 340.348,-4.644 C 340.348,-3.872 340.424,-3.26267 340.576,-2.81733 C 340.727,-2.372 340.984,-2.00133 341.349,-1.70533 C 341.713,-1.40933 342.149,-1.26267 342.657,-1.26267 C 343.504,-1.26267 344.269,-1.70667 344.956,-2.596 C 345.877,-3.776 346.339,-5.23333 346.339,-6.96933 C 346.339,-7.84933 346.112,-8.53733 345.659,-9.03333 C 345.205,-9.52933 344.635,-9.77733 343.947,-9.77733 C 343.5,-9.77733 343.093,-9.676 342.725,-9.476 C 342.357,-9.27333 341.992,-8.932 341.632,-8.448 C 341.271,-7.964 340.967,-7.34933 340.72,-6.604 C 340.472,-5.86133 340.348,-5.20667 340.348,-4.644 Z "/>
			<path id="dp_path051" fill="#201f1f" d="M 352.46,-13.1373 L 352.9,-15.2707 L 354.752,-15.2707 L 354.313,-13.1373 Z M 349.753,0 L 352.036,-11.076 L 353.888,-11.076 L 351.605,0 Z "/>
			<path id="dp_path052" fill="#201f1f" d="M 354.436,0 L 356.719,-11.076 L 358.408,-11.076 L 358.02,-9.14267 C 358.761,-9.90267 359.455,-10.4573 360.1,-10.804 C 360.744,-11.1507 361.401,-11.324 362.075,-11.324 C 362.968,-11.324 363.669,-11.0787 364.18,-10.5867 C 364.688,-10.096 364.944,-9.43867 364.944,-8.61733 C 364.944,-8.208 364.848,-7.564 364.66,-6.684 L 363.187,0 L 361.333,0 L 362.863,-7.02267 C 363.013,-7.70533 363.091,-8.20933 363.091,-8.53733 C 363.091,-8.90533 362.963,-9.204 362.708,-9.43333 C 362.453,-9.66267 362.085,-9.77733 361.604,-9.77733 C 360.635,-9.77733 359.771,-9.42933 359.016,-8.732 C 358.259,-8.036 357.701,-6.84133 357.347,-5.148 L 356.288,0 Z "/>
			<path id="dp_path053" fill="#201f1f" d="M 366.008,0.996 L 367.877,1.156 C 367.864,1.588 367.916,1.91333 368.032,2.12933 C 368.149,2.34533 368.333,2.51333 368.587,2.63067 C 368.923,2.78533 369.356,2.86267 369.891,2.86267 C 371.015,2.86267 371.821,2.56933 372.316,1.98 C 372.637,1.58533 372.935,0.726667 373.208,-0.596 L 373.393,-1.492 C 372.429,-0.497333 371.403,0 370.315,0 C 369.213,0 368.291,-0.412 367.548,-1.236 C 366.807,-2.05867 366.435,-3.22533 366.435,-4.73467 C 366.435,-5.97867 366.727,-7.12133 367.312,-8.16533 C 367.896,-9.20667 368.592,-9.99467 369.399,-10.5267 C 370.205,-11.0573 371.036,-11.324 371.891,-11.324 C 373.32,-11.324 374.421,-10.636 375.192,-9.26267 L 375.564,-11.076 L 377.28,-11.076 L 375.079,-0.388 C 374.839,0.782667 374.524,1.69467 374.135,2.348 C 373.744,3.00267 373.201,3.50933 372.508,3.868 C 371.813,4.22933 371.011,4.40933 370.101,4.40933 C 369.224,4.40933 368.471,4.29467 367.837,4.06533 C 367.205,3.83867 366.733,3.504 366.423,3.06533 C 366.112,2.62533 365.955,2.12267 365.955,1.556 C 365.955,1.38267 365.973,1.196 366.008,0.996 Z M 368.32,-4.9 C 368.32,-4.144 368.392,-3.57333 368.536,-3.19333 C 368.741,-2.65733 369.035,-2.24933 369.415,-1.968 C 369.795,-1.68667 370.219,-1.54667 370.685,-1.54667 C 371.296,-1.54667 371.901,-1.764 372.507,-2.19733 C 373.109,-2.63067 373.597,-3.30133 373.971,-4.20933 C 374.347,-5.11867 374.533,-5.98533 374.533,-6.81067 C 374.533,-7.72267 374.284,-8.448 373.787,-8.98667 C 373.291,-9.52533 372.673,-9.796 371.941,-9.796 C 371.488,-9.796 371.048,-9.67333 370.624,-9.42533 C 370.199,-9.17867 369.803,-8.804 369.436,-8.3 C 369.068,-7.79733 368.791,-7.19467 368.603,-6.49467 C 368.413,-5.792 368.32,-5.26267 368.32,-4.9 Z "/>
			<path id="dp_path054" fill="#201f1f" d="M 386.483,0 L 385.557,-15.2707 L 387.603,-15.2707 L 387.936,-7.71867 C 387.961,-7.35867 387.997,-6.37867 388.045,-4.78 C 388.061,-4.336 388.067,-4.02533 388.061,-3.844 C 388.067,-3.72667 388.069,-3.38133 388.073,-2.80933 C 388.909,-4.544 389.512,-5.76533 389.881,-6.47333 L 394.457,-15.2707 L 396.527,-15.2707 L 397.021,-6.34267 C 397.083,-5.32267 397.129,-4.09067 397.157,-2.64933 C 397.28,-3.00267 397.497,-3.532 397.808,-4.23467 C 398.308,-5.36533 398.676,-6.176 398.916,-6.66133 L 403.211,-15.2707 L 405.264,-15.2707 L 397.611,0 L 395.443,0 L 394.952,-9.252 C 394.899,-10.0427 394.852,-11.0187 394.811,-12.1773 C 394.393,-11.2093 394.045,-10.4573 393.764,-9.92 L 388.559,0 Z "/>
			<path id="dp_path055" fill="#201f1f" d="M 403.812,-4.20267 C 403.812,-6.364 404.439,-8.15467 405.692,-9.57333 C 406.724,-10.7413 408.081,-11.324 409.757,-11.324 C 411.071,-11.324 412.131,-10.9067 412.935,-10.0733 C 413.74,-9.23867 414.141,-8.11333 414.141,-6.69467 C 414.141,-5.42267 413.889,-4.24 413.383,-3.14533 C 412.876,-2.04933 412.156,-1.21067 411.22,-0.628 C 410.285,-0.0426667 409.303,0.249333 408.269,0.249333 C 407.42,0.249333 406.648,0.064 405.953,-0.304 C 405.257,-0.672 404.728,-1.19333 404.361,-1.868 C 403.996,-2.54267 403.812,-3.32133 403.812,-4.20267 Z M 405.644,-4.39067 C 405.644,-3.348 405.891,-2.556 406.387,-2.01733 C 406.883,-1.47867 407.512,-1.20933 408.275,-1.20933 C 408.675,-1.20933 409.069,-1.29067 409.463,-1.45467 C 409.853,-1.61733 410.22,-1.86667 410.556,-2.19867 C 410.893,-2.53333 411.18,-2.91333 411.417,-3.34267 C 411.655,-3.76933 411.847,-4.23067 411.991,-4.724 C 412.204,-5.41333 412.311,-6.07333 412.311,-6.70533 C 412.311,-7.70667 412.061,-8.48533 411.561,-9.03867 C 411.064,-9.59067 410.435,-9.86667 409.679,-9.86667 C 409.095,-9.86667 408.561,-9.72667 408.079,-9.444 C 407.597,-9.16267 407.161,-8.75067 406.775,-8.208 C 406.385,-7.66533 406.099,-7.03467 405.917,-6.31467 C 405.735,-5.59467 405.644,-4.95333 405.644,-4.39067 Z "/>
			<path id="dp_path056" fill="#201f1f" d="M 415.155,0 L 417.431,-11.076 L 419.088,-11.076 L 418.621,-8.82 C 419.185,-9.67067 419.736,-10.3027 420.273,-10.7107 C 420.812,-11.12 421.361,-11.324 421.921,-11.324 C 422.291,-11.324 422.748,-11.1827 423.288,-10.8973 L 422.528,-9.156 C 422.205,-9.404 421.853,-9.52933 421.469,-9.52933 C 420.821,-9.52933 420.151,-9.15867 419.464,-8.42 C 418.779,-7.68133 418.237,-6.35333 417.843,-4.436 L 416.92,0 Z "/>
			<path id="dp_path057" fill="#201f1f" d="M 422.023,0 L 425.175,-15.2707 L 427.027,-15.2707 L 423.875,0 Z "/>
			<path id="dp_path058" fill="#201f1f" d="M 434.151,-1.604 C 433.089,-0.368 431.98,0.249333 430.823,0.249333 C 429.791,0.249333 428.929,-0.138667 428.241,-0.913333 C 427.553,-1.68933 427.209,-2.812 427.209,-4.28667 C 427.209,-5.636 427.481,-6.868 428.025,-7.98267 C 428.569,-9.09867 429.249,-9.93467 430.068,-10.4907 C 430.885,-11.0467 431.705,-11.324 432.527,-11.324 C 433.881,-11.324 434.903,-10.6613 435.595,-9.33333 L 436.827,-15.2707 L 438.676,-15.2707 L 435.529,0 L 433.823,0 Z M 429.04,-4.644 C 429.04,-3.872 429.116,-3.26267 429.268,-2.81733 C 429.419,-2.372 429.676,-2.00133 430.041,-1.70533 C 430.405,-1.40933 430.841,-1.26267 431.349,-1.26267 C 432.196,-1.26267 432.961,-1.70667 433.648,-2.596 C 434.569,-3.776 435.031,-5.23333 435.031,-6.96933 C 435.031,-7.84933 434.804,-8.53733 434.351,-9.03333 C 433.897,-9.52933 433.327,-9.77733 432.639,-9.77733 C 432.192,-9.77733 431.785,-9.676 431.417,-9.476 C 431.049,-9.27333 430.684,-8.932 430.324,-8.448 C 429.963,-7.964 429.659,-7.34933 429.412,-6.604 C 429.164,-5.86133 429.04,-5.20667 429.04,-4.644 Z "/>
		</g>
	</g>
</svg>